/* XPM */
static char *ff022bb885ce4381f11ea37732753ba9iBax4BEhl8t6RqiV[] = {
/* columns rows colors chars-per-pixel */
"64 64 130 2 ",
"   c #000000",
".  c #0B0001",
"X  c #01020A",
"o  c #080109",
"O  c #060A0B",
"+  c #0C0D0E",
"@  c #140000",
"#  c #1C0000",
"$  c #0D170F",
"%  c #041010",
"&  c #0B1213",
"*  c #0E1810",
"=  c #121210",
"-  c #161C1C",
";  c #1C1E1D",
":  c #240000",
">  c #2A0100",
",  c #240807",
"<  c #330103",
"1  c #360903",
"2  c #350F0E",
"3  c #3D0B0A",
"4  c #36100F",
"5  c #2F1113",
"6  c #311919",
"7  c #381B1D",
"8  c #252626",
"9  c #232821",
"0  c #2A2A2A",
"q  c #363636",
"w  c #393031",
"e  c gray22",
"r  c #410504",
"t  c #4F0D0F",
"y  c #5F0608",
"u  c #5B0A0D",
"i  c #521B1E",
"p  c #5B1E1B",
"a  c #630609",
"s  c #65090D",
"d  c #6C0C0E",
"f  c #760E07",
"g  c #750F0A",
"h  c #6D110E",
"j  c #72110B",
"k  c #6C0D11",
"l  c #621215",
"z  c #691612",
"x  c #631916",
"c  c #721412",
"v  c #771917",
"b  c #7B1A1C",
"n  c #76231F",
"m  c #78201E",
"M  c #421E20",
"N  c #483433",
"B  c #413C38",
"V  c #563433",
"C  c #5F373F",
"Z  c #692B2C",
"A  c #732620",
"S  c #7B2523",
"D  c #752822",
"F  c #7F262A",
"G  c #792A2D",
"H  c #652D30",
"J  c #56413E",
"K  c #414141",
"L  c #4B4B4B",
"P  c #554E48",
"I  c #46514B",
"U  c gray33",
"Y  c #555D5F",
"T  c #5A5A5A",
"R  c #714751",
"E  c #695E5C",
"W  c #71585B",
"Q  c #6D6D6D",
"!  c gray45",
"~  c gray48",
"^  c #822629",
"/  c #9F5E5C",
"(  c #93605F",
")  c #806C6B",
"_  c #C57576",
"`  c #C97374",
"'  c #CB7578",
"]  c #D57D7C",
"[  c #DB7D7E",
"{  c #C57D81",
"}  c #808080",
"|  c #8F8B8A",
" . c gray64",
".. c #B4AAA9",
"X. c #D78182",
"o. c #DB8184",
"O. c #E68A8D",
"+. c #E88C8F",
"@. c #EA8E91",
"#. c #F09497",
"$. c #F29699",
"%. c #F5999C",
"&. c #FC9B9E",
"*. c #FFA19C",
"=. c #F29DA2",
"-. c #FC9DA1",
";. c #C7A3A5",
":. c #CCBCBC",
">. c #EAA5AA",
",. c #FCA4A3",
"<. c #F5AAA7",
"1. c #FDA8A6",
"2. c #FFACAB",
"3. c #F2B1AF",
"4. c #FFB4B3",
"5. c #FFB8B7",
"6. c #FFB7B8",
"7. c #FFBBBC",
"8. c #FFC3BE",
"9. c #FFC5C2",
"0. c #FFC6CB",
"q. c #FFCFD4",
"w. c #E4DAD9",
"e. c #FFDADF",
"r. c #FFD6E0",
"t. c #FFEFF3",
"y. c #FFF5F5",
"u. c #FFF8F3",
"i. c #FFF4F9",
"p. c #FFF9F9",
/* pixels */
"                                . . . .         X X X     O . @ @ @   O O X O . . .   .                                         ",
"                                            O           . . . @ # @         .     .                                             ",
"                                  O     O O       . o . # 1 C R i : .     X X                                                   ",
"                                    O O         . O . @ r / r.i.>.Z , . X               O     .                                 ",
"                                    O O     .       . # u _ t.t.q.G : . . .               o   .                                 ",
"                                            O   O     # u ' y.y.0.F 1 @ o       O                                               ",
"                                  o           .       : a ' u.u.0.^ < @ .   O                 .                                 ",
"                                .   . .     .         @ y ] u.u.9.S < @ . o             X                                       ",
"                                      .             . # a [ u.u.9.S > @ . .                                                     ",
"                                                .     # a ] y.u.9.S > .   o             X                                       ",
"                                  O         O     .   # a [ u.u.9.D > .           . . X X                                       ",
"                                        O         . . : a [ u.u.8.A > .     o       .                                           ",
"                                                . .   # s X.p.y.8.n > .               . X                                       ",
"                                .           X   .   . # s o.y.y.8.m < . .           o   X                                       ",
"                                                . .   : a o.i.y.7.b < @   X         X o                                         ",
"                                    O O           . . # k o.y.y.6.b > . . X                                                     ",
"                                                . .   # d O.y.y.5.v > .               X                                         ",
"                                                    . # a O.y.y.5.m >   .       o   X                                           ",
"                                                .   . : a O.y.y.5.v >                                                           ",
"                                            X         # k O.y.y.4.v >   O         o                                             ",
"                                                    . : s +.y.u.4.v : .             X                                           ",
"                                                  . . # k +.y.y.4.c :   X       . X                                             ",
"                                                    . # k @.y.y.4.c : . .         . X                                           ",
"                                            X       . : k @.y.y.4.c :             X                                             ",
"                                                    . : k #.y.y.2.c : .           X                                             ",
"                                                O     : d $.y.y.2.j >           .   X                                           ",
"                                              X     . # k $.y.u.2.c >             X   X                                         ",
"                                                .   . : k $.y.u.2.z : .         . X                                             ",
"                                                      # k %.y.u.2.z >           o   X                                           ",
"                                                .   . : k %.p.y.1.h >   .                                                       ",
"                                                    . : k =.y.y.1.j >             o                                             ",
"                                                      : g %.p.y.1.d > .                                                         ",
"                                O         O     X X . : g *.p.p.1.h : . . X       O                                             ",
"                                                X X   : f *.p.p.1.d : . X X X                                                   ",
"                                                X X   : f *.i.i.,.h > . o X X     O                                             ",
"                                                X X . : g *.y.i.-.d > .   X             o                                       ",
"                                X   o           X X . : g *.y.i.-.g > .   X                                                     ",
"                                    .           X   . : h ,.y.i.-.h >   X     .                                                 ",
"                                                  . . : z 1.t.t.&.d >     X       .                                             ",
"                                                    . : x <.y.t.-.s >                   O                                       ",
"                                                  . . @ p 3.y.y.=.l :   O               O                                       ",
"                                                    . @ 3 ( ;.e.{ t @ .     O     .                                             ",
"                                                  . . . V 4 5 M H > @     O         .   O                                       ",
"                                                      . N 6 W 7 4 # .         O     . X                                         ",
"                                                    . . w ..:.) J . .   X o           X                                         ",
"                                                  O   O +  .w.E P     X o             X X                                       ",
"                                                        & Y | B 9 $   O   o           X                                         ",
"                                                      O % X ;   * I -   o o             X                                       ",
"                                                  O     & 8 L = ; ; $   O                                                       ",
"                                                          U ~ K 8 O         O                                                   ",
"                                                    o     T ! e 0                                                               ",
"                                                          U ~ q 9 .     O                                                       ",
"                                                          T } q 8 O     o                                                       ",
"                                                        O Q ! L e                                                               ",
"                                                        + T L U 0                                                               ",
"                                                    O             .     o                                                       ",
"                                                                                                                                ",
"                                                                                                                                ",
"                                                                                                                                ",
"                                                                                                                                ",
"                                                                                                                                ",
"                                                                                                                                ",
"                                                                                                                                ",
"                                                                                                                                "
};
