/* XPM */
static char *_b47afd80e7c4d37ec43a1268f59a9b4DSbPxuDSISP4Opap[] = {
/* columns rows colors chars-per-pixel */
"64 64 187 2 ",
"   c #000000",
".  c #070708",
"X  c #080808",
"o  c #0C0C0C",
"O  c #100F0D",
"+  c #0F100F",
"@  c #10110E",
"#  c #0F0E11",
"$  c #131414",
"%  c #1A1616",
"&  c #171816",
"*  c #1B1A17",
"=  c #1C1C1B",
"-  c #211D1A",
";  c #1F201E",
":  c #22211E",
">  c #2A211D",
",  c #1D1E22",
"<  c #1F2021",
"1  c #242423",
"2  c #2A2622",
"3  c #292924",
"4  c #252629",
"5  c #27292C",
"6  c #2B2C2B",
"7  c #372A27",
"8  c #312E29",
"9  c #2F302F",
"0  c #33322E",
"q  c #39322E",
"w  c #2E2F32",
"e  c #2F3033",
"r  c #333433",
"t  c #383733",
"y  c #353837",
"u  c #3B3A35",
"i  c #36393C",
"p  c #3C3D3A",
"a  c #441F17",
"s  c #492C23",
"d  c #4B3129",
"f  c #443B36",
"g  c #4B3A35",
"h  c #403F3A",
"j  c #533B34",
"k  c #633D36",
"l  c #3E403F",
"z  c #43423D",
"x  c #4B463F",
"c  c #55423B",
"v  c #3C3F42",
"b  c #3E4143",
"n  c #444542",
"m  c #494742",
"M  c #464846",
"N  c #4B4A45",
"B  c #434549",
"V  c #464A4B",
"C  c #4C4D4A",
"Z  c #524D46",
"A  c #584A43",
"S  c #504E4A",
"D  c #4E504E",
"F  c #555046",
"G  c #53524D",
"H  c #5A544C",
"J  c #5D584E",
"K  c #464C50",
"L  c #4A4E52",
"P  c #4E5253",
"I  c #545552",
"U  c #585752",
"Y  c #565856",
"T  c #5B5A54",
"R  c #52565B",
"E  c #565959",
"W  c #5C5D5A",
"Q  c #64584F",
"!  c #74554E",
"~  c #625E54",
"^  c #695854",
"/  c #615D59",
"(  c #5F605D",
")  c #636054",
"_  c #63635C",
"`  c #69655D",
"'  c #6C695D",
"]  c #706459",
"[  c #7B645D",
"{  c #5A5D60",
"}  c #5E6163",
"|  c #646562",
" . c #696761",
".. c #676864",
"X. c #6B6B64",
"o. c #65686A",
"O. c #6C6D6A",
"+. c #716E65",
"@. c #7C6964",
"#. c #716F69",
"$. c #6F716B",
"%. c #747265",
"&. c #73736C",
"*. c #7B756C",
"=. c #7A796D",
"-. c #6B6F70",
";. c #6D7171",
":. c #6E7478",
">. c #747572",
",. c #7A7671",
"<. c #777974",
"1. c #7B7B75",
"2. c #767A7A",
"3. c #7C7E7A",
"4. c #81726E",
"5. c #817F75",
"6. c #8A7B75",
"7. c #817E79",
"8. c #7F817C",
"9. c #828176",
"0. c #83837C",
"q. c #8A857B",
"w. c #8B897F",
"e. c #93847C",
"r. c #7A7E81",
"t. c #7E8282",
"y. c #838582",
"u. c #858785",
"i. c #878984",
"p. c #8C8B84",
"a. c #86898A",
"s. c #8B8E8B",
"d. c #928E84",
"f. c #948C89",
"g. c #8E918C",
"h. c #939186",
"j. c #93938C",
"k. c #99958D",
"l. c #9B998D",
"z. c #8A8E91",
"x. c #8D9292",
"c. c #939692",
"v. c #969995",
"b. c #9C9C94",
"n. c #969A9B",
"m. c #9C9D9A",
"M. c #A29C8B",
"N. c #A19E91",
"B. c #A29D9C",
"V. c #9EA19C",
"C. c #A3A297",
"Z. c #A3A39C",
"A. c #AAA49D",
"S. c #A9A89E",
"D. c #9DA1A1",
"F. c #A3A5A2",
"G. c #A6A9A3",
"H. c #ABACA4",
"J. c #A3A6A8",
"K. c #ABAEAB",
"L. c #B0AFAA",
"P. c #AEB1AC",
"I. c #B3B3AB",
"U. c #B8B6AB",
"Y. c #AAAFB0",
"T. c #B3B6B2",
"R. c #B6B9B5",
"E. c #BABBB5",
"W. c #B6BAB9",
"Q. c #BABDBA",
"!. c #C0BFB7",
"~. c #BDC0BD",
"^. c #C2C1B6",
"/. c #C3C4BB",
"(. c #C9C7BE",
"). c #C9C9BF",
"_. c #BDC2C0",
"`. c #C1C5C2",
"'. c #C6C8C3",
"]. c #CBCBC4",
"[. c #CBCECB",
"{. c #D0CFC6",
"}. c #CED0CA",
"|. c #D0D0C7",
" X c #D3D4CC",
".X c #CDD2D0",
"XX c #D6D7D2",
/* pixels */
"                                                                                                                                ",
"                                                                                                                                ",
"                                                                                                                                ",
"                                                                                                                                ",
"                                                                                                                                ",
"                                                                                                                                ",
"                                                                                                                                ",
"                                                                                    X = 6 p 6 .                                 ",
"                                                                                & r n C Z G h $                                 ",
"                                                                          X 4 D ..&.#._ U p 1 o                                 ",
"                                                                    . & y Y } W  .<.&. .S r &           = 8 o                   ",
"                                                                = v v C 2.3.r ; y _ $.Y 6 &           $ 1 n : X                 ",
"                                                      b M + + l >.-.} 2.u.8.U z U  .| r & .         = 3 t z 0 O                 ",
"                                              X       &.[.u.( 8.W e M ..o.>.1.&.o.( V 3 o         = r t I U h $                 ",
"                                            o I t h 4 ( G.~.c.$.v 4 e V 6 2 u m n y y V p 4 o   o r h C _ ..N &                 ",
"                                        $ 6 I 3.O.S W 1.o.:.z.R | W l < * - % - p b M D C I G = : x W G _ O.G =                 ",
"                                X $ 8 N Z  .1.1.,.,.3.s._ M } P D l 0 9 9 r r p C D C Y C _ M = 6 G M 0 C X.I =                 ",
"                            o z 1.1.5.U 8 T 3.y.1.,.O.O.Y z r r l x N M n U U G T I Y R | C 1 1 z _ r = i W E =                 ",
"                        . r 0.L.I.m. .h C ,.s.g.` H >.$.B 6 y N ' +.X.&.%...G T ( T U I N 4 1 8 M %.U n I X.E ,                 ",
"                      o _ S.H.A.C.N.c.p.p.c.v.j.X.( 3.2.V _ =.=.w.9.,.#.X.I G X. .U G G : $ 6 r P $.X.<.>.O.I =                 ",
"                      $ 3.p.,.5.l.H.L.H.p.c.j.p.q.w.l.p.E $.%.%.w.q.&.` G ( .._ T J l 3 @ $ 1 0 _ ..M C O.-.P $                 ",
"                  & C I 8.y.7.I G 0.Z.s.0.c.b.C.C.w.h.w.t.8.1.9.w.>.$.( ..+...) ..T : & = o @ t | M 1 = M >.E o                 ",
"                + i.~.m.y.s.x.c.0.W _ 8.Z.F.j.j.C.l.l.g.s.i.2.1.$.X._ &.2.' _ $.+.0 3 l y 1 : I I 6 = = 5  .W $                 ",
"                D '..X~.P.K.v.c.V.j.2.| >.s.5.,.l.C.V.p.<.&.| ..( T <.=._ X.$...l ; D ( E i p C L M t z Y O.| &                 ",
"                ..K..X[.XX[.R.F.m.y.N E 1.>.X.j c q.w.*.U G I >...( _ ( ( _ X.l 1 y v b I D m G G Z C N ..| E o                 ",
"          o r b x.n.E.Q.}. X`.K.P.V.1.p.j.j.i.%.c g X.7.p.] s Q ..b 0 z x U y ; u C R 1 p J z Z G m m z C &.C o       o = $     ",
"          O.T.K.E.U.I.U.H.v.D.n.J.J.4.[ *.g.p.C h +.q.b.l.T A T M > * 0 I x ; x _ ..O.C 6 G u h m x t z l ( n o   @ p M 5 5 $   ",
"        r T.E.K.U./.'./.F.x.s.t.r.x.F.G.e.h.0.t &.l.l.M.U n 1.p 5 % 7 > C 0 0 T E W } W 7 c q 7 z x n x n D R & 4 1.8.W h 5 =   ",
"      . u.~.I.S.L.]./.A.p.l.M.*.-.K.E.H.I.F...N h.h.C.M.` O.&.r & J h.G ; 3 J ( I Y T W N Z Z q N z l l N ( W b p.d.~ z n n <   ",
"      r E.Q.N.d.H.].^.y.2.$.t.2.3.T.E.Z.B.q.S >.S.N.s.0.h.3.C 0 N h.V.&.; l U %.y.1.X.W W W T J U D l l x U I $.V.,.Z t u L 5   ",
"      O.[.]./.I./.(.I.O...2.t.a.f.H.K.l.p.+.f u.g.7.s.*.q.` X._ 8.9.h.) ; 0 N =.p.j.,.+.+._ H N D T ~ J S G G W U Z N m C B <   ",
"    o b. X X].'.[.].b.3.c.n.J.T.K.R.b.w.+.' N | Y I O.H X.&.X.` h.w.h.l ; 0 G X.<.O.q.d.w.w.0.D B ;.<.$.+.X._ _ ~ G h m I p o   ",
"    : U. XXX].(.).(.S.I.W.T.P.F.c.v.j.q.p.s.I p | W C G W 0.>.M N 8.( ; N T N l b V 1.0.w.h.j.o.P 8.t.$.0.9.&.%.=.=.m C G 3     ",
"    p ].XXXX|.).{.^.!.~.K.F.m.B.Z.v.m.3.W 1.>.I n _ z I 1.v.O.P M b ; x | ..#.( N z G J _ ` %.| V 2.3...1.8.=.' =.9.T U t .     ",
"    I  X X X~.^.(.^.E.T.F.P.K.Z.c.j.&.9 4 r | ,.h n h _ &.>.M i 6 & D 1.8.8.1.8.1.( l z G ( T M p D U D ` $.' ) ` =.( z o       ",
"    Y [.(./.R.E.^.(.E.W.t.Z.F.g.<.&.E r 4 u n I <.Y h z z n 0 3 N z D 1.j.g.p.<.X.8.$.Y z x F U N z t 8 t u l t l N x &         ",
"    C K.H.'..X].T.P.G.Y.>.c.t.| #.;.N X._ | y 4 l P / O...| I x y.<.I N 8.C.k.<.<.0._ D } ( u u z G G z t 0 : ; & * &           ",
"    $ v.I.}.}./.j.$.v.v.s.j.M 6 9 I T 7.j.<.1 1 6 I r 6 n G _ I y.i.#.H s F h.V.g.p.+.M ..$.&.N t l Z N N F x 8 o               ",
"    Y '.W.T._.~.s.g.V.g.,.y.p 5 y C 1.s.0.0.I u C E 1 = = M _ _ +.5.+.c a 7 d %.S.H.w.<.#.+.<.| ( x l 0 l N Z 0 X               ",
"  = z.K.J.} o.g.V.v.g.W _ d.0.W W ,.B.y.1.5.<.#.,.3.n 2 r M O.1.~ 7.5.+.s j ) G ) V.V.V.p.<.<.&.N D 0 : 0 z z 8                 ",
"  $ 2.F.f./ u.L./.v.#.H %.%.k.>.>.1.3.S p W / _ i.%.G z C U p.1.~ 0.7._ u G #.` T H 1.H.H.g.1.<.I h : - 1 r t 1                 ",
"    W 6.! 4.B.].I.j.*.X.U ..i.y.0.y.C 1 1 y C ,.&.X.T | I _ y.&.T 1.| y 0 m u _ ' ' J %.G.L.V.p.G 3 8 8 5 5 4 o                 ",
"    B B.! ! F.T.c.j.g.,.T s.c.v.v.v.%.6 5 u G p.&.V 9 C I O.E  .T %.;.v R ..C y N ` ' H +.v.G.j.r 3 0 6 1 = &                   ",
"    $ r.4.f.1.1.H.S.j.p.0.j.Z.l.h.X.y.%.G W O.<.| = = 1 W $.n A Q I R K B o.G 0 l G ` ' H / j.` * p G 0 @                       ",
"      V L.,.s.a.s.V.q.H.F.p.j.l.` U X.J ' j.p.( W 5 = 4 W ( f j ~ N B L e M I B F G ..%.X.J T 8 0 &._ 1 X                       ",
"      $ v.m.Q.v.u.T.E.].K.3.d.1._ / u u 0.j.1.>.Y X.G N O.O.G / / C B K v 6 W W J ) _ X.%._ E u > F l *                         ",
"        y T.F.B._.T.T.g.7.i.p. .1._ t <.l.h.9.<.z %...G ..( ( G _ _ n C C T U X._ ' ) ` _ | _ G 8 : : o                         ",
"        . :.T.T._.c.u.y y G &...<.z ` l.b.i.3.( u ` x z $.( 8.8.&.&./ .._ X.%.%.%.+.) F ` _ U N m 6 $                           ",
"          = 2.W.c.F.v.} C p X.o.N h q.0.p.0./ u z m 0 _ 2...0.<.%.$.G >.$.X.X.%.X.` ) ) J C G I G M +                           ",
"            6 D.W.J.W.a.X.C >.T u _ m.j.b.>.x N J u U  .O.>.8.D | _ N $.$._ _ _ ( ` ) F m U D T I e .                           ",
"              r t.s.a.s.H.g. .8 h p.s.,.j.5.` X.U F ` 8.$.>.| U I T m T U J +._ u T X.G G U { I 6 o                             ",
"                5 t.z.a.v.>.y.Q ^ #.E 9 z ~ 1.X.%.X.#.k.g.y.( p.0.U Z N ) T &.%...' &.` T T M 1 .                               ",
"                  , W z.K.s.@.! c Q S I G p.j.3.w.&.=.b.j.g.O.i.p.U N u ) ` %.1.9...$...N 6 $                                   ",
"                    o I x.D.7.@.j [ m.#.p.[  ./ &.#.1.V.p.t.p r M l N u ( %.' =.1.` N 0 & X                                     ",
"                      X 5 { a.n.s.g.Z.>.6.k g j 0._ 8.V.3.o.l p S &.&.t U <.' ( n 1 @ X                                         ",
"                          o i | t.x.m.n.^ ^ f ^ V...y.V.8...8.8.( i.G & y l : + . .                                             ",
"                              X 6 E :.:.R { R B o.R o.s.8.>.2.O.M D & . .                                                       ",
"                                    # w b K K i e e 5 i M V 1 , < $ . .                                                         ",
"                                          . $ , 4 5 5 , & $ $ o . .                                                             ",
"                                                      .   .                                                                     ",
"                                                                                                                                ",
"    o .                                                                                                                         ",
"  $ C &                                                                                                                         ",
"  X , X                                                                                                                         "
};
