/* XPM */
static char *_a62316f199b409ae122d3d96d4648ecsgPG2ye1iXe9Gqpy[] = {
/* columns rows colors chars-per-pixel */
"64 64 238 2 ",
"   c #291B0E",
".  c #381C06",
"X  c #392512",
"o  c #3B352C",
"O  c #441F03",
"+  c #491F01",
"@  c #452105",
"#  c #4B2303",
"$  c #442409",
"%  c #492508",
"&  c #4E2908",
"*  c #542503",
"=  c #592703",
"-  c #542A03",
";  c #5C2C03",
":  c #542C09",
">  c #5D3003",
",  c #5C320C",
"<  c #432A13",
"1  c #583717",
"2  c #632D04",
"3  c #682F05",
"4  c #633103",
"5  c #6B3205",
"6  c #6D3904",
"7  c #67360C",
"8  c #733604",
"9  c #753905",
"0  c #7A3B06",
"q  c #793A08",
"w  c #643811",
"e  c #6D3A11",
"r  c #723D11",
"t  c #473C29",
"y  c #42393B",
"u  c #7B4205",
"i  c #67421B",
"p  c #49483B",
"a  c #574D38",
"s  c #6C4B2A",
"d  c #795629",
"f  c #6E5531",
"g  c #685738",
"h  c #303C53",
"j  c #35514E",
"k  c #3C534E",
"l  c #364D52",
"z  c #374965",
"x  c #29556C",
"c  c #395766",
"v  c #3A696B",
"b  c #43544E",
"n  c #4D5449",
"m  c #4F554C",
"M  c #57604E",
"N  c #5C665A",
"B  c #636858",
"V  c #6E715B",
"C  c #46696C",
"Z  c #556A64",
"A  c #4B746E",
"S  c #61766D",
"D  c #813E05",
"F  c #844205",
"G  c #894506",
"H  c #8E4905",
"J  c #8A4908",
"K  c #934C05",
"L  c #974D05",
"P  c #9D5104",
"I  c #93570F",
"U  c #8A5718",
"Y  c #A55504",
"T  c #A95703",
"R  c #A65807",
"E  c #AD5904",
"W  c #B35C05",
"Q  c #B95F04",
"!  c #926412",
"~  c #BD6206",
"^  c #A5641D",
"/  c #895B25",
"(  c #905E30",
")  c #9A6B31",
"_  c #A56927",
"`  c #A26D2D",
"'  c #A06E32",
"]  c #C46605",
"[  c #C76807",
"{  c #C6770C",
"}  c #9B754A",
"|  c #8B7B5E",
" . c #A67A46",
".. c #D78D0A",
"X. c #EFB111",
"o. c #DEAB22",
"O. c #F4CC35",
"+. c #9E8C64",
"@. c #AC8A65",
"#. c #F8D742",
"$. c #F7E873",
"%. c #1D4882",
"&. c #305C84",
"*. c #396C88",
"=. c #397A88",
"-. c #327294",
";. c #1C64BE",
":. c #257AB3",
">. c #48768D",
",. c #1972D6",
"<. c #2B71C3",
"1. c #1778E5",
"2. c #3A838C",
"3. c #2F8595",
"4. c #378696",
"5. c #3D8A95",
"6. c #2A87B6",
"7. c #3290B3",
"8. c #3CA6B8",
"9. c #468A97",
"0. c #4B8B94",
"q. c #538C96",
"w. c #578D97",
"e. c #669093",
"r. c #789A9A",
"t. c #449AA4",
"y. c #4F99B1",
"u. c #4CA4AE",
"i. c #45A8B8",
"p. c #4CADBA",
"a. c #58ABBA",
"s. c #66A9B7",
"d. c #73ACB4",
"f. c #63B1BA",
"g. c #1B8ACD",
"h. c #2B8BCF",
"j. c #269AD8",
"k. c #39ADC8",
"l. c #37A4D9",
"z. c #1599EC",
"x. c #2288E7",
"c. c #2999E9",
"v. c #329BEE",
"b. c #1CB3EB",
"n. c #17A9F6",
"m. c #1AB5F8",
"M. c #2DA2EA",
"N. c #35A9E9",
"B. c #34AAEB",
"V. c #3BB2EC",
"C. c #37B9EC",
"Z. c #4C91D7",
"A. c #43B6CB",
"S. c #4BB7C9",
"D. c #4CBACB",
"F. c #55B8C8",
"G. c #53BDCC",
"H. c #50B2DE",
"J. c #63BCCB",
"K. c #68BDC9",
"L. c #72B8CF",
"P. c #529CEC",
"I. c #42B5EC",
"U. c #4BB6EB",
"Y. c #44BAED",
"T. c #49BBE9",
"R. c #69B3F2",
"E. c #3FC4DD",
"W. c #2CCCF3",
"Q. c #2BC7F8",
"!. c #35CCFC",
"~. c #3ADAFB",
"^. c #58C0CC",
"/. c #49C8DD",
"(. c #52CCDE",
"). c #5CCDDE",
"_. c #64C2CC",
"`. c #6BC1CC",
"'. c #62CADD",
"]. c #7BC3D6",
"[. c #4DC5EC",
"{. c #54C9E7",
"}. c #57D2E6",
"|. c #47C9F9",
" X c #57CBFA",
".X c #48D9F9",
"XX c #57DAFB",
"oX c #65C9E7",
"OX c #71CAED",
"+X c #66D8F9",
"@X c #76D6F8",
"#X c #7DDEFE",
"$X c #41E0FD",
"%X c #4DE2FD",
"&X c #52E2FC",
"*X c #5CE3FB",
"=X c #69E4FB",
"-X c #64EBFC",
";X c #7AEBFD",
":X c #76F0FE",
">X c #A9A798",
",X c #A9B3AF",
"<X c #C1C6B4",
"1X c #96CCD4",
"2X c #86D3E6",
"3X c #8DD5F2",
"4X c #86DBF6",
"5X c #82DEFD",
"6X c #83E2FD",
"7X c #8BE4FD",
"8X c #85EDFB",
"9X c #93E4FD",
"0X c #9BE5FD",
"qX c #99E8FD",
"wX c #87F0FE",
"eX c #8CF1FC",
"rX c #B3E3EF",
"tX c #A7E6FB",
"yX c #A2EAFE",
"uX c #ACEBFE",
"iX c #BCE7F7",
"pX c #B3EDFE",
"aX c #B9EFFD",
"sX c #B7F0FF",
"dX c #BBF0FE",
"fX c #C3CEC1",
"gX c #C6DCD3",
"hX c #CDE9ED",
"jX c #C8EAFB",
"kX c #C4F2FE",
"lX c #CDF3FE",
"zX c #D4F5FE",
"xX c #DBF6FE",
"cX c #DEF8FC",
"vX c #E8F5F7",
"bX c #E3F9FE",
"nX c #EBFAFD",
"mX c #F6FDFE",
/* pixels */
"nXnXnXnXnXnXnXnXnXnXnXnXnXnXnXnXnXmXbXuXtXlXbXnXnXnXnXnXnXnXnXnXnXnXnXnXnXnXnXmXnXbXaX7XpXbXnXnXnXnXnXnXnXnXnXnXnXnXnXnXnXnXnXnX",
"nXnXnXnXnXnXnXnXnXnXnXnXnXnXnXnXnXnXnXcX0XuXzXnXnXnXnXnXnXnXnXnXmXnXnXnXnXnXnXnXmXkX7XuXzXnXnXnXnXnXnXnXnXnXnXnXnXnXnXnXnXnXnXnX",
"nXnXnXnXnXnXnXnXnXnXnXnXnXnXnXnXnXnXnXnX0XyXzXnXnXnXnXbXbXbXbXcXbXcXbXbXbXbXnXnXmXkX#XpXbXnXnXnXnXnXnXnXnXnXnXnXnXnXnXnXnXnXnXnX",
"nXnXnXnXnXnXnXnXnXnXnXnXnXnXnXnXnXnXnXnXuXyXlXbXbXcXkXpXsXsXsXsXsXsXsXsXsXdXcXbXnXpX7XaXbXnXnXnXnXnXnXnXnXnXnXnXnXnXnXnXnXnXnXnX",
"nXnXnXnXnXnXnXnXnXbXnXnXbXnXnXnXvXnXnXnXzX0XqXkXdXpX3X2X2X2X2X2X2X2X2X2X2X2XuXkXtX7XpXxXnXvXnXvXnXnXbXnXnXbXnXnXnXnXvXvXnXnXnXbX",
"zXzXzXzXzXzXzXzXzXzXzXzXzXzXzXzXzXzXlXdXdX@X{.OXOX1XZ p p a p y p p p p p M 1X2X{.oXpXzXzXzXzXzXzXxXzXzXxXzXzXzXzXzXxXzXxXzXzXzX",
"lXlXlXlXlXlXlXlXlXlXlXlXlXlXkXlXkXaXtX2XOX'.9.b n p < @ @ # * . . @ @ . @ $ p a b C oXOXOXtXaXaXlXlXlXlXlXlXzXlXlXlXlXlXlXlXlXaX",
"lXlXlXlXlXlXlXlXlXlXlXlXzXlXdXsXtX@X].S B M o . @ O & @ @ ; ; . . # % @ # @ # - @ X m M N d.@X3XpXaXjXlXlXlXlXlXlXlXlXlXlXkXpX7X",
"pXlXlXzXlXlXlXlXlXlXlXlXlXsXeX6Xd.Z m 1 > @ @ - - - - - - 4 5 @ - - - - - - : 6 - @ - # $ p Z w.OX4XpXlXlXlXlXlXlXlXlXlXkXpX#X X",
";XuXkXlXlXlXzXlXlXlXlXlXsX2Xe.Z p & - > 5 - # > > > > ; > 6 9 # - > > > > ; > u 4 # ; - & - - p Z e.].pXlXlXlXlXlXlXlXkXuX@X X@X",
"9X5XtXkXlXlXlXlXlXlXkXsX1Xq.t # - - > > u ; # > ; > > > > 4 6 - - ; ; > ; > ; u > # ; > > > > - = w C L.yXkXlXzXlXlXkXyX@X X5XjX",
"lX0X6XyXkXlXlXlXlXkXuX].A 1 - ; > > > > 0 ; # > > > ; > > 6 9 - - ; ; > > > > u 4 # > - > ; > > 4 5 $ b L.0XkXlXlXkXyX@X X9XjXzX",
"lXlXtX5X0XkXlXlXkXtX1XS X - > > > ; ; > 8 8 6 u u F G H H L P F H H H H H H H P K 6 > > > > ; - 5 9 @ . m s.9XdXaXtX@X X9XzXlXlX",
"lXzXzXtX#XqXiXdXyXL.N w # - > > > > - 4 0 K Y T W ~ ~ [ [ ] [ ] ] ] [ ~ [ [ [ ~ ] W F u > > > > 6 9 # - & n y.@X5X X X0XlXlXlXlX",
"lXlXlXzXpX6XqXqXd.M 6 6 # - > > - > 6 H L T W W W W ~ ~ ~ E W ~ ~ ~ W ~ ~ ~ W ~ ~ ~ ~ ~ G 6 ; ; 6 u - - ; # y y.U.C.9XlXzXlXlXzX",
"lXlXlXlXzXaX@Xa.a : 6 6 # - > ; > 6 H T T ~ W W T Y Y P Y Y Y Y P R Y Y Y Y Y T E W ~ ~ ~ L 6 ; 4 9 - # ; * * t 7.C.#XkXlXjXlXlX",
"zXlXlXlXxXjXL.n : > 6 6 # > - > u K T W W E T I d f f f f s u 9 F s f g f f f I Y E E W Q ~ P 2 6 u # - > ; - # t 8.XXtXlXlXlXzX",
"lXlXlXlXzXrXs.i ; > 6 6 # - ; 9 P E W ~ E U f B 7.6.7.6.:.x   . : c :.6.6.6.7.N d / R E W Q ~ Y u 9 # - > > > - < -.{.7XaXlXlXlX",
"lXlXlXxXdXd.a > > > 6 9 # - 9 P E E ~ R / A 6.h.I.T.Y.C.j.&.  . , *.j.M.N.V.Y.k.7.>.U Y W W W ] W F # - ; ; ; - $ o 5.XX0XkXlXlX",
"lXlXlXbXdXs.1 > > > 9 8 # - u T ~ E P d >.h.N.U.[.[.C.B.j.%.  . , *.c.V.I.T.{.[.T.A.>.d R W W ~ ~ G - - 4 > 4 2 ; $ 2..X9XkXlXlX",
"lXlXlXzXpXd.w 6 8 9 J F - u P E W Y / =.j.V.Y.[.[.V.V.j.g.&.. # w *.j.Y. X{.{.[.T.B.j.>./ Y E ~ ~ W 5 2 9 9 8 9 5 - =.[.7XdXzXlX",
"lXlXcXpXd.g 6 u 0 0 H J ; F T W W Y g 6.N.T.{.[.V.B.j.h.H.e.X + w *.N.[.{.{.[.[.I.V.c.:.g P W W ~ ~ 8 5 0 0 0 0 8 2 p 2. XqXkXlX",
"lXlXcXyXe.e 9 q 0 0 G G ; F T W ~ ' >.l.[.{.[.V.l.l.R.2XjX>X< + e >.Y.oX X{.U.V.V.B.N.h.*.d Y W ] ~ 6 8 0 0 0 0 9 4 & C [.6XdXzX",
"lXlXcXyXe.e 0 q 0 0 G G ; F T W [ } 6.H.{.H.N.l.Z.].hXvXvX>X< # w q.H.oXL.H.I.l.I.l.h.h.:.g P W ] ~ 8 8 0 0 0 9 0 4 - C |.8XdXlX",
"lXlXcXyXe.e r q 0 q G G ; F T E ] ^ M B V B N N M | @. .@.( $ + : g B V V B B N N N M b n e P W ] ~ 8 8 0 0 q 0 9 4 - C |.6XaXlX",
"pXpXkXeXe.e q q 0 q H G ; F T ~ ] T - = ; ; ; ; 2 ; ; ; ; * O O @ - ; ; 2 2 ; = = - * O + 5 P W ] Q 8 8 0 0 q 0 9 4 & c C.;XtXaX",
"#X;X7X+Xq.e 8 0 q q K G ; F T W ] P # O # # # @ # + % # + + + + # # # + # # # # @ @ . . . 5 P W ~ Q 8 3 0 0 q 0 8 4 & c c.[.#X6X",
"yXyX0X#Xe.r 9 D q q H G ; F E W ] ^ h z z z z z z z c c z y O + - y z z z z z c c c c z h i P W ] Q 9 5 0 0 q 0 8 4 & C H.@X0XyX",
"lXzXxXuXr.r 0 0 0 0 H G ; F T W ] } <.1.x.x.x.x.x.c.v.c.,.%.X + e &.1.x.x.x.c.c.N.M.x.1.;.g P W ] Q 9 8 0 0 q 0 u 4 : S 4XdXzXcX",
"pXaXzXpXr.e 0 9 0 q G G ; F T W ] } <.c.v.v.v.v.B.I.V.x.1.%.. + w -.x.v.v.N.I.U.I.V.c.1.;.a P W ~ ~ 8 8 0 q 0 q 9 > ; A +XuXlXzX",
"pXaXzXpXr.e q 9 0 0 G G ; u E W ] } 1.v.N.v.B.V.U.I.R.R.P.>.. + w -.x.B.N.I.T.I.N.v.v.1.<.V P W ] Q 9 8 0 0 0 9 u > : A +XyXkXlX",
"pXpXzXpXr.e q 0 0 0 G G 2 F R W { @.R.v.v.B.V.C.U.OXjXnXnX,Xa % e *.x.V.Y.I.I.N.v.x.P.P.1X} P W Q Q 8 8 0 0 0 0 9 4 : A }.yXkXlX",
"pXpXzXuX>Xr 8 0 0 0 H G > F R E @.hXjXR.R.OXOXOX2XzXmXmXmXcX,X1 w -.v.U.U.U.N.v.B.P.R.jXhX} L W ] ~ 8 5 0 0 0 0 q 4 & A }.yXkXlX",
"pXaXzXpXe.r q D q q K G ; F T Y @.gXnXxXlXzXzXxXxXmXmXmXcXiX>Xi e >.Z.y.y.Z.y.7.H.uXbXvXfX) P W Q ~ q 5 0 0 q 0 8 4 % A +XyXkXlX",
"pXaXzXpXr.e 9 0 q 9 H G ; F T R R @.fXgXgXgXgXgXgXgXgXgXgX>X` G D U ( ( ( / ( / +.1XgX<X .I R W ~ ~ 8 3 u F H ! J 4 & A =XyXkXlX",
"pXpXzXpXr.e 0 0 0 q H F > F T E T Y _ ` ` ) ` ` ` _ ` ` ` ^ E E Q W T T E T T T ^ ) ` _ R R W W ] ~ 8 3 P { o.o.o.! , A +XyXkXlX",
"pXaXzXpXr.r 0 0 0 0 F G ; D Y W E E R T T T T T T T T T Y T E W E W W W E E W E T T T T W E E E Q W 2 K ..X.#.$.$.O.! A }.yXlXlX",
"pXaXzXuXr.r 0 9 0 0 G G = 2 F K L K K L K K K K K K K L L L L K K K K L L L L L K K L L L L L K P H 2 Y ..X.#.$.$.#.! A +XyXkXlX",
"pXpXzXuXr.i 0 0 0 q H H 2 = 5 8 6 8 6 0 G 8 2 8 9 5 9 8 9 D F 2 3 9 8 8 8 8 8 D 9 2 6 8 5 9 9 8 D D 2 Y ..X.X.#.#.o.u A +XyXkXlX",
"9X9XpX9Xe.r 9 0 9 q K J 2 3 3 3 2 5 2 6 F 4 * 2 3 3 2 3 3 0 0 * = 3 3 3 3 3 8 D 5 * 2 5 2 3 2 2 0 D 2 L { ..X.X.o...u v [.;XyXsX",
";X5X0X;Xw.r 9 q q 0 K H 3 8 9 8 8 9 8 0 H 8 ; 5 9 5 9 8 8 D G 2 2 8 8 6 8 8 8 H q = 5 9 5 9 8 8 D H ; 5 P ] { ....u > v ~.=XqXuX",
"#X5X0X#Xe.e q q 0 q G G 4 8 0 0 0 0 0 0 L q 3 q q q 0 9 0 F L 3 8 0 0 q q 8 D L D 3 q 9 0 0 q 0 F L 2 ; 9 G K J u 6 - v W.=XqXyX",
"#X5XyX#Xw.e 0 q 0 q G H 5 9 9 0 0 0 0 0 L 9 5 0 q q 9 0 0 F H 5 9 0 0 0 q D q K D 3 0 0 0 q 0 q F K 5 5 6 5 8 5 u > & v !.+XqXyX",
"+X+X5X@Xq.e 0 9 q q G H 5 9 9 0 0 9 0 0 K 0 5 0 q D 0 0 0 G H 3 9 9 q 0 q q q L D 3 9 q 0 q 0 q D K 5 9 q q 0 9 u > & v W.XX;X8X",
"C.!. XY.-.e 8 8 9 9 D G 2 8 9 9 8 8 8 9 G 9 2 8 9 9 9 9 0 D G 2 5 9 9 9 9 8 q K 0 2 8 8 9 8 q 8 D G 2 5 8 8 8 9 8 ; - c j.W..X.X",
" X X@X X>.e 3 5 3 5 D D = 2 3 5 3 8 3 9 G 5 = 3 5 5 3 3 3 D D ; 2 5 5 3 8 3 8 G 8 = 5 5 5 5 5 5 0 F ; 2 5 8 5 5 2 = @ c N.|.XXXX",
"7X9XaXtXr.w 3 5 5 5 D D = 2 8 3 3 8 3 9 G 5 = 2 5 3 8 3 3 D D ; ; 8 3 5 3 3 8 G 5 = 2 8 3 5 5 3 D F ; = 5 5 5 5 2 = + C .X6XuXuX",
"5X5X0X+X0.w 5 5 5 5 D 0 = 2 5 5 5 3 3 8 F 5 = 5 8 3 5 5 5 0 D = 2 3 3 5 5 5 5 G 8 = 3 5 5 5 5 3 9 F ; 2 5 5 5 7 5 = + v W.*XqXyX",
"5X5X9X+X0.1 5 5 5 3 0 D ; 5 5 5 5 3 5 5 D 8 = 5 5 5 5 7 8 9 D = 3 3 5 5 5 5 8 D 8 = 5 3 5 5 5 5 9 D 2 3 5 5 5 5 5 * O v Q.*X9X0X",
"#X6X9X+X9.1 5 3 8 5 0 0 = 3 3 5 8 3 8 5 G 3 ; 5 5 5 5 5 5 9 D 2 3 3 5 8 3 8 5 G 8 ; 5 5 5 2 5 5 q D 2 2 5 5 5 5 5 * + v W.&X9XyX",
"#X6X9X+X9., 5 5 3 5 0 D = 2 5 5 5 5 5 2 D 5 ; 3 3 8 5 5 5 q D = 3 3 5 5 5 8 5 D 8 = 5 3 8 5 5 5 9 F ; 2 5 3 5 3 5 * O v W.&X0XqX",
"5X6X9X=X0., 2 5 3 5 D D : 2 5 3 3 5 5 8 G 3 = 3 3 3 7 3 5 q D = 2 5 3 3 3 3 8 D 5 = 2 5 3 5 5 5 0 D = ; 5 5 3 3 3 * O v W.&X9XyX",
"#X#X9X+X5.1 = 4 = 2 0 9 * = 2 = 2 2 = 5 D 2 O ; 3 2 2 ; ; 8 8 * * 2 2 = 3 = 2 D 2 + = 2 ; ; 2 ; 8 0 * * 2 2 ; 2 ; # . v W.%X7XqX",
"|..X+X|.-.$ - - = = 3 5 + * = = = = = 2 8 = + = = * = = : 5 8 # + 2 = = = : 2 8 2 + = ; - - = = 3 8 + # = = = ; - @ . x b.~.&X*X",
"!.!.XX|.-.X @ % + % % & @ $ + % % % % % * # $ @ + % % % + & & O $ $ % % $ % % & $ O # % & & @ & * * O $ % % @ % @ @ X x m.W.~.$X",
"!.!.XX!.6.x j j j j j j j j k l l k b b b b k j l l b l l b b l k l l l k k k k k b b b b b b n b b l j b b k k k k j 3.m.Q.$X$X",
"!.!.XX|.l.9.5.9.9.5.9.4.9.=.9.5.9.0.0.0.=.-.-.4.3.4.9.2.3.9.5.3.4.3.3.5.5.5.5.5.0.0.w.0.w.0.0.0.0.2.5.2.0.0.5.5.5.5.=.7.b.W.~.~.",
"!.!.XX|.l.u.a.a.a.a.a.a.a.F.a.F.a.a.i.i.i.i.i.A.8.i.i.p.i.p.p.8.i.8.8.8.p.p.F.f.f.f.f.f.f.f.f.a.p.p.p.8.f.f.p.u.t.t.=.7.m.W.~.$X",
"m.Q.|.Q.j.8.S.^.J.J.J.J.J.L.J.J.F.F.S.A.D.D.D.A.A.A.A.J.p.A.^.k.D.A.A.^.^.^._._.`.`.`.`.`.`.K.^.D.^.^.S.`.`.^.S.u.t.2.7.m.m.W.W.",
"m.m.W.b.g.7.8.^.F.F.F.F.F.F.J.F.F.S.S.D.D.A.A.A.A.k.A.G.^.D.^.p.D.k.^.^.^._.`.`.`.`.`._._.^.F.S.^.^.^.^._.`.^.S.u.7.2.6.n.m.m.m.",
"m.m.Q.n.g.8.k.E././././././.}.).(.).(.(.).).).)./.(.(.(.).(.E./.(././.(.{.).'.'.).).).).(./.(.}./.(.(.(.)._.^.^.t.8.3.6.z.n.m.m.",
"n.n.m.c.6.8.^.}.=X-X*X-X=X*X-X-X-X-X-X=X:XeX8X-X&X-X-X-X-X&X.X-X&X&X&X&X$X$X=X-X}.&X&X&X%X%X%X&X%X%X%X%X&X}._.^.u.5.2.-.g.z.n.n.",
"g.g.g.6.3.8.S.;X:X:X;X:X:X:X;X:X:X:X:X;XwXwX-X&X-X-X-X-X-X-X%X*X&X%X&X%X$X.X&X.X&X-X&X%X%X%X%X%X&X&X%X%X%X}.`.K.a.u.0.v -.:.g.g.",
"-.-.=.3.5.8.A.}.;XeXeXeXeXeXeXeXeXeXeXeX8X-X%X-X-X-X-X-X-X-X-X$X%X&X&X%X%X~.$XW.&X-X-X-X&X%X%X&X&X%X%X%X%X(.D.^.f.s.u.2.=.-.=.=."
};
