/* XPM */
static char *_866a46ba2724cd4ca6e32a9df4d8cedqEGHHN6NXh84Dp9Q[] = {
/* columns rows colors chars-per-pixel */
"64 64 254 2 ",
"   c #381A17",
".  c #3C3525",
"X  c #342833",
"o  c #461E00",
"O  c #4B2505",
"+  c #522402",
"@  c #572A06",
"#  c #5C2A03",
"$  c #442B15",
"%  c #4C331A",
"&  c #573619",
"*  c #632D04",
"=  c #682F03",
"-  c #6B3205",
";  c #673308",
":  c #743604",
">  c #7A3B05",
",  c #763A08",
"<  c #6C3B17",
"1  c #511536",
"2  c #641C3C",
"3  c #473825",
"4  c #593824",
"5  c #4C3236",
"6  c #64392D",
"7  c #3C453B",
"8  c #7B4412",
"9  c #504631",
"0  c #584B39",
"q  c #654838",
"w  c #6A5539",
"e  c #725031",
"r  c #4A1B46",
"t  c #4D1C4B",
"y  c #541B45",
"u  c #591A46",
"i  c #531A4B",
"p  c #43224D",
"a  c #4B214D",
"s  c #572448",
"d  c #543C49",
"f  c #4A2854",
"g  c #532B56",
"h  c #4C365C",
"j  c #563959",
"k  c #652748",
"l  c #652D57",
"z  c #6F3451",
"x  c #4E3B66",
"c  c #553A63",
"v  c #2E4B50",
"b  c #346F79",
"n  c #367078",
"m  c #5B484D",
"M  c #5A4458",
"N  c #6F514B",
"B  c #674A59",
"V  c #754A59",
"C  c #78565B",
"Z  c #786458",
"A  c #5A4D69",
"S  c #684C66",
"D  c #734F6D",
"F  c #685365",
"G  c #6C526B",
"H  c #78576B",
"J  c #735673",
"K  c #745973",
"L  c #7C5B75",
"P  c #586A65",
"I  c #4C6C71",
"U  c #6E696F",
"Y  c #7B6778",
"T  c #813E05",
"R  c #884406",
"E  c #934C06",
"W  c #81563A",
"Q  c #873D5C",
"!  c #8A4C53",
"~  c #865959",
"^  c #8D6656",
"/  c #904F6A",
"(  c #845C6C",
")  c #8A5C6A",
"_  c #985669",
"`  c #845C73",
"'  c #895E75",
"]  c #A85971",
"[  c #986568",
"{  c #91716F",
"}  c #896275",
"|  c #986777",
" . c #AC6C6D",
".. c #A76C79",
"X. c #A9737B",
"o. c #B6757A",
"O. c #C47A7B",
"+. c #D47D7C",
"@. c #E57F7D",
"#. c #6A857F",
"$. c #A4817D",
"%. c #CF807E",
"&. c #EF837E",
"*. c #307C9D",
"=. c #537888",
"-. c #777788",
";. c #AB5984",
":. c #8D7389",
">. c #9A7786",
",. c #AA7684",
"<. c #B47583",
"1. c #B97984",
"2. c #BC7985",
"3. c #B57188",
"4. c #C37B84",
"5. c #C97C87",
"6. c #D17C89",
"7. c #3597AA",
"8. c #3493B5",
"9. c #38A9BE",
"0. c #598B91",
"q. c #6F8A94",
"w. c #75A09F",
"e. c #4A99A7",
"r. c #4D97AE",
"t. c #729BA9",
"y. c #52A6B6",
"u. c #69A7B4",
"i. c #1D8ACF",
"p. c #2499DD",
"a. c #39ACCC",
"s. c #1FA0E6",
"d. c #17A4F5",
"f. c #1AB3F9",
"g. c #1CB6F8",
"h. c #2EB5F0",
"j. c #25BDFA",
"k. c #47B6CA",
"l. c #5BB7C7",
"z. c #48B1D6",
"x. c #68BBCB",
"c. c #6CBAD4",
"v. c #4BBDEA",
"b. c #1CC5F8",
"n. c #31C9F9",
"m. c #34CCFD",
"M. c #3CD8FD",
"N. c #6EC5DA",
"B. c #4BC9E2",
"V. c #55CEE8",
"C. c #57CAFA",
"Z. c #42DAFC",
"A. c #57D6FE",
"S. c #65CEEA",
"D. c #7BCBE2",
"F. c #67D9FC",
"G. c #73DAFD",
"H. c #7DDDFE",
"J. c #42E0FD",
"K. c #5BE5F9",
"L. c #67E9FD",
"P. c #7AE2FE",
"I. c #75E9FD",
"U. c #968A94",
"Y. c #B78989",
"T. c #AE8B91",
"R. c #B89796",
"E. c #BFA49F",
"W. c #9492A5",
"Q. c #B196A5",
"!. c #92AAB2",
"~. c #B1A7B2",
"^. c #BBBBBD",
"/. c #C98586",
"(. c #CC828A",
"). c #D28385",
"_. c #D2848B",
"`. c #DA898A",
"'. c #D3908E",
"]. c #D78894",
"[. c #DC8B93",
"{. c #C99594",
"}. c #D99996",
"|. c #E38B8C",
" X c #E88A8A",
".X c #F78B87",
"XX c #E9928A",
"oX c #F8958C",
"OX c #E48B93",
"+X c #E78D96",
"@X c #F18D90",
"#X c #E89598",
"$X c #F69B95",
"%X c #D9A39C",
"&X c #E7A39C",
"*X c #F9A59A",
"=X c #F9A49B",
"-X c #D199AD",
";X c #EB9CA8",
":X c #D9A8A5",
">X c #C8B1B5",
",X c #D9B7B6",
"<X c #E6A9A6",
"1X c #FAABA2",
"2X c #F8ABA7",
"3X c #F9B2A4",
"4X c #F7B4AC",
"5X c #F9B5AC",
"6X c #E6B7B5",
"7X c #FBB6B4",
"8X c #F5B8B4",
"9X c #FBB9B5",
"0X c #FBBBB8",
"qX c #DCC2BC",
"wX c #F6C2BE",
"eX c #B4B5C5",
"rX c #CEB5C5",
"tX c #E2B5C4",
"yX c #88CAD7",
"uX c #93CBD9",
"iX c #B7C9D3",
"pX c #8BD3E5",
"aX c #91D2E4",
"sX c #84DCFC",
"dX c #92D8F2",
"fX c #85E4FD",
"gX c #8CE6F9",
"hX c #8BE3FE",
"jX c #93E3FA",
"kX c #9BE5FE",
"lX c #9EEAFE",
"zX c #A4E1EE",
"xX c #A3E5FC",
"cX c #A1E9FE",
"vX c #ACEBFD",
"bX c #B3EDFE",
"nX c #BBEFFE",
"mX c #B6F0FF",
"MX c #BDF0FE",
"NX c #C6C5C8",
"BX c #D5D2D7",
"VX c #ECC8C9",
"CX c #E2DAD9",
"ZX c #D1D7E7",
"AX c #E3DFE6",
"SX c #CBEBF7",
"DX c #C3F1FE",
"FX c #CDF3FE",
"GX c #D2F5FE",
"HX c #DAF6FE",
"JX c #DAF8FE",
"KX c #ECE9E8",
"LX c #E3F7FB",
"PX c #EAFAFD",
/* pixels */
"PXPXPXPXPXPXPXPXPXPXPXPXPXPXPXPXKX!.uXiXgXmXJXPXLXDXMXmXnXnXnXbXnXnXMXMXJXPXJXkXcXHXPXPXPXPXPXPXPXPXPXPXPXPXPXPXPXPXPXPXPXHXkXC.",
"PXPXPXPXPXPXPXPXPXPXPXPXPXPXPXPXLXiXW.{ W.aXMXFXDXzXgXgXjXjXdXgXgXjXgXlXDXFXlXlXDXLXPXPXPXPXPXPXPXPXPXPXPXPXPXPXPXPXPXPXLXvXF.v.",
"JXJXJXHXHXHXHXHXHXHXHXJXJXJXJXJXJXJXSX!.{ T.yXpXdXq.P P P P P P P P P I yXgXC.jXJXHXJXJXHXHXHXGXHXHXHXHXHXHXHXHXHXHXHXGXbXG.C.zX",
"DXFXFXFXFXFXFXGXFXFXFXFXFXFXFXFXSXDXbXgXu.Y U.q.q.m % % & % . & $ o o $ P #.I c.kXkXbXMXFXFXFXFXFXFXGXFXFXFXGXFXFXSXDXxXG.C.xXSX",
"kXDXFXFXFXFXFXFXFXFXFXFXFXFXFXDXmXjXpXw.0.P X.%X:X:X%X%X%X:X:X,XR. .{ q 4 O $ I 0.0.c.kXvXDXDXFXFXGXFXFXFXFXFXFXFXSXxXG.C.xXSXSX",
"H.kXMXFXFXGXFXFXFXFXFXFXFXFXbXlXpXu.0.& ; Z %X3XwX3X3XwXwXwX9XwXwXVXVX,XE.~ o o 9 w U y.c.jXvXSXGXFXFXFXSXFXFXFXFXxXG.C.dXHXGXGX",
"bXH.kXDXFXGXFXFXFXFXFXFXFXMXpXx.0.& $ 8  .%X3X3X3X3X3X3XwXwX5X9XwXwX9XwXwX,X{ w T.T.Q.$.P x.D.vXFXFXFXFXFXFXFXFXxXG.C.kXGXFXSXGX",
"GXbXH.xXDXGXFXFXFXFXFXFXMXaX0.3 % & w {.*X*X*X3X3X3X3XwX3X5X9X9X9X9XwX9X8X5XwX6X{.{ U.{.0 & Z N.vXFXFXFXFXGXDXvXG.C.dXGXGXFXFXFX",
"GXGXvXH.xXFXFXFXFXFXFXMXdX0.& O # ^ <X*X*X*X3X3X3X5X9X9X0X0X7X0X9X9X9X9X7X0X7X7X<XQ.,.{.w ; % n D.vXFXFXFXFXvXH.C.dXFXFXFXFXFXFX",
"FXGXFXvXP.xXFXFXFXFXMXjX0.9 @ # ^ XX*X*X*X*X*X3X3X5X9X9X7X7X0X9X9X9X9X9X0X0X7X7X7X8X;X}.^ @ # $ P D.vXFXFXvXsXC.sXFXGXFXFXFXFXFX",
"FXFXFXFXxXsXvXDXFXMXjXw.9 O @ e '.$XoX*X*X*X*X1X3X5X7X7X7X0X0X9X7X0X7X7X8X7X7X7X7X7X8X<X$.8 ; o % I D.xXvXsXC.sXSXGXFXFXGXFXFXFX",
"FXFXFXGXFXkXP.vXMXjXw.w @ O ;  .XXoX*X$X$X*X3X3X3X5X5X5X5X7X9X9X0X7X0X7X0X7X7X7X7X0X8X0X%X{ e O O 4 =.S.G.C.sXDXGXFXFXFXFXFXGXSX",
"FXFXFXGXFXGXjXgXgXu.0 : ; O ^ '.XXoXoX*X*X*X*X2X3X5X5X5X5X5X5X9X7X7X7X7X7X0X4X0X0X0X0X0XwX6X:XT.e + % 0.z.h.nXGXFXFXGXFXFXFXFXFX",
"FXFXFXFXFXGXGXgXy.9 @ 8 ; Z %.XXXXoXoX*X*X*X*X1X1X2X2X2X5X5X5X5X5X5X5X7X7X'.X./.8X0X0X0XwX9XwXVX>X~ O . 7.h.kXDXFXFXFXFXFXFXFXFX",
"FXFXFXFXFXGXGXpXP ^ ^ e W $.%.%.XXoX$X=X*X*X=X1X1X2X2X2X7X2X5X5X5X5X5X5X}.}.<X<X8X0X9X0X9X9X9X9XwX:X{ @ 9 a.I.mXFXFXGXFXFXFXFXFX",
"FXFXFXFXGXGXDXiX{.R.T.R.%.O.%.XXXXoX$X$X=X=X=X1X1X1X2X7X2X2X2X$X].o.] _ ! <.2X8X7X9X9X9X9X9X9X9XwXwXwXR.m 7.S.xXFXFXFXFXGXFXFXFX",
"FXFXFXFXGXGXuX-XY.:.:.X.o.O.%.`.XXoX$X$X2X2X1X1X1X1X1X2X2X].] _ ] ;.Q 1 1 _ $X;X1X2X2X5X3X1X3X3X*X3X3XwXT.7 y.I.mXFXFXSXFXFXFXFX",
"FXFXFXFXHXHXyXR.R.~.!.>.o.O.6.|.XXoX=X=X2X=X$X$X&X*X*X'.! 2 k ' / z k V  .].+X[.OX#X$X=X*X*X*X*X*X*X*X3X6Xm 9.A.bXFXFXFXFXFXFXFX",
"FXFXFXFXGXGXyXQ.6XKXAXT.X.O.`.+X$X$X2X*X*X`.o.`.XX*Xo.4     1 s z ' ..3.1.3.;.,.X.o.o.O.[.$XoXoX&.*XoX*X8XU.8.L.bXFXGXFXFXFXFXFX",
"FXFXGXFXGXzXq.~ ,XCXVXX. .O.`.@X$X$X1X1X&X .'.1X$X+.z 1 s V ( ;.,.,.>.>.>.W.~.:.z D ) ..1.). X@XoX&.oXoX$X,XI k.fXMXFXFXFXFXFXFX",
"FXFXFXGXGXD.w 8 [ :XY.[ o./.|.XX=X=X*X1X*X&X3X$X XO.[ | >.;.;.:.:.W.eXeXZXAXAX:.s s ~ 2.(./.6.|.oXoX.XoX@X:XZ 8.K.mXFXFXFXFXFXFX",
"FXFXFXGXGXD.w : , e { [ o./.XXoX=X*X3X5X8X3X$XXX6.5.1.,.:.:.W.eXZXZXZXZXeXeXW.J a s z 2.[.'.(.). XoX@XXX+X].$.r.F.vXFXFXFXFXFXFX",
"FXFXFXGXGXD.w : : 8 { | O.|.oX*X*X1X5X7X5X2X#X|.6.<.;.:.:.eXZXrXeX:.-.G M c g a s u s _ [.[._.).%.|.OXOX[.'.T.8.F.vXFXFXFXFXFXFX",
"DXMXMXFXFXN.w : : 8 ^  ./.XX$X*X1X5X5X7X2X$XXX6.3._ D l :.>.:.c f t t t t i s u u u u z 5.OX].).).).`.`.`.(.>.r.A.vXDXFXMXDXFXFX",
"lXkXkXlXxXS.w : > , ~ X.%.oX*X*X1X5X5X2X2X#X6...) V k i i i i i i i i i u u u u u i u s ] #X[.].(.(._.6.(.5.3.y.C.fXlXlXlXlXlXlX",
"I.I.P.P.H.z.w : > , ^ 2.XXoX*X*X*X3X1X=X$X).[ ( V k k u i i i i i i i i u i y y y i i u ! [.+X[._.(.5.6.5.3.3.*.h.A.H.H.H.P.G.P.",
"nXMXmXMXbXD.w : > , { 5.XXoX*X*X=X=X*X$X|.o./ ~ z 2 u u i i i i i i i i y r r y i t i y z 6.+X]._.5.4.4.2.2...t.dXvXDXDXDXDXDXMX",
"FXFXFXFXJXaXe > > > [ %.XX$X*X*X$XoXoXoX`.o.<.<.Q 2 2 u i i i i i i i i i y r i i t t i k 3.+XOX(.5.4.2.1.,...u.lXFXHXHXHXJXJXJX",
"bXbXbXMXGXaXw > > , [ +.|.oXoXoX.XoX.X XOX[.#X;X .2 2 u u i t i i i i i i r i i t t t i s ] +XOX].5.4.2.<...[ r.fXMXFXFXFXFXFXFX",
"bXbXbXDXGXuXw > , 8 ) 2.).XX.X&..X.X X|.+X+X#X=X6.2 1 u u i i t i r t t r r r r t t t a u _ +X[.(.5.5.3.,...' q.fXMXFXFXFXFXFXFX",
"bXbXbXMXGXaXw > , < | o./. X&.&.&..X X|.#X#X#X;X6.Q 1 u i i t i i i t t t t i r t t a i s / +X[.].5.2.3...} ) q.fXmXFXFXFXFXFXFX",
"bXbXbXMXGXaXw > > e ( ..2.6.@.@..X X X|.#X+X+X$X;XQ 1 1 i i t t t i t t t t t t a f i s k / +XOX6.5.2.,...} ) q.gXmXFXFXFXFXFXFX",
"bXbXbXMXHXaXw : T < B | o.4.+.@. X X`.[.+X#X+X@X#X] 1 y r r t t t i t t t t t t t t f l l / ;X6.6.6.3.3.| ' ) q.hXnXFXFXFXFXFXFX",
"bXbXbXMXJXaXe , > , q ' ..o.O.5.6.6.6.OXOX+X+X+X#X;.2 u r r t r t t i r t t p p f f g c l / 6.+X6.6.3.>.| ) ) t.hXnXFXFXFXFXFXFX",
"bXbXbXMXGXaXe , > > 6 G | ..o.4.O.6._._.[.+X+X|.+X6.k u r r r r t t t r t t p f g g g l l ;.6.6.5.<.,.' ) ) ) y.fXMXFXFXFXFXFXFX",
"bXbXmXMXGXaXw , > > < S L | X.X.<.O./.(.`.|.|.|.+X+XQ 1 r r r r t t t t t t f f g g c c / ;.6.6.4.<...' ) ) H y.fXnXFXFXFXFXDXFX",
"bXnXbXMXFXaXw > > > < B D ` | ..<.<.<.5._.[.|.`.OX+X] k y 1 r r p t t t t t f f g g c D ;.4.OX5.<...| } ) ' Z y.fXMXFXFXFXFXFXDX",
"bXbXbXMXFXaXe > > > : q S H ( | | ..<.2.(._.`.[.6.+X6.z y y p p p p p t t f f g c c c J 3.6.`.2.X.| } ' } ( 0 y.fXMXGXFXDXFXFXGX",
"cXcXcXvXMXpXw : > > : 8 B S H H ' | ..3.4.(._.OX6.+X+X/ u u t p p p p t i f g g x c x :.rX6.5.X.| | ' ' } ^ 9 y.I.vXDXMXMXMXMXMX",
"sXfXsXhXcXN.w , > > > R e S F D L ` } ,.3.2.6.6.OX@X6.3.z s s a p p f t t f f g x x D -X;X].<.| } ' ' ' } N & 7.K.gXcXcXcXcXcXcX",
"H.H.H.hXkXc.w - > > > E 8 M G G D H L } ..,.2.5.(.].].[._ l g a p p p p f p f h x h J rX<X(.>.| ` ` :.' ( q % 7.A.fXcXlXcXcXcXcX",
"H.H.H.hXlXS.w : > > > E > & B G G G J H } | ,.3.(.(._.[.5.Q s g p f f f f f f h h c 3.VX-X..' ) ` ` ` } N @ % 7.K.fXlXlXlXlXlXlX",
"H.H.H.hXkXS.0 > > > > R T ; m S G D J J H L } | ,.2.5.6.[.3.z l x f f x f h h h x -.rXtXX.) ( L ` ' } } e # % 7.A.fXlXkXkXlXlXlX",
"A.A.C.F.G.z.0 , > > > R > - < B G G J J K H H L } ,.3.4.6.].;.V x x x x x h x x -.rXtX3.( H ( ( ` ' } C , # $ 8.n.K.P.P.I.P.P.P.",
"Z.h.h.n.C.p.0 - : : : R > * : 4 S G J J K K G H D ` | ,.3.6.{.3.D g c x x x A :.-X-X,.H H H L ` L :.D < - # $ *.g.n.Z.Z.M.Z.Z.Z.",
"C.C.C.F.sXc.q * - - - R : + - ; 6 S G J K K K K L D J ` | >.3.(.3.;.D D D :.,.-X3.:.D L L ` ` L :.D 6 = * @ $ 7.B.F.F.L.F.I.G.F.",
"kXjXjXlXnXyXw * - - - R : + - - @ 6 G J K K K K D D D D K L } | ;.,.,.,.3.,.>.` J J L L L L L J K C < - ; + $ r.F.cXmXmXvXbXvXbX",
"sXsXsXsXjXB.0 * - - - T : # - - ; < q F G K K K -.J J -.J K K K L L ` L H D J J J J J D S B B S F ` N , * O $ 7.M.fXcXcXcXcXcXcX",
"H.H.sXsXhXv.9 - - - - T : # - - - - ; d G D J J K J J -.J J K K K K K J G F F A M M j M K { Y.Y.Y.Y.-XY.e & $ 7.M.I.cXcXcXcXlXlX",
"sXH.H.sXhXB.0 - - - - T : # - - - - - ; N K G G J J J D G A F A A B M M j d M m B ( ,.{.:X<X&X<X<X&X<X:X:XY.^ y.M.I.lXcXlXlXlXlX",
"H.H.H.hXgXv.0 ; - - - > - # - - - - - : 8 m N S J D M x M M m m m B H H } X.T.%.}.:X<X<X<X<X&X&X%X&X#X}.}.}.%X>Xc.I.cXcXcXcXcXlX",
"H.sXH.fXfXv.0 * - = - R : # - - - - - , R @ # < 4 m d B } X.,.Y./.{.}.}.%X%X&X&X:X<X6X,XVXVXqX,X:X}.).o.].:X}.}.Q.D.cXlXlXcXcXcX",
"H.sXsXfXhXv.9 + * * * > = + # * * * * - 8 @ @ # * 4 C o.'.}.&X}.%XXX}.}.XX%X%X,XqXVXCXCXCXCXCXCXVXT.z N }.%X}.`.T.D.lXlXcXcXcXlX",
"A.A.A.A.P.a.9 + # # # : * + # # + # # * : O O ; # 6 F  .5.'.'.XX}.}.XX}.}.%X6XqXCXCXCXCXCXKXZXCXBX} 5 N {.'./.O.{ c.I.I.I.I.I.I.",
"m.m.m.M.A.a.X O + + + # + o + + + + + + * o O O + 3 B !  .O.%.%.}.XX}.}.}.%X:X:X>XVXBXBXBXCXCXBXBX-.X 5 | o.X.[ Y n.J.J.J.J.J.J.",
"m.m.m.M.A.h.v . . . . . . . . . . 3 . 3 3 3 . . . 3 d d V [ o.%.%.%.'.'.'.'.}.}.{.{.{.:XNX{.W.>XiXq.X 1 V ( ( C -.B.J.J.J.J.J.J.",
"m.m.m.M.C.h.7.n b b b b b b b b n #.n I n n n n b I m m d B ~  .%.%.+./.%.).).'./.'.}.}.{.C P ^.iX-.v M S B S -.a.n.J.J.J.J.J.J.",
"m.m.m.m.A.h.e.e.e.e.e.e.e.e.e.e.e.e.e.e.7.7.7.7.7.0.B B 5 5 d B ~ [  .o.o.%.O././.{.{.{.Y.F U.NXrXW.=.A S G Y 8.b.M.J.Z.J.J.J.J.",
"n.n.m.M.A.h.9.y.l.l.l.u.x.l.l.l.l.l.9.9.y.y.k.k.9.0.N C B 5 5 d B B ~ ) [ ..o.o.2.%.Y.o.^ m W.NXZXeXW.W.Y G =.p.b.n.J.Z.Z.Z.M.M.",
"g.g.g.j.m.s.7.9.x.x.x.x.x.x.x.x.x.k.l.l.k.k.k.k.a.e.C ~ [ [ ~ B B F S B B V ~ ) ) [ [ B 5 A ^.NXiXrXNXiXQ.U I i.f.b.b.b.j.b.j.b.",
"f.f.f.g.b.s.8.9.k.k.k.k.k.k.l.l.k.l.k.k.k.k.k.k.a.e.C ~ ^  . .o.R.~.Q.U.:.Y F B M F m X X $.NXNXrXNXNXNXeXT.Y 8.d.f.f.f.f.f.f.f.",
"f.f.f.g.b.i.8.a.B.B.B.V.B.B.V.K.V.V.K.V.K.S.S.B.V.w.C ~ [  .o./.^.NX^.qXiX^.~.W.U.Y U P U ^.NXNXiX^.NX^.rXQ.>.q.s.f.f.f.f.f.f.f.",
"d.d.f.d.s.i.7.k.K.L.L.L.L.L.L.L.L.L.L.L.gXgXI.K.K.w.Z } { X. .R.~.^.^.^.^.^.NX^.^.^.^.^.^.^.^.^.^.>X^.^.rX~.,.>.8.d.d.d.d.d.d.d.",
"i.i.i.i.7.7.7.y.I.I.I.I.L.I.I.I.I.I.I.I.gXI.K.K.L.S.S.S.V.y.u.x.x.x.x.N.yXyXuXuXyXyXyXyXyXD.yXyXyXuXuX!.!.!.-.-.*.i.i.i.i.i.i.i."
};
