/* XPM */
static char *_a134b262c2e4e6df4a238e5803f3140lGZ57MKGsFdq0RbA[] = {
/* columns rows colors chars-per-pixel */
"64 64 256 2 ",
"   c #18133F",
".  c #1F1E4A",
"X  c #1C244E",
"o  c #1D2655",
"O  c #2D2D57",
"+  c #262858",
"@  c #242C5C",
"#  c #362B58",
"$  c #272C65",
"%  c #372D65",
"&  c #2B3566",
"*  c #2B336C",
"=  c #353768",
"-  c #2D3874",
";  c #333B74",
":  c #363B77",
">  c #42355D",
",  c #473A67",
"<  c #4D3B6F",
"1  c #37426C",
"2  c #3A4777",
"3  c #36427C",
"4  c #3B447D",
"5  c #454877",
"6  c #4B4A74",
"7  c #574979",
"8  c #66507B",
"9  c #353D86",
"0  c #363E90",
"q  c #3B4584",
"w  c #3D4A83",
"e  c #394789",
"r  c #3C5489",
"t  c #3B4294",
"y  c #3B5996",
"u  c #3E59A3",
"i  c #434C84",
"p  c #46458A",
"a  c #434B8C",
"s  c #564A87",
"d  c #5B4D84",
"f  c #495687",
"g  c #595789",
"h  c #454997",
"j  c #4B4C94",
"k  c #564B95",
"l  c #475894",
"z  c #4C549B",
"x  c #565798",
"c  c #6A4D8A",
"v  c #655688",
"b  c #685A97",
"n  c #745B98",
"m  c #44629E",
"M  c #4C6699",
"N  c #596890",
"B  c #596399",
"V  c #686798",
"C  c #726992",
"Z  c #75679A",
"A  c #68769B",
"S  c #494BA3",
"D  c #524EA8",
"F  c #4956A7",
"G  c #5859A7",
"H  c #4A58B7",
"J  c #585DB4",
"K  c #695DA4",
"L  c #6A5DA9",
"P  c #4868A5",
"I  c #5A66A7",
"U  c #4E71AA",
"Y  c #5776A8",
"T  c #5A68B7",
"R  c #4F71B1",
"E  c #5879B3",
"W  c #6866A7",
"Q  c #7669A6",
"!  c #6975A8",
"~  c #7A75A8",
"^  c #6767B5",
"/  c #756DB5",
"(  c #6A75B6",
")  c #7575B4",
"_  c #7475BB",
"`  c #7678B8",
"'  c #7B7DBD",
"]  c #5362C0",
"[  c #6B6AC4",
"{  c #7A7BC3",
"}  c #875297",
"|  c #88679A",
" . c #89729A",
".. c #AD7B96",
"X. c #905AA7",
"o. c #826BA5",
"O. c #936FAF",
"+. c #8577A9",
"@. c #9579A8",
"#. c #8678B5",
"$. c #A574AD",
"%. c #837AC1",
"&. c #5C82B6",
"*. c #7984A9",
"=. c #6F8CB4",
"-. c #6888B9",
";. c #7A87B9",
":. c #698CC1",
">. c #7C86C4",
",. c #6C91C6",
"<. c #7B99C7",
"1. c #95859E",
"2. c #B18996",
"3. c #8787AA",
"4. c #9787AA",
"5. c #8E93AA",
"6. c #8787B9",
"7. c #968ABB",
"8. c #8393BC",
"9. c #8894B8",
"0. c #9797BA",
"q. c #A98AAA",
"w. c #B08FAC",
"e. c #A899B9",
"r. c #BA9BB8",
"t. c #9AA5BD",
"y. c #A8A3BE",
"u. c #B9A6B9",
"i. c #CC94AC",
"p. c #C699A8",
"a. c #DBA2AE",
"s. c #C7A8B9",
"d. c #D7AAB9",
"f. c #CCB2BA",
"g. c #D5B3B7",
"h. c #DAC4B6",
"j. c #E8C1BF",
"k. c #8484C2",
"l. c #838BC4",
"z. c #8A89C7",
"x. c #958BC3",
"c. c #8C94C4",
"v. c #8C9BC4",
"b. c #8696C8",
"n. c #8B9CCC",
"m. c #929CC4",
"M. c #9998C6",
"N. c #929CCA",
"B. c #918CD0",
"V. c #8C9BD1",
"C. c #9697D3",
"Z. c #A794CA",
"A. c #A59AC8",
"S. c #B79BC6",
"D. c #8AA3CC",
"F. c #93A3CB",
"G. c #99A6C8",
"H. c #9BA4CA",
"J. c #9CB2CB",
"K. c #8BA5D1",
"L. c #97A7D6",
"P. c #94ABD4",
"I. c #9CABD4",
"U. c #9CB3D6",
"Y. c #9BB4D9",
"T. c #A7A8C9",
"R. c #B7A9C7",
"E. c #A8B3CC",
"W. c #B7B3CC",
"Q. c #A6ABD6",
"!. c #B9AAD4",
"~. c #A5B3D4",
"^. c #ABB4D4",
"/. c #A8B8D7",
"(. c #A4B4DB",
"). c #A5BBDB",
"_. c #ABBCDC",
"`. c #B8B8D6",
"'. c #B2BCDB",
"]. c #9CB8E1",
"[. c #B4ADE1",
"{. c #A6B9E3",
"}. c #ABBBE3",
"|. c #B3BEE2",
" X c #B6BAE5",
".X c #C999C6",
"XX c #C7ABC7",
"oX c #D3AAC7",
"OX c #C7B6C7",
"+X c #D8B7C8",
"@X c #C5ABD2",
"#X c #C7BAD7",
"$X c #D7BCD4",
"%X c #E2BACA",
"&X c #C5BDE1",
"*X c #BAC4CF",
"=X c #AAC1DC",
"-X c #B3C3DD",
";X c #BAC5DA",
":X c #ADC3E3",
">X c #AEC4E8",
",X c #B3C4E4",
"<X c #BAC6E4",
"1X c #B5C9E5",
"2X c #BCCBE5",
"3X c #B5C4E9",
"4X c #B9C7E9",
"5X c #B5CCEB",
"6X c #BCCCEA",
"7X c #BDD1EB",
"8X c #B9CDF1",
"9X c #BBD2F1",
"0X c #D9C4CA",
"qX c #C7C7DA",
"wX c #D9C5D7",
"eX c #D7D4D7",
"rX c #E3C7CA",
"tX c #ECD9CC",
"yX c #E5CAD7",
"uX c #E8D7D8",
"iX c #ECE2C7",
"pX c #EDE4DC",
"aX c #F1E9D9",
"sX c #C8C7E4",
"dX c #C2CDE5",
"fX c #C2CDEA",
"gX c #D9C9E4",
"hX c #C4D1E5",
"jX c #CAD5E5",
"kX c #CAD9E7",
"lX c #C3D2EC",
"zX c #CAD5EC",
"xX c #CDDAEC",
"cX c #D6D7E7",
"vX c #D3DCEB",
"bX c #C0CDF2",
"nX c #C4D3F1",
"mX c #C8D8F2",
"MX c #CDDAF1",
"NX c #D5DAF2",
"BX c #D2DCF1",
"VX c #E7D9E6",
"CX c #E7D8EE",
"ZX c #D5E1ED",
"AX c #DCE3ED",
"SX c #D5E2F1",
"DX c #DBE6F2",
"FX c #EBE5E5",
"GX c #F2E8E6",
"HX c #F3ECEB",
"JX c #F4F2E4",
"KX c #F4F3ED",
"LX c #E5E7F3",
"PX c #F4EEF3",
"IX c #EEF2F3",
"UX c #F3F3F2",
/* pixels */
"X + @ O o o o + O + . O . O . # + + + .   % Z T.3.v 7 7 7 7 8 8 < , > , C 8 8 8 v | $.$.$.$.} c X.$.X.X.k 5 : = = # # # > # > < ",
"O & & o o $ o & @ . + + > # # # = $ @ O + % b ~ C Z 8 8 8 C c 8 8 > > 6 8 8 8 8 |  .$...$.X.} } X.X.X.L s : = = 5 % # # > # < , ",
"& & @ o o @ $ o X o % % 6 % = ; 4 : - - % < b Q Z C C 8 8  . .n < > > < 7 7 N C C | O.| } } } X.X.X.L D : i ; = = % # O # # # % ",
"X o @ o o o $ @ @ & ; : < : ; 4 e t e 9 q k k Z  .N C 8 8 7 7 < , > , 8 7 6 6 7 8 } | } c c L X./ K D k j i : 2 5 : = # # % % > ",
"@ @ @ 1 & o @ $ * ; : p e p a t u u F S p p p c Z Z v v 8 < 7 7 < 5 6 7 8 7 6 7 d c | } s b G L W G j a w 4 - & : = $ $ % * - : ",
"@ o @ & - @ $ * 9 a q a F D S F ] H H S h 9 p b Z ~ Q V v s d v 7 s 7 d v v v v c c n n c G x W W z j z e 4 2 3 * - $ $ $ $ : * ",
"o & 1 3 - & - 3 : q a z J H ] ] H H H F D G Q V b n Q b b b d v d v d d d 7 7 b b n c c k k G K G j z I e q 3 - $ * * - * - - $ ",
"2 3 3 e e 3 3 - : q F h S S S H H ] [ J F W W n b n b s g d b o.b c c d 7 7 v Q X.L K c k p k k a a z z l e q 9 q q : 9 : 9 $ * ",
"w q r z x a q 4 : 9 z h t t S H F T T J j x W V V K k s c d Q O.o.o.Z c d Z o.#.#.#.#.L b p k q j l f l z G F y z r q : : % * * ",
"- q q a z q : : i a e h h S S ] J T T S p x V Q W W b b d 7 Z 7.#.o.o.V Z +.Q +.#.Q L #./ W G p l l l l Y E T U z e q - $ $ * - ",
"- 4 q q a e 9 p G x p p j h S J I T ( G x V Q V Z Q V g d v n 7.Z.3.+.+.Q n Q z.B.#./ / %.%.W G G I G l I I P G l e i ; * * % $ ",
"4 w w q a a 0 p j j z j a F W G ^ _ { W W W Q V V b d s s d n !.A.6.7.6.#.Q 6.N.A.x.7.7.#.#.! I G S l l l l r l l q : - * $ o $ ",
": : q q h 9 p j x p I G G W ( _ ' l.>./ _ ~ ~ Z v g d s s b Q Z.Z.7.+.! ) #.7.T.`.W.qXqXW.6.Z x j z I x M I l a w q 3 4 q $ $ $ ",
"4 i 9 9 h h h p p h G G G ~ 6.c.M.N.N.k.z.7.6.~ V v Q x b o.#.&X[.x.~ ) >.c.^.dXcXqXu.W.gX`.~ g x l I B B l f e i q i a : : $ $ ",
"- - 9 9 0 0 h h p D x I V 3.M.`.qXdX;XE.0.0.3.Q b K W K Q #.#.Q.Z.z.6.B.L.(.fXqXW.y.0.0.T.wX3.g V x W B x g l w 3 w i i q ; ; ; ",
"y 9 9 9 9 h z k j x x B ~ 9.`.AXLXvXcXcX`.T.0.Q b L W Q Q #.x.Z.A.Z.A.N.Q.<X^.0.3.~ +.#.0.qX3.V b B B B i 2 i i f f i i q ; ; : ",
"F 9 - 0 0 S D D p k G W ~ 0.dXNXqX`.E.E.`.`.&XA.~ Q ) #.4.A.!.!.R.7.M.T.-X^.0.+.Q n Q @.y.#X3.C g B f f 1 2 ; 2 5 i i f w : 3 - ",
"t t 0 S t t S h h k G ^ ` 0.&XsXT.T.c.M.M.A.^.#X#XM.0.7.A.!.CXcXR.e.T.sX`.7.Z n n o.+.7.W.`.5.C g g N g f f 5 ; 2 i 4 w : - - 3 ",
"0 0 h D J J D z k D J ^ ` x.!.`.9.z.6.6.k.7.7.R.&X#XW.T.e.#XLXCXR.T.sXsXR.o.n n n o.4.e.#XOX0.C g V V B B g g l i 4 4 4 3 & 1 * ",
"t h S D J J J G D G L ^ [ %.A.^.+.#.) 6.6.7.7.!.#X#X#XgXW.#XVXwXR.#XgX#Xe.o.| O.n @.S.R.#XOX4.C C C N V l x ( ! l i i 5 1 1 1 o ",
"h h D [ [ [ L J { { { ^ ^ W ~ R.#./ O.%.#.#.@.7.Z.!.qX#XgXgXwX#XwX0XR.e.4.@.4.@.| $.oXoXrXu.q. .Z +.C V I I ! ( B f f 6 1 & 1 & ",
"S S S D [ L ^ / z.z.%.{ / ^ Q 6.x.Q #.%.O.#.7.@.7.!.&X#X#XwXVXVXwXOXW.q.4.4.R.S.2.i.d.+X0Xr.q.4.4.e.~ ! ( ! B ! B f r 2 1 1 & @ ",
"D ^ J G ^ ^ ^ %.z.k.' ` _ _ / Q Z.x.x.$.$.Z.Z.q.S.!.&X#X@X#XVXFXeX0X0Xu.r.u.gXwXi.a.%XrXrXf.r.w.e.T.7.6.;.~ B f i 4 1 1 1 1 & O ",
"^ L ^ ^ ^ ^ J / { 6.) ' z.k.#.#.Z.@X.X$.S..X.XS.S.@X#X@XOXwXyXVXuXFXuX0Xs.OX0XoXi.d.tXaXuX%X$X$XwXqXW.E.l.! N f f f 6 6 1 1 1 & ",
"D G / ( [ _ ( ( ) k.;.6.N.B.z.x.x.oXoX.XoXoXoX.X.XS.XXXX$XwXwXeXuXHXGXFXyX+Xf.f.d.%XGXKXpXyXyXgXFXAXZX*X5.*.8 &.2 5 5 7 N 6 6 1 ",
"G B ! ` { [ { _ ` z.x.z.9.7.x.7.w..X%X%X%X%XoXoXs.oX$X$XuXVXuXpXFXHXUXUXVX+Xs.p.s.oXuXuXyX%X$X$XFXIXIXkXt.*.&.6 2 1 2 5 5 6 6 1 ",
"! ) ' k.z.>.{ { { z.C.M.M.M.x.Z.w.i.+XyXtXyXrXrXwXuXgXGXGXGXGXJXFXFXLXHXuXs.p.p.i.oXyXyXg.a.XX@XqXAXDXZXkXJ.*.6 5 1 5 1 1 6 5 O ",
"/ ) 6.C.B.z.{ >.B.C.C.M.E.R.A.S.@Xd.rXpXGXtXrXj.%XrXyXFXGXJXKXJXHXIXIXFXeXf.p.2.i.%X%XoXw.w.w.e.T.*X*X*X*XAXE.6 f 2 2 5 6 6 6 = ",
"L ^ %.x.l.k.{ { l.C.Q.`.qX`.W.W.@X%XuXuXtX%Xa.a.d.g.iXaXJXKXUXUXUXPXPXFXuXyXd.r.XX$X@Xw.$...@.@.0.9.H.*.t.*XkX*.f r r r N f 6 2 ",
"W ~ 6.6.6._ / { B.c.H.qXLXLXCXgXgX$Xd.d.j.a.a.i.p.rXiXaXJXKXUXUXUXPXPXGXtX0X+Xs.gX$Xq. .|  . .~ 3.6.3.*.5.*X7X*.f 2 r r 2 1 f 6 ",
"~ #.z.7.z.#.{ k.;.9.y.qXIXUXCX#X@Xr.w.i.i.a.i.2.g.h.iXaXJXKXKXUXUXUXUXJXpXg.s.wXwXR.4. . .Z Z V *.*.*.5.t.jXJ.*.N r 2 2 2 2 N 2 ",
"M.A.A.M.z.' { k.6.T.qXAXLXvXqX`.r.4...$.....i.a.g.h.iXaXJXKXKXUXUXUXKXGXtXf.p.$XqX0.3.A Z V N A *.*.5.t.*XJ.*.r 2 r r 2 r N f r ",
"&X&X!.!.C.z.{ 6.t.qXcXjX;X*XT.y.4.4.4.0.1.2.w.0Xg.g.iXaXJXJXKXKXUXKXKXGXtXf.s.OXW.t.~ C A A ! *.*.*.G.-XG.! N 2 r y y r r r 2 2 ",
"LXLXcX[.Z.B.%.M.W.AXqXT.m.H.J.t.3.7.6.+.1.5.f.f.g.h.tXaXJXJXKXKXUXUXHXGXyX+X$Xr.4.0.5.~ A V *.3.;.E.,X9.B M f w y m r r r r 2 2 ",
"UXPXCX&XQ.C.B.N.jXAX`.m.8.V.F.5.6.*.*.3.5.5.OXw.u.j.tXiXaXaXKXKXKXKXGXuXwX$XOXe.3.3.0.0.3.3.J.G.t.D.8.! M l y e r y y r y y r r ",
"CXCX&XQ.%.z.C.T.qXAXqXF.l.b.b.9.8.B.9.*.1.e.y.4.2.u.rXtXpXaXJXGXHXGXpXyXwX$Xr.q.4.3.0.W.T.W.E.0.*.A N M l y y y r e y y M M m m ",
"[.^.Q.k._ ` ;.c.E.vXZXqXt.H.m.8.b.c.6.*.3.E.0.1.1.w.h.eXuXtXuXGXpXuXuXyXwXOXu.e.e.T.^.;X*X5.*.A M y y y m l y y y y r M M &.&.&.",
"B.z.%._ ( ` ;.v.E.qXkXZXhX-XE.~.I.m.9.0.Q.^.4.3.5.e.f.eXVXGXuXuXuXuXyXyXyX$X#X&X`.M.9.9.t.=.M r m P m m M P y y y y m &.&.=.=.*.",
"` ) ) _ ( >.6.c.G.E.qXkXZXkXzXlX2X-X/.Q.2X`.t.0.y.R.qXeXVXGXVXGXuXuXuXyX+XXXW.T.T.b.;.*.=.J.=.M m m m l m m y u m m y U &.=.&.N ",
") ) ) ) _ ' c.c.G.E.-X;XdX2X2X2X2X-X^.<X6XT.T.T.T.R.#XeXVXyXGXuXuXuXuX+XoXr.e.A.m.;.=.&.=.D.;.Y M m P P m P y y m m m M &.&.&.M ",
"/ ` ' { ' ;.l.c.n.H.(.(.Q.I.Q.^.(.G.H.fX~.9.9.0.M.T.e.R.XXwXVXGXFXGXVX0XoXs.e.x.x.k.( ( ( =.P.=.&.U U U U U m m P m R R &.&.&.R ",
"( ( ' k.k.>.l.;.;.l.V.V.V.K.K.n.F.D./.-XH.m.8.N.&X^.A.R.R.oX%XVXUXIXFXyXoXr.w.x.z.l.{ E Y Y ;.K.&.&.U U m m P m u P R &.&.R &.R ",
"{ >.>.l.>.;.;.;.>.>.>.b.V.V.n.<.b.K.3X~.G.F.c.n. XQ.M.Z.S.XX$XCXGXPXHXwXXXr.e.7.;._ ( R Y Y =.P.=.&.U U U P U P P U R U U R &.R ",
":.>.>.<.>.>.>.>.<.<.V.n.n.n.b.b.b.U.5XE.G.I.v.n.C.N.H.T.!.@XgXCXVXuXuXuX$XS.A.9.;.-.( E Y &.-.Y.t.=.&.U &.U &.U U R R &.&.&.:.&.",
"<.b.V.n.b.b.b.n.n.V.K.P.L.L.K.K.F.).fX/.~.(.F.V.F.N.I.H.Q.#XsX$X$X$XyX$XgXwXR.G.b.;.-.-.-.-.=.).J.D.=.&.&.&.&.&.&.&.,.,.,.,.,.,.",
"V.V.n.V.n.n.K.K.L.V.P.I.P.L.L.L.~.*XlX:X(.Y.P.F.F.G.~.^.`. X#X@X@X@X@X$XOXcXcXsX-X~.P.D.<.<.<.J.=X<.=.,.,.,.&.:.,.,.,.,.,.,.,.,.",
"L.L.L.C.V.L.P.].].Y.I.I.Y.L.L.L./.hXkX3X}.^.Q.J.H.J.'.4X3X^.Q.T.T.R.S.!.W.;XsXzXMXzX7XJ.J.U.J.*X1Xt.<.<.<.<.<.<.<.<.<.<.<.<.<.<.",
"{.{.(.(.(.I.{.}.}.{.{.(.].].].).*XZXjX-X'._.)./.E._.fX<X^.Q.Q.Q.Q.Q.Q.Q. X[.4X^.-XxXDXkX;X;X*XZXkXJ.<.D.K.<.K.K.<.K.<.K.Y.<.K.].",
" X}. X/.).Q.(.3X3X3X'._._.}.3X3X-XZXZX2X;X;X2X<X1XhX-X_.{.Q.Q.Q.(.(.(.Q.(. X(._.^.^.;XxXSXDXLXAX*XJ.J.J.K.K.P.K.P.P.P.P.Y.Y.Y.P.",
"|.|.|.|.'._._.<X4X4X3X-X-X3X3X3X;XAXDXkX;XhXmXMXlX;X'.|.}.{.{.(.(.Y.U.U.(.(._.}.).).~.=X2XkXvXjX1X=X].].P.U.Y.U.Y.Y.U.U.Y.Y.Y.Y.",
"<X<X<X<X<X<X<X2X6X2X<X2X;X<X6X4XdXAXIXDXSXSXMXhX<X-X-X3X3X3X:X}.{.{.{.).^._.'.<X_._.(.{.}._.=X-X>X>X].>X].).).).=X=X).).).=X=X=X",
"2XsXdXsXdXfXdXdXdXfXdXdX;XdXfXfXhXvXSXAXZXlX7X2XdX2XfX6X6X4X4X4X4X3X<X,X-X-X3X4X1X3X1X>X3X<X-X;X8X5X>X>X,X3X<X<X1X:X,X,X,X:X:X1X",
"dXzXzXzXzXzXxXkXzXMXBXxXvXxXvXMXNXAXcXkXxXsXfXfXzXbXbXdXfXfX<X2X4X2X5X2X6X6X6X4X7X2X1X7X6X6X6X7X9X9X8XbXdXlXnXnXnXlX7X7X7X7X7X7X",
"NXvXZXZXAXvXvXZXSXSXxXvXZXxXMXMXNXzXvXzXlXfXfXfXbXzXfXfX6X6X6X4X4X4X2X6X6X9X6X6X5X2X1X-X2X5X1X1X>X5X5X4X4XfX6X6X7X7XlX7XmXlXmXkX",
"SXkXjXjXjXjXjXdXdXhXdX2XlXhXhXhXfXdXfXsXfXfXfX4X6X6X4X4X4X4X4X4X3X4X<X3X3X4X4X4X6X7X2X-X<X<X<X<X5X3X3X>X3X3X|.}.:X:X1X5X1X1X1X7X",
"zXkXjXjXhXzXzXfXlXzXMXMXMXMXMXMXzXzXzXzXzXzXmXmXbXzXbXbXbXlXbXlXfXfX9XfXlX7XnXlXlX7XlXlXlX6X6X2X5X8X6X6X6X9X8X3X5X3X:X:X5X1X9X9X",
"xXMXMXmXzXNXMXMXMXMXNXNXNXNXBXBXvXxXMXMXxXzXlXhXlXlXlXmXlXmXlX7X6X6X7X7XdXlXhXlXlXlXlXzXmX7X7X2X1X1X1X1X>X=XY.U.U.).).=X=X:X5X5X",
"ZXSXSXMXzXMXNXxXxXxXzXzXjXcXNXvXvXkXzXjXjXlXkXlXhX7X7X7X7XlXlX7XlX7X2X2X2X7X2XlXdXhXlXlXlX7X5X1X=X).).).Y.=XU.U.J.).=X=X:X:X5X5X",
"DXDXSXSXSXSXSXvXvXvXAXcXZXZXvXZXkXvXxXhXdX;X2X2X2X;X-X;X-X-X-X=X=X).=X-X5X;X2XhXdX1X-X-X-X1X1X;X=XU.).).=X>X=XY.Y.=X=X:X5X9X5X9X",
"mXMXSXSXDXSXSXSXSXDXLXLXLXLXDXAXSXZXSXMXzXlXhX2X5X7X5X1X:X-X=X=X_.=X-X-X2XlXlX6XlX2X1X4X6X7X6X5X1X9X5X9X5X5X9X6X9X9X5X9X7X9XkX7X",
">X'.,X<X2XdXfXdXlXfXNXNXvXNXmXzXzXlXmXlXmXmXMXmXmXnXmXmXmXmXmX9XnX7XlXlXlXmXMXmXzXmXnXmXmX9X9X9X9X7X7X9X9X9X9X9X9X6XlXlXkX7X7X7X",
"D.N.H.H.I.I.~.~.^. X X X,X}.}.{.(.{.~.E.E.~.^.)._.=X:X:X1X=X=X:X=X>X=X=X'._.'.3X=X-X'.~.J.J.F.F.P.K.K.P.U.P.U.Y.(.)._.).=X).).=X",
"*.9.9.m.0.0.H.H.T.Q.(.Q.L.Y.(.(.I.I.H.c.9.m.m.F.F.I.P.I.P.D.D.P.D.v.v.b.v.v.v.F.9.D.F.v.8.;.8.8.9.;.8.v.c.8.F.H.I.~.~.^./.^.E.=X",
";.9.9.m.m.9.9.m.M.N.N.z.V.C.C.V.c.l.6.*.*.8.c.N.F.n.v.b.v.;.;.;.;.c.c.b.c.8.c.8.9.;.;.8.8.8.I.:X=XF.8.8.9.c.m.N.G.H.~.'.<XhXkXAX"
};
