/* XPM */
static char *_a1e733a045d4061a91617a449430184BfL2aII7trcmmBpA[] = {
/* columns rows colors chars-per-pixel */
"64 64 255 2 ",
"   c #040506",
".  c #090707",
"X  c #06060A",
"o  c #06090B",
"O  c #0A0B0C",
"+  c #120D0B",
"@  c #1A0E0B",
"#  c #13110D",
"$  c #1A130D",
"%  c #060A11",
"&  c #0C0D12",
"*  c #140D15",
"=  c #0E1213",
"-  c #0E131A",
";  c #131314",
":  c #1A1413",
">  c #1B1914",
",  c #14151A",
"<  c #1B161A",
"1  c #151A1C",
"2  c #1B1B1C",
"3  c #25160D",
"4  c #251915",
"5  c #241C1B",
"6  c #351B16",
"7  c #1C211C",
"8  c #292417",
"9  c #25221D",
"0  c #2B241C",
"q  c #37261B",
"w  c #0A1420",
"e  c #161C25",
"r  c #1C1D23",
"t  c #231E23",
"y  c #1C2124",
"u  c #1A222A",
"i  c #1C2A36",
"p  c #242423",
"a  c #2A2523",
"s  c #2C2A24",
"d  c #23252A",
"f  c #2A262A",
"g  c #262A2C",
"h  c #2C2C2C",
"j  c #332C24",
"k  c #392B26",
"l  c #332C2C",
"z  c #2D322D",
"x  c #393426",
"c  c #33322D",
"v  c #3B332C",
"b  c #262C35",
"n  c #2C2E32",
"m  c #362E33",
"M  c #2D3233",
"N  c #273339",
"B  c #2C323B",
"V  c #333333",
"C  c #3B3533",
"Z  c #3C3A34",
"A  c #35373A",
"S  c #3C3C3C",
"D  c #4A2F1C",
"F  c #472D27",
"G  c #502C21",
"H  c #43352B",
"J  c #443A2D",
"K  c #493829",
"L  c #563627",
"P  c #473937",
"I  c #433C34",
"U  c #4B3D33",
"Y  c #443D3C",
"T  c #563934",
"R  c #663D2F",
"E  c #3F403D",
"W  c #58432A",
"Q  c #464337",
"!  c #4D4235",
"~  c #44423B",
"^  c #4B433C",
"/  c #574536",
"(  c #53453B",
")  c #544A3C",
"_  c #5A4A3C",
"`  c #58513D",
"'  c #644838",
"]  c #734A31",
"[  c #66533D",
"{  c #283846",
"}  c #383B44",
"|  c #293D52",
" . c #443D45",
".. c #503F40",
"X. c #3D4143",
"o. c #39434B",
"O. c #394756",
"+. c #334A56",
"@. c #354E67",
"#. c #434443",
"$. c #4B4442",
"%. c #4C4A45",
"&. c #474748",
"*. c #44454A",
"=. c #454A4B",
"-. c #4C4C4C",
";. c #534B44",
":. c #5A4C43",
">. c #544948",
",. c #514E4D",
"<. c #595547",
"1. c #54524B",
"2. c #5B554C",
"3. c #434A54",
"4. c #4C4E53",
"5. c #4C5253",
"6. c #49535A",
"7. c #545453",
"8. c #5A5553",
"9. c #5C5A53",
"0. c #53555B",
"q. c #57595A",
"w. c #5C5C5B",
"e. c #654A44",
"r. c #645344",
"t. c #64534C",
"y. c #645A4C",
"u. c #6B5A48",
"i. c #735948",
"p. c #625C55",
"a. c #6A5B56",
"s. c #635E5A",
"d. c #765D54",
"f. c #5E615C",
"g. c #74634B",
"h. c #666355",
"j. c #64635C",
"k. c #6A645C",
"l. c #6B695D",
"z. c #706951",
"x. c #776758",
"c. c #495766",
"v. c #575C64",
"b. c #435C71",
"n. c #665F62",
"m. c #5C6468",
"M. c #516872",
"N. c #5B747C",
"B. c #646563",
"V. c #676866",
"C. c #6C6B64",
"Z. c #62666B",
"A. c #6C6C6A",
"S. c #746D64",
"D. c #786A62",
"F. c #726E6A",
"G. c #6B716D",
"H. c #75736C",
"J. c #7A7668",
"K. c #7B756B",
"L. c #656C72",
"P. c #656B77",
"I. c #6A6D72",
"U. c #6E7274",
"Y. c #687479",
"T. c #747573",
"R. c #797672",
"E. c #7C7A73",
"W. c #74787A",
"Q. c #7C7D7B",
"!. c #8D5635",
"~. c #A2693B",
"^. c #8C5C49",
"/. c #856B59",
"(. c #976E51",
"). c #877359",
"_. c #AB764D",
"`. c #867869",
"'. c #947D65",
"]. c #93776E",
"[. c #857B74",
"{. c #827E7A",
"}. c #7C8075",
"|. c #B38655",
" X c #978469",
".X c #85837B",
"XX c #888578",
"oX c #8A857B",
"OX c #968878",
"+X c #B4906B",
"@X c #A38D74",
"#X c #A6927A",
"$X c #D09356",
"%X c #D2A96B",
"&X c #CEAC76",
"*X c #3E6482",
"=X c #4F6E88",
"-X c #6A7983",
";X c #777D83",
":X c #7B8389",
">X c #738B94",
",X c #7097A8",
"<X c #878786",
"1X c #8D8A83",
"2X c #928D84",
"3X c #968E89",
"4X c #8C918B",
"5X c #949185",
"6X c #94928A",
"7X c #9B978A",
"8X c #9B958C",
"9X c #888D93",
"0X c #8B9498",
"qX c #989A98",
"wX c #AD9384",
"eX c #A4988B",
"rX c #A39D94",
"tX c #9CA19C",
"yX c #B4A38B",
"uX c #A8A498",
"iX c #ABA49A",
"pX c #B3A999",
"aX c #929CA1",
"sX c #91A5AE",
"dX c #9AA4A8",
"fX c #AAA9A7",
"gX c #B3AEA7",
"hX c #BAB5A8",
"jX c #A8B1B3",
"kX c #B8B8B7",
"lX c #D6B587",
"zX c #C6B6AB",
"xX c #C5BCAB",
"cX c #BEC0BC",
"vX c #E9CA91",
"bX c #C9C4B7",
"nX c #D6D0BC",
"mX c #EBDCA9",
"MX c #E9DBAF",
"NX c #96BEC1",
"BX c #AEBBC4",
"VX c #98C7CF",
"CX c #B6C2CB",
"ZX c #B3C6D4",
"AX c #C6C8C6",
"SX c #D2CDC3",
"DX c #DBD8CB",
"FX c #C4D1D8",
"GX c #D6DAD9",
"HX c #E4DECF",
"JX c #EDE7CD",
"KX c #EAE6D8",
"LX c #CFDBE3",
"PX c #DCE4E4",
"IX c #EBEFED",
/* pixels */
"S } #.Z.jXZ.* * d W.<XI.6.B b X.S 0.L.} 5.X.q.0.M ~ k.XXXXW.dXM y N +.>XCXLXIXIXIXIXAX-XFXZXj._ `. X`.r.r.) x $ 9 , % V y ; > s ",
"S 7.5.v.9XjX4.& } [.pX6XW.} S 9.V 1 z g r -.U.V.B.-.y.gXiXF.qX6.y N o.Y.CXPXIXIXIXGXP.-XsXjXy./.'. X).i.i.r./ q 0 X.1 w.,.8.J.j.",
"; r n *.m.tXdX+.Y.kXHXbXB.7.9.9.a   y =.n -.V.k.T.w.l.xXhXV.Y.W.b N o.c.jXLXLXLXPXZXb.,X,X4Xx.'.'.OX#X X)./.r./ s S b A.s.p.a._ ",
"  0 1.#.-.W.0X>XVXPXKXbXH.s %.~ O   h A.B.8.V.E.1XH.V.pXrXl.5.U.N b N +.>XkXCXZXFXLXBXBXjX{.D./.x.].#X#X`.).u.! j V d ;.:.[ _ P ",
"  Z rXXXG.7.X.,XVXDXKXrX$.h h >     Q 1XE.G.H.5X<XR.{.E.2.c 7 q.N u i o.M.sXCXZXFXPXIXIXLX4X/._ K g. X#X@Xx./ H j l p K j j x 9 ",
". k.DXkXXX%.i N.NXFXSXH.#.~ 2 o   > oXbX6X1XE..X{.V.%.s c C 7 M M 1 N o.+.N.BXLXCXGXIXLXFXfXS.v C K '.#XOX/ _ / q 9 9 H y.S y 5.",
"9 uXIXDXuXQ p L.sXSXgX%.~ Y g O # 9.SXSX7X1XE.Q.E.9.8.j.F.C.7.~ &.7 u N +.O.N.sXCXFXFXZX0X9XW.h C J ).OX<.~ `.g._ v $.U T 4.B I.",
"2.bXKXDXhX~ M G.4XbXiXw.T.T.4.z Q uXKXSXHX6Xj.H.A.&.-.7.9.-.7.=.=.z M A X.O.m.Y.>X:X-X=Xm.j.9Xo.l x x.g.r. X].x._ J ~ C ..gXI.q.",
"{.xXDXhX7X,.4.}.pXgXE.~ <XqXv.A Q pXbXKXKXbX5Xl.q.7.B.B.-.-.k.-.%.#.5.5.0.=.7.-.T.<XW.m.v.>.F.Y.Q k u.) /.@XOX).[ U #.p U.SX3XX.",
"F.uXgXrX8.S 7.XXhX1Xl.-.k.6XB.7.9.5XOXDXKXDXhXG.8.H.<X{..X1X6X.XG.#.7.k.w.7.w.C.E.1X.X<X{.<XQ.0Xm.C U ! `.@X@X'.u./ ~ r m.7XXXs ",
"H.[.7XoX~ V 8.5XhXuXuX1Xw.{.B.7.j.T.h.5XHXHXbX2XH.H.<X{.1XoXH.C.f.~ ~ ,.7.E.1X1X1XoX{.F.B.:X:XqXsXq.s ! ). X@X].i._ ^ r q.9.1X#.",
"B.H.F.k.X.#.Z.6X6XhXfX4XA.Q.,.} w.{.h.}.bXnXpX}.E.T.Q.<X6XuXH.j.1.#.H.V.C.1X5X5X6XXX<X{.R.T.T.T.0X:X&.;.x.'.@X Xg./ ( f B.1.<Xv.",
"7.A.j.B.X.X.E..XXXkX6XT.B.7.V A w.H.H.7XuXpXXXf.H.E.H.E.1XrXuXH.9.%.f.f.K.5X5X5X3XoXoXoXoX}.R.A.Y.sXL.%.y.`.'./.x./ P n B.-.n.*.",
"5.w.T.B.m.-.B.2.XXuXW.B.w.2 n -.Q.E.E.S.oXS.l.E.5XuX`.p.S.S..XtXj.^ 2.S.<XuX5X5X6X6X3X2X6X2X{.H.H.:XaXB.8.:._ U x./ v h m.V d h ",
"d A q.q.-.#.7.j.XX{.A.A.7.n S -.T.}.pX}.1.G.l.}.zXxXOXK.K.H.H.K.h.H.cXSXDXSX6XXX1X3X[.XX7X3XE.D.z.G.0X:X-.c v s ' U > y w.d % % ",
"~ y A T.m.1.A.G.H.8.V.V.#.&.,.$.H.bXDXuXh.1.f.#XhXxXeX2XE.}.C.9.T.uXpXjXDXKXhXD.k.d.y.k.2X`.`.[.XXE.4XdX-.k d.:.0 s s g 0.B , & ",
"oX=.7 o.}.f.7.5.X.X.Q.w.Z 7.<.E.cXDXbX6X1.9.E.5XyXpXpXeXOXE.l.f.}..XJ.pXhXbXiXl.$.a.`.XXOX5XeXOXoXXXf.L.m.v `. X1.}.}.1.z ~ z - ",
"oX4XN 7 f.4XB.X.E g G.q.M -.C.hXKXbX7X1.p 1.J.XXOXpXnXbXiXE.1.<.J.J.h.uXuXiXXXF.j.K.1X6X5XqXuX2XK.) s M Y.*.%.x.y.K.` x 7 x <.9 ",
"f.:Xo.7 p Q.T.7.#.S f.7.c l.hXbXbX7Xl.B.8.^ <.l.`.uXnXbXhX7X<.%.J.J.z.`.XXOX6X}.9.I XXeXfXgX1X9.:.U I v 6.Y.c u.Q j 8 9 9 H u.~ ",
"S 1.7.g 7 &.4X6X8.7.U.A.9.pXKXbXJ.9.H.H.E.C.9.l.XX#XpXbXbXrXh.Q f.H.J.}.XXqXjXXXK.9.7XeXl.Z 5 0 ( :.H v z N.5.U ` Q j a 0 H u.^ ",
"B.f.-.X.#.z h.xX7XS A.T.f.bXDXxXS.Q j.C.E.}..Xf.C.E.7XpXxXpXJ.,.f.V.f.J.OXtXtX.XJ.J.D.g.v > > 3 _ U 0 k I o.-X .:.v 0 5 j J [ Z ",
"7.q.5.6.5.o.~ 5XbX1.-.A.9.uX6X7X5XS.1.l..X.XE.l.2.1.l.OXeXXXXXH.G.G.5.f.9.5.C.1.a ) i.g./ 9 > 8 g.U 0 0 ;.I P.Y.p.Q 8 > s ) K # ",
"l V h -.5.A.{.5X5X%.#.T.B.%.7.}.7XE.j.S.XXE.E.l.h.h.l.l.J.XX7X4X8.$.j 8 4 ` l.XX( K [ u.U j 9 3 ) v $.j a.^ 7.:X7.l j l x u.[ j ",
"l : O p l c ~ 9.2.-.#.E.7.~ 9.>X0XH.S.6X2X1XXXXXE.XX.XXXE.V.5.z a ' F # r.).OXrXd./ ! ;.;.g.U f H q j j ;.^ C q.Y.V 4 J ) i.i.Q ",
"+ .   . 5 5 . O 0 w.7..X9.1.%.4.G.2XA.-.1.1.K.6X7X6Xc > ; = = 5 q J ' q v u.OXuXu.u.[ ' x ( _ l x U ! ^ l s s g N.6.a Q U i.r.C ",
"o   X . + + ; + a 7.&.A.f.c f.8.l.5X.Xj . # &.c 7 Y Z O = = > ;.z.x.g.x 3 ! }.4X` W g.x./ / H k H U _ ( z h V 1 { ;X1._ W g.r.9 ",
"@ . X % h d , < X 2 A $.1.-.%.h..XOX3XE.C ; a 2 X O y = o o 7 `  X XQ x x x ) l.<.! /.(.i.k k K K x K k d S S p - m.}._ [ _ j ; ",
"T a $ & o.h O O X 9 #.1.C.T.h.E.7X XpXuXs.5 + + o : O - y M 0 `  Xg.# ` W x z.l.Z D (.).i.] F K x < J K ) Y ( ` # A >Xh.r.:.; , ",
"{.I.#.u 0.h O X X O p 1.l.f.1.7XiX[.xXbXQ . O X % O O O 7 =.f.<. X}.z # . 8 J.}.r 4 ' x.u.L e._ k , ^ 9.w.Z s 0 o y m.:Xx.T 1 - ",
":XqXI.3.4.j . O O O ~ l.f.E.C.7XpXD.rX2.+ O & % . @ @ . o - X.Q x E z E > 0 ` }.-.: J e.[ D L r.j , 2 ~ A s 7 , = 1 7 N.L.t = 1 ",
"B.A.4.o.$.;.+ & O O V F.h.l.G.rXiXD.K.+   o O . 3 W D 8 $ O > #   . z m.g 7 ~ 9.[.k 0 U ) [ ' y.Y u , b n 1.Q e - ; o N b.e , 2 ",
"$ * O r H.k.& & X o p 1.l.l.H.gXpX/.F.. O X X . W +X] K 3 . / 3   3 $ N g 7 s ~ XX^ a 9 ) ] ' y.;.1 y b z v 1.A 2 ; 1 y @.+., * ",
"% O o * .Xk.O & o O Y 1.9.Q 2.fXrXe.v . X X O X g.vX] @ X % 0 # $ ] ' # o # ~ E XXf.V , F W D ` x = r g - p d b , , p #.} b.i & ",
"O % O ; C.q.o = , , B.9.9.1XrXgXD.m <   O < * % L |.L . X X O X 7 %X|.$ o 7 ` <.j.J.c = 5 x 8 x 0 # - b 1 < 1 1 ; = ; c *.@.@.- ",
"2 h . O #.&.o = = = 9.h.H.oX6X.XZ h : . v 9.8.Y 3 q < o X ; r O $ _. X4 = p h.h.) D.) o # j 0 8 x 1.7 1 7 ; = o O # C -.E @.=X+.",
"7.S O   2 h ; & % # 7.H.H.H.F..XI P + + f P >.<.C < , o O < 7.>.j q D o o p <.l.<.[ z.O O s ) XX` }.z = ; 1 - o > 5 1.h.` f.}.M.",
"s.7.O X o r 2 1 = o 9.1XF.E..XxX`.[.< & 3.sX9Xv.M *.;.5 , d s.{.4X%.# . O c <.~ P [ u.# ; ; <.XXz z = 7 = e ; @ _ k.XXJ.l.y.^ b.",
"p 4.; O - y = = o X 1.T.k.7XhXbX`.{.u B m.jX9Xv.6.&.;.t.f A B.t.XX6X9.> # 2.~ a C ;.x o = o 7 C 7 o = y = - $ 6 !.&X#XXXJ.XXf.E ",
"= y d d b y ; 1     ~ V.7.E.bXxXK.tX0Xm.Z.0XaX;XM.m.Z.H.-.*.a.0 <.XXOXl.C I Q 0 s Y Q h 2 o & > z 7 o = , = > L $X&X&X XOX X}.Q ",
"r - V V n 0.j ; . o z E.$.{.DXxXl.dXaXtXqXT.4XqXY.sX-XZ.T.v.>.: z J.J.XX`.Q Q h.I / U E.;.O % # g z O = 7 & D _.vXMXlX|.g.OX XJ.",
"n r n t } <Xt.* O . C .Xk.6XSXgXx.4.} w.%.> ; 9 e M.aXW.m.Z.s.: E <.y.` l.h.J J.x.) _ %.r.<.h x 0 r 1 1 # $ W %XMXJXmX&X~./.#Xl.",
"r r e * v.jXrXT . O C T.E.1XSXOXD.m   O X o o . 7 e B =.A 5.C.o 7 0 Q Q x ;.U ( OX<.;.c h.D.D. Xr.v , - = 3 !.%XHXIXmX%X|.] 0 7 ",
"t r w t W.BXzXi.: O p 2.1.K.hXJ.k.p . ; ; O . ; 7 =       V w.. o . 0 0 8 Z 0 v D.I #.c u.r.K / K z.! 1 # q !.vXJXJXJXvX|.G > , ",
"r d b B <XzXzX^.> & p %.-.k.7X[.d.2   X # o o O O         g w.o = = . . 0 Q 8 x Q c p Q z. Xv l H g.@XJ # 6 !.vXJXJXmXmX|.L , O ",
"f d t m Z.fXzX(.> X O c 9.j.XXx.h.;   X = o   X o o o     , h   = e o h Q x 0 j h z Z Q r.x.V # / U /.u.3 6 ] $XvXmXmX&X~.D 3 : ",
"4. .m  .P.fXzX(.k y X a 9.^ 2.;.2.1 o   = ; X . O   ; 1 O o O . . o y Y s v U <.Z ~ j I I Q ;.y Z <.D [ H @ G _.$X%X%X$X!.6 & C ",
"{.qXfXfXrXfXzXwXt.#.2 # #.;.k.;.;.s * O d V o .   . C Y ;   O d y = #.s s c x k.s 0 j %.I Q a.p d j J U r.! W ~.$X$X$X~.L 2 e b ",
"aXdX;XqXfXqXqXwX.Xm.S ; h <.K.2.Z ; & X O X X X   4 U a . O X r 7 z -.8.p ; h Z j o ; v 9.D.y.s 1 1 k U (.g.[ (.$X~.!.R D u b { ",
"0.0.} *.0.;X;X$.F * O O < m k.,.a   o O . O O .   : F > S c X X O ~ 1.B.; t h < > + . * t :.rXrXk.h > ! [ ` <.) S.u.G L l { @.c.",
"} B b 3.-XBXBXP K + % O < + $.5 , O   o O O O X   : $ p ,.P r n : I >.j $ 0 #., ; # * O @ 5 P t.oX1X7.J K k j h N ~ n n } b.c.| ",
"3. .0.Z.9XFXcXe.i.3 O * 0 + c p 7.-.O 2 V X     . : : 4 :.H 4.H.0 Y I @ U k j h p & + S Y H t.a.U C -.-.C ^ Q #.A } +.+.c.3.{ } ",
"0.4.v.-X9XAXjX/.^.6 * i.!.$ a 7 V V.d v #.X O s Y P T F t.t Z.2XF Y >.4 5 p 3 5 1 V B 0.F.4.P n.{.;.A g S t.yXyXuXtX;X:XP.c.3.} ",
" .{ 6.L.;XdX{.^.^.k > _.|.5 1 = ; -.h 9.Z O ~ 7.T.S.t.a z 1 I.eXq k v > # > :.t.O S Z.I.;X[.A...>.*.q.7.1.<.OX#XeXXXn.W.;X{.<X3X",
" .d I _ <.L.a.] R P 6 ] ] 4 d # O s 5 <.^ j <.> V Y 8.8.t.p.R.OXk s Z ,   # r.:.& h #.Y.:X:X;XU.B.A S q.`.D.y.9.;.d } P.I.I.H.d.",
"3.f R %X Xq.q.' R R f f 3 ; S ; ; p J l.) Q C O + & t ~ y.<._ i.F 5 $.f a p.2.&.; 5 t v.:X;X;X;X-X0. .S C.l.P 9.w.g { 3.O.0.-Xn.",
"v.s.' +X#X<X5.C d.t.b d d * t , S $.1.h.J 0 # X r 3.Y v H R ^.`.P @ m C >.p.c , ; $.V B P.U.U.L.P.0.} } q.^ ^ 2.A.0.3.@.| { v.v.",
"-XaX[.' ].9XZ.} 9XB.n f n e n n Y > ~ ^ 1.Q 5 , Y.>X5 6 t.wXiXwXe.4 4 t a 4 * , < P m B 3.Z.4.n 7.*.r o. .a m P 2.s.0.+.{ i { 3.",
";XfX;Xt  .-X:XB.J.A.m n t t  . .V ; C g j 2.c b N.>XT.z.eX3X;X7Xi.k * . : C 8.t * m  .f B } m >.a.>.u 3.v.} V l Z #.3.3.b e e e ",
"aX9X9Xn I.aX;X/.!.e.P .. .} 4. .m ; * * ; c # > , r l a.2XA 3.Z.e.: * <  .6.4.t f  .} t } } T R a.n.} 3.P.0. .4.5.m.Z.m.{ e w % ",
":XZ.I.4.3.v. .e.R G :.....>.>. .d * * * ; 9 . * 5 6 i.a.:.7.6.Z.a.< t m t  . .f P } m { 3.} s.D.R.P.O.3.v.Z.P.U.L.L.W.L.b , * % ",
";X9X0X;Xv.P.-X<XT T t.......>. .t r t < & O : T i.(.^.t.;.W.A.{.d.: P  Xe...T T e.m B  .>.3.P.;X-Xc.@.b.c.v.Z.;X:XQ.Y.5.t & O % ",
"0X9X9X;X-X9XjXiXe.e.d.t.>.a...P P H m f * < R ^.^.R D.{.rXfXI.1Xa.@ i.vX@X..>.].;X} e.].].>.0.U.0.@.=X=X@.@.@.v.I.L.6.M , % % - ",
"P.:X-Xc.-XdXAX3Xd.OX`...>.D.t.t.......P 5 $.e.!.K >.7X9XfXm.L.fXt.* ' +X/.P P 8XP. .i.lXlXa.4. .i | *X*X| | { { M B u = % = , i ",
"v.w.*.P.9XkXkX<X..n.>.e.[.[.e.d...T T ] x.BXOX!.e.F.9X:Xv.A Y.jX,.I t.`./.P ..9X0...^.yX&Xt.| 3.d e @.| | { r w = o o O 1 e i O."
};
