/* XPM */
static char *_dff1f75b79345cead4d573259c82446jjYU6YmUKO2pe8LD[] = {
/* columns rows colors chars-per-pixel */
"64 64 256 2 ",
"   c #0C0400",
".  c #050800",
"X  c #160400",
"o  c #1A1702",
"O  c #0C1400",
"+  c #230100",
"@  c #2B0101",
"#  c #290B04",
"$  c #340100",
"%  c #3B0200",
"&  c #3B0B05",
"*  c #281309",
"=  c #381805",
"-  c #361A15",
";  c #1B2D00",
":  c #2E300C",
">  c #430500",
",  c #440C00",
"<  c #4B0E00",
"1  c #470907",
"2  c #451301",
"3  c #4D1300",
"4  c #4D1A00",
"5  c #491A08",
"6  c #541C01",
"7  c #571A03",
"8  c #491B15",
"9  c #551910",
"0  c #492609",
"q  c #5B2402",
"w  c #5D2A00",
"e  c #592706",
"r  c #593600",
"t  c #4A2718",
"y  c #5A2713",
"u  c #4C3712",
"i  c #622502",
"p  c #632C02",
"a  c #6B2D02",
"s  c #642C0A",
"d  c #692B0A",
"f  c #643201",
"g  c #6B3402",
"h  c #6C3A01",
"j  c #6B340C",
"k  c #653B02",
"l  c #733C01",
"z  c #743B0B",
"x  c #763804",
"c  c #632A15",
"v  c #6B3517",
"b  c #723A14",
"n  c #563628",
"m  c #573837",
"M  c #4B2F29",
"N  c #67392E",
"B  c #284703",
"V  c #295501",
"C  c #375A06",
"Z  c #374C10",
"A  c #326300",
"S  c #3B6C01",
"D  c #396704",
"F  c #3B7301",
"G  c #36630C",
"H  c #3B4925",
"J  c #474B06",
"K  c #594702",
"L  c #485603",
"P  c #575803",
"I  c #4A4817",
"U  c #505216",
"Y  c #6C4300",
"T  c #664902",
"R  c #744301",
"E  c #7B4402",
"W  c #7C4B02",
"Q  c #784907",
"!  c #695A01",
"~  c #7A5406",
"^  c #7B4719",
"/  c #6D5616",
"(  c #446908",
")  c #556402",
"_  c #457707",
"`  c #476718",
"'  c #487816",
"]  c #577818",
"[  c #576F0F",
"{  c #666604",
"}  c #756609",
"|  c #786913",
" . c #787914",
".. c #6E710E",
"X. c #51512C",
"o. c #795627",
"O. c #694437",
"+. c #724F34",
"@. c #536F2E",
"#. c #6C6F30",
"$. c #786D50",
"%. c #6B5E52",
"&. c #843E00",
"*. c #844905",
"=. c #875609",
"-. c #94590B",
";. c #854C15",
":. c #895617",
">. c #955C17",
",. c #924D12",
"<. c #A15D17",
"1. c #89690D",
"2. c #896714",
"3. c #966318",
"4. c #867718",
"5. c #927317",
"6. c #A26B1D",
"7. c #8A5525",
"8. c #8D552A",
"9. c #976725",
"0. c #987526",
"q. c #89663C",
"w. c #8B692A",
"e. c #A36B26",
"r. c #A26C30",
"t. c #875D4E",
"y. c #927153",
"u. c #A37451",
"i. c #8F7671",
"p. c #A47A7C",
"a. c #578617",
"s. c #5D951C",
"d. c #4F870F",
"f. c #67941A",
"g. c #6BA318",
"h. c #578A25",
"j. c #588E25",
"k. c #648A29",
"l. c #768824",
"z. c #679927",
"x. c #75972C",
"c. c #6C9835",
"v. c #759A35",
"b. c #678B33",
"n. c #69A22A",
"m. c #76A728",
"M. c #6AA134",
"N. c #76A836",
"B. c #7CB539",
"V. c #7CB32B",
"C. c #58A010",
"Z. c #759646",
"A. c #738F4D",
"S. c #7AAC43",
"D. c #728F5B",
"F. c #8B9518",
"G. c #8B932A",
"H. c #83A739",
"J. c #88BA38",
"K. c #8DB532",
"L. c #A0BF3D",
"P. c #8CC439",
"I. c #97C939",
"U. c #99D23D",
"Y. c #92C32C",
"T. c #A5CE3C",
"R. c #879550",
"E. c #87AA43",
"W. c #88B847",
"Q. c #93BD43",
"!. c #8DBA55",
"~. c #94B95C",
"^. c #8DA859",
"/. c #A5B650",
"(. c #889D73",
"). c #8F956A",
"_. c #B18C73",
"`. c #89A168",
"'. c #95AC74",
"]. c #A9A866",
"[. c #89C448",
"{. c #96C847",
"}. c #9AD34B",
"|. c #9ACB54",
" X c #9AD556",
".X c #8CCB4E",
"XX c #A5CC48",
"oX c #A4D44A",
"OX c #A6D658",
"+X c #ACD359",
"@X c #AEE356",
"#X c #B2E55C",
"$X c #9CCC64",
"%X c #A7C669",
"&X c #A8D766",
"*X c #B0D377",
"=X c #B6E86A",
"-X c #BBEB78",
";X c #BCF376",
":X c #B5E96E",
">X c #C7F878",
",X c #CAF56F",
"<X c #C3D87B",
"1X c #AD958B",
"2X c #A5BB89",
"3X c #969A89",
"4X c #CEA9A6",
"5X c #CA9F92",
"6X c #B5CC86",
"7X c #B4CD90",
"8X c #BBEA87",
"9X c #B9D3A4",
"0X c #C9FB88",
"qX c #D7FD8A",
"wX c #CBFE95",
"eX c #D5FD97",
"rX c #CBEB8A",
"tX c #D3FFA1",
"yX c #CFEAB2",
"uX c #E6FFA8",
"iX c #EAFCB8",
"pX c #D6E39C",
"aX c #D0DCC6",
"sX c #F0D8D3",
"dX c #D5EAC4",
"fX c #E4F9C8",
"gX c #FAF5CD",
"hX c #FDEAD8",
"jX c #EBF9D8",
"kX c #F7FCDC",
"lX c #FFE9CD",
"zX c #F2DDE4",
"xX c #FCE8E7",
"cX c #EEF8E8",
"vX c #F6FFE3",
"bX c #FFF4EB",
"nX c #F5FEEC",
"mX c #FDFDEC",
"MX c #FDF9E5",
"NX c #FFEDF6",
"BX c #F5FDF4",
"VX c #FDFEF4",
"CX c #FDF6FD",
"ZX c #F6FEFD",
"AX c #FAFEFE",
"SX c #FFFFFD",
"DX c #FEFFFD",
"FX c #FFFDFF",
"GX c #FFFCFF",
"HX c #FFFEFF",
"JX c white",
"KX c #FEFFFF",
"LX c #FDFEFE",
"PX c #FEFEFD",
"IX c #F8F5F7",
"UX c #EEE8EA",
/* pixels */
"JXJXJXJXGXJXPXPXPXPXPXVXPXVXPXPXVXmXVXVXVXPXPXPXJXPXJXLXAXAXAXGXGXJXPXPXPXPXVXPXPXVXVXVXZXPXLXZXPXPXJXJXJXGXJXVXPXPXJXGXJXJXPXVX",
"JXJXJXJXJXJXJXPXPXVXPXPXPXPXVXPXPXPXPXPXVXPXPXJXZXPXJXJXJXGXGXAXJXIXPXIXJXJXPXPXVXPXPXZXPXZXZXLXPXPXJXJXJXJXPXPXPXPXJXJXGXJXPXVX",
"JXJXJXJXJXJXPXPXPXPXPXPXPXJXJXJXJXGXGXJXJXJXJXJXPXPXPXVXVXVXPXPXPXPXJXJXJXGXJXJXJXJXPXPXPXPXLXJXVXPXPXJXPXJXPXPXPXPXJXJXJXJXJXPX",
"JXJXJXJXJXJXPXPXPXPXJXPXJXJXJXJXGXJXGXJXJXJXJXJXVXVXPXIXPXPXPXJXVXPXGXGXGXGXCXGXJXJXJXJXPXPXJXPXPXPXVXPXPXPXPXPXPXPXJXJXJXLXJXJX",
"JXJXJXJXJXJXJXGXJXJXJXJXJXJXJXJXJXJXJXJXGXJXJXGXJXGXZXIXJXPXPXVXJXJXJXJXGXJXJXGXJXGXGXGXPXPXVXVXPXVXPXPXPXVXPXJXLXLXLXLXLXZXLXLX",
"JXJXJXJXGXJXGXJXJXJXJXJXJXJXJXJXPXPXPXJXJXGXJXJXGXGXJXPXVXmXVXVXBXAXBXBXBXIXBXZXJXJXJXGXJXPXVXVXPXJXVXPXPXPXJXJXLXLXLXLXLXLXLXLX",
"JXPXPXPXJXJXJXJXJXGXJXJXJXJXJXPXVXVXVXPXPXJXJXJXJXPXVXVXBXvXkXnXZXVXBXnXMXkXmXmXPXJXJXGXJXPXPXVXJXJXJXPXPXPXJXJXJXJXLXPXLXLXLXLX",
"JXPXPXPXJXGXJXJXJXJXJXJXJXJXJXPXPXVXVXPXVXPXPXPXBXaX3X(.(.'.`.`.(.(.`.`.^.`.(.'.vXBXPXJXJXJXJXJXJXGXGXJXJXJXJXJXJXJXJXJXJXJXJXJX",
"VXPXPXPXJXJXGXJXGXJXIXLXLXJXZXJXJXJXAXZXVXVXvXfXjX9XH G ` G G G G C ` G A D L @.iXfXjXVXZXZXZXAXCXGXGXJXGXGXJXJXAXGXJXPXBXJXGXJX",
"PXPXPXPXJXJXJXJXIXGXJXJXIXBXJXZXCXAXJXnXmXjX9XZ G ' $X:XtXwXwX8XwXeXrXwXeXrX*XS.' C @.fXBXZXZXZXGXAXCXJXCXJXIXPXPXIXJXIXJXJXUXIX",
"PXPXPXPXJXJXJXJXJXJXIXBXLXJXVXPXZXLXnXaX2X6X^.k.j.N.:X8X8XwXtXtX0XwXwXwXeXeX8XOXf.a.k.%X2X2XBXBXBXJXJXJXJXIXVXVXVXbXPXJXGXJXPXVX",
"VXPXPXPXJXJXJXJXLXLXLXLXBXBXVXcXnXjXvX6X; C d.OX{.OX0XwX8XtX8X8XwX0X0XwXwXwXqX>X{.oX{.C B ` yXnXnXVXUXAXBXPXmXmXvXmXJXJXIXJXJXmX",
"PXVXJXJXJXJXJXJXJXBXPXBXPXBXBXmX2XH ' Z.~.Q.{.J.;X=X}.;X0X|.8XtX$X&XeX&X$XeX&XOX>X@XI.{.{.^.k.` X.yXBXZXcXBXvX'.@.jXLXIXGXGXJXVX",
"PXPXPXJXJXJXJXJXIXPXPXBXVXVXcX7X`.c.` N.rX|.+X=X,X=XJ.+X>X+X&X8X&X&X8X@X&X;X}.{.,XoXV.W.W.J.d.k.Z.'.9XnXBXcX9X'.$.jXLXLXGXIXBXnX",
"PXPXJXJXJXJXJXJXJXUXPXcXnXBXaX: !.eX&X&X0XeX0X0XOX|.OXJ.I.uXXXL.0X;XP.,X>XY.}.{.[.N.c.z.z.N.[.&XuXG @.cXcXdXB ^.fXkXcXZXAXLXIXVX",
"JXPXJXPXPXPXPXPXZXVXnXmXvX(.D.9X&XOX-X;X&X!.!.W.N.N.m.J.oXI.,X,XOX@X,X@XU.U.V.N.E.a.D F S S z.{.$X8X2Xb.b.A.*X*X6XfXZXLXIXJXVXmX",
"JXJXVXPXVXbXBXaXaXaXyXyXyXc.b.0X:X|.>X&XW.b.h.h.j.j.j.B.J.P.#X,XI.T.>XU.P.P.s.h.h.a.F d._ _ h.M..X8X&XG ' s.0X&X!.gXmXJXGXCXIXVX",
"JXIXPXPXVXVXcXX.Z B V V V $X0X{.-XqXW.W.v.( V C V F S.n.g.XXL.I.T.I.Y.}..Xn.' V B N.=X&X&X&XD D c.j.M..X;X0X XS.v.jXmXIXGXGXPXPX",
"JXIXJXJXVXnXvX7X'.D.$X%X.X&X+X{.{.W.!.z.[ x.J.g.m.g.F S a.N.P.}.T.}.{.J.z.S ] b.E.' ; Z B C x.x._ z.n.N. X XS.A.@.jXBXZXLXLXPXVX",
"JXJXAXUXZXnXcXfX8X~.0X>XeX|.{.OXN.a.j.] C E.Q.W.Q.N.S F A j.M.{.I.Y.{.m.k.D x.H.~.U . o O . R.H.A s.n.s.S.S.A.@.%.jXBXBXZXZXZXLX",
"GXJXJXLXBXBXjX6X!.f.{.P.I.oXoX[.S.N.D k.-X; . O . ; 8XS.h.A h.n.P.U.U.m.a.Z H.].O 3XbXaX).: = I *Xz.z.z.z.Z.` X.$.cXPXZXZXZXZXZX",
"GXIXJXJXBXnXjXA.k.z.K.I.I.Y.m.OXM.( b.b.P ; O.3X%.%.H Z.!.' ' d.P.Y.Y.Y.E.%X .U # O.i.t.+.n X I rXJ.J.n.h.` X.i.1XNXPXBXZXZXZXZX",
"AXGXIXZXJXBXjX` ( v.{.K.{.g.C.}.z.V 8X#.* : i.IXsX1X  #.'.^.] D .X.XoXI.+XiXX.o X.# X t u u X I uX+XW.k.] Z y.1X4XCXVXPXLXZXJXGX",
"GXGXZXJXJXVXcXX.J L l.H.g.P.U.C.f.z.iX).. t M X M m M : Z yX8XW.c.N.J.m.K.*X: . * M M M I n X U qXK.f.c.@.` I y.4XNXVXPXZXJXGXCX",
"JXIXAXGXGXIXbX$.+.#.@.] x.B..XC.m.H.iXR.  : - # t u t o : pX%XH.N.W.:XW.H.H.A.X.X - - - - : X.R.>X[.N.M.' J u q._.hXbXPXJXJXGXCX",
"LXAXGXGXCXCXIXi.$.i.X.[ k.W.U.C.V. XtXA..   u n O.t *   o ^.H.l.[.;X0XOXJ.f.pX6X. X . . . O tXrXJ..X[.j.] C r o.u.lXmXVXLXLXGXGX",
"LXJXJXCXCXCXNXp.p.1XO.U ) E.}.P.{.I.XX*X7X; .   X X . $.<X+X+X;XV.d.] z.H.>X+X+X6X6X6X*X7X%XOX{.[. X[.z.] P P / q.lXmXVXZXZXJXJX",
"LXPXJXIXCXCXNX1Xp.4X+.r J x.{.XXP.T.I.+XpX` Z H : X.B ^.qXoX=X;XJ.C._ n.Q.,X@X+XrXrX>XqX8XqX[.U.}.B.B.z.[ Z { / #.lXmXPXZXZXPXPX",
"PXPXPXPXJXCXIX4X4X5Xo.r K  .G.XXT.T.T.Y.T.>XuXwXiXtXeX#XXX,X#XY.U.U.U.P.U.J.;X0XY.P.I.}.J.P.}.P.}.n.n.x.[ ) 4./ U hXVXJXLXZXLXZX",
"VXVXPXPXJXbXVX4X_.u.w.7.w.4.} F.F.F.T.XXK.+XOXOXOX{.#X{.K.@X}.}.U.Y.U.U.I.@X X@XoXY.I.Y.Y.V.[.{.N.n.f.[ ) } / 0 = hXIXGXBXLXJXBX",
"VXVXPXPXJXVXbX1Xu.q.3.=.=.1.1.} 1.F.L.K.T.T.K.I.P.I.I.{.OX!.J.J.J.J.B.P.B.B.B.V.P.P.{.XXV.C.J.J.k.v. .! } ~ r 2 8 xXCXGXCXJXPXVX",
"VXPXPXVXPXVXMXy.r.9.R g f =.3.k } 5.1. .F.L.XXXXm.g.}.|.|.N._ A A S A A A A S F z.[.|.g.f.x.H.] J { F.1.T r & 9 m NXNXGXJXVXZXVX",
"JXVXPXPXVXbXmX+.^ g Y h =.R W =.W *.3.5.4.F.G.G.f.x.N.z.h.F h.a.a.a.a.a.d.d.a.a.a.' j.M.a.[ l.4.| T ~ Y g p c 5 t NXGXGXJXPXVXBX",
"CXJXZXZXPXVXMXc 5 ^ q h 9.R l e.*.g -.1.1.4.} G.G.f.x._ G G d.c.z.g.z.m.N.H.v.k.V D G M.] P } 1.=.Y h R i d c 0 & sXIXJXJXLXPXBX",
"CXJXLXZXJXPXxXt 2 b z g h =.3.p W 9.w R 5.h T F.}  .G.x.z.c.n.n..X.X.X!.~..XB.j.v.v.#.4.0.2.K r Y w g 9.;.i , 0 m bXVXIXJXZXLXZX",
"GXJXJXZXJXVXxXn 5 , s f ~ ;.=.W ~ W Q =.W *.*.W -.F.4. .l.[ [ a.B.[.|..XQ.B.z.d.] l.G.R =.W ~ Y r Q :.E E p 6 2 t hXVXIXJXLXLXLX",
"GXJXLXZXJXVXbXN e , p h 9.Y h 9.~ r 9.=.x -.-.a -.=.1.1. .P L L f.N.[.|.J.s.F V C ! :.l a a e.W k :.>.g p g j 0 = lXVXPXJXAXAXAX",
"IXJXLXBXVXVXxXt 3 e j h g =.=.g ~ w.r l >.x &.<.&.x 6.=.K 1.5...P ) ( F F S D ) 4.~ R a &.<.E E 3.h z <.&.g s y n xXVXCXJXJXGXGX",
"VXPXPXBXPXVXhXt , w p f R =.*.R =.W E *.-.*.x -.E E =.W l W 3.2.! ! ) L D G P ! ~ h p g ,.>.g =.=.W E :.x d i y t xXIXVXJXIXPXBX",
"PXBXVXZXIXVXxX+.y $ p R 9.R l e.E g 6.*.p 3.-.p 3.-.i =.e.i *.e.3.5. .P L ) | | k g a r.Q e e.=.r >.>.g z 7 > $ 8 zXIXPXPXVXVXVX",
"GXJXLXZXZXIXbXt 1 c s b ^ f x l *.>.x *.3.g W 2.R Y 2.E l >.*.x >.-.k } | r K r = w g g :.:.R R 9.x a 1 7 3 % 8 m xXIXIXJXVXVXmX",
"GXCXZXLXJXGXxX8 5 c c w q q i i ,.,.d &.:.l ~ :.Y T 9.R l 6.*.R -.W R =.:.k e e & 6 j p x 7.k Q :.x 7 7 > % 5 , m xXGXJXPXVXVXVX",
"GXGXLXZXZXVXNX+.9 % % % & , > > 3 x a a h 8.7.r 7.9.0 =.e.w W 6.k R 6.x x r.w $ ^ , > j a x 9.:.a 7 7 d < < c t & sXIXIXPXZXPXVX",
"GXJXZXPXVXVXhXt < 7 o.v q e w 7 7 3 < < 3 z b p Q Q =.W R W 1.h =.=.l *.:.x ;.z , 6 d > i a x z , 3 7 d d i & 5 M xXVXVXJXJXJXJX",
"PXPXVXBXbXMXlXu 4 j 8.7.i i c v e % , , 3 7 d j 7 g e.Q h 5.~ Y 1.~ g :.-.h ;.7., p d , 7 b i 3 < j b d d 7 2 5 n bXPXIXJXJXJXAX",
"IXPXPXBXmXkXkXy.8.f e s 3 > < v v s v c e 3 > $ p z q ;.9.g Y e.f R 0.h h e.E g r.i % j i d 7 3 w 7.7.g 6 , v 0 * hXPXIXGXJXGXGX",
"JXJXZXZXVXmXhX+.c v e 3 % $ 1 1 y q s v b 7 6 i 7 7 7 x Q ^ :.x ;.W W =.~ R *.=.,.x z 7 7 v @ q :.;.*.;.6 $ y @ - xXGXGXJXJXIXJX",
"GXJXLXLXVXmXhX+.c c > > , % % % 7 b d s i j j j 6 % , 7 x 8.;.i 9.;.r =.-.k =.3.q :.9.> q s < 6 w.h h w.r & + + * zXGXCXJXJXVXPX",
"AXGXLXZXVXmXMXO.8 3 % > % $ 1 $ 1 1 > < b a z r.a l e.a > g b i g R 9.h R 2.E f p l j 8.j & % 4 r 2.| K P K o O * zXCXCXCXGXPXbX",
"GXGXLXPXVXVXMXN 8 > % % % $ @ & 1 9 1 < 7 a g :.*.E ;.p 6 q 7 b g l =.f j >.l w h f j ;.b p % 2 T P ..[ [ ` B : H UXCXCXCXGXJXVX",
"GXAXZXPXVXbXbXO.9 % $ $ $ $ + & 9 c 1 $ > d g w :.>.f p e & 7 c w z q z p w h g p p s d ^ u.3 = J J ( G.M.M.G @.D.JXJXAXGXZXLXZX",
"CXGXJXPXPXbXbXO.t > $ $ $ $ + - & 1 y c s , 6 f k ^ 9.h f 7.v , j s d 4 3 j 3 , b 6 1 v b r.% 0 L E.W.A ' M.j.b.D.BXBXLXLXZXLXZX",
"GXGXJXJXVXVXbXm 8 8 & @ @ + @ @ $ % 9 N y , q j w f :.=.;.:.p 3 e 0 j 3 3 y 6 2 q 6 2 q f ^ w K L v.N._ s.n.j.h.Z.fXnXVXZXZXZXZX",
"GXGXJXIXIXVXcX- 8 M 8 1 $ + # + & 8 % $ % v b r j h w :.>.g f h % q c v c % c v $ e s 2 q j r.o.U C ' *X[.s.A ' D.jXnXVXJXLXLXZX",
"GXGXGXIXJXPXxXM @ - 8 - +   X + + @ + & $ & 4 e e k :.Y Y :.k w > < c , 1 9 1 % 7 3 3 4 3 % 7./ o B @.c.G F S.Z.D.fXvXVXIXJXLXJX",
"JXGXJXPXPXVXbXO.M m %.%.m m m m m M m m O.n O.t.+.q._.q.o._.u.o.O.O.t.O.O.t.N N y.N n t.O./ u.y.I @.A.'.A.A.7X2X'.kXVXVXJXJXCXJX",
"JXJXJXJXPXPXPXPXGXCXVXCXVXPXPXVXVXVXJXIXPXPXIXPXVXmXmXMXmXmXmXmXMXmXmXVXPXPXPXIXIXPXVXVXmXmXmXmXmXmXMXMXMXkXvXvXmXVXPXJXGXGXPXPX",
"LXLXJXLXPXPXVXVXPXGXVXPXIXPXPXPXVXVXPXJXJXJXJXJXJXPXPXPXPXIXGXPXPXVXPXPXJXLXJXJXLXLXJXLXLXPXVXVXVXVXVXVXmXmXVXPXPXJXJXJXJXPXPXVX",
"LXLXLXLXPXPXJXPXPXPXVXPXPXPXPXVXZXPXLXLXLXLXLXLXJXJXJXJXJXJXJXJXPXPXPXPXLXJXJXJXJXJXJXJXJXJXJXJXJXJXJXGXJXJXLXLXJXLXLXLXLXPXVXVX",
"LXZXLXLXJXJXJXLXJXPXJXJXPXPXPXJXLXLXLXLXJXLXLXLXJXJXJXJXJXJXJXJXPXVXPXPXJXJXJXJXJXJXJXPXJXJXJXJXGXJXJXJXJXJXLXLXLXLXZXZXZXZXPXPX",
"LXLXLXJXLXJXLXJXLXLXLXLXPXJXJXJXJXJXJXGXGXJXJXPXVXPXVXVXVXVXPXPXVXVXPXVXPXPXVXPXPXPXPXPXPXPXPXJXJXJXJXJXJXJXLXLXLXZXLXZXLXZXPXPX",
"JXLXLXJXJXJXJXJXLXLXZXLXJXJXJXJXJXJXGXGXGXJXJXPXPXVXVXVXVXPXPXVXPXPXPXPXPXPXVXPXVXPXPXPXPXPXPXJXJXLXJXLXJXJXJXLXLXLXZXLXLXLXPXPX",
"JXJXJXJXJXGXJXJXLXLXLXLXJXJXGXJXJXPXJXLXJXJXLXLXPXPXPXPXJXLXLXJXJXJXGXJXJXJXJXJXPXPXJXJXJXJXJXJXLXPXJXJXPXPXPXPXPXPXPXPXJXGXLXJX",
"JXJXJXJXJXGXJXJXLXLXJXJXJXJXGXPXLXPXLXLXLXLXLXLXLXLXLXPXLXLXZXLXGXGXGXGXGXJXJXJXJXJXGXJXJXJXJXLXLXPXPXPXVXVXVXVXVXVXVXPXPXGXGXGX"
};
