/* XPM */
static char *result[] = {
/* columns rows colors chars-per-pixel */
"64 64 249 2 ",
"   c #37020A",
".  c #201616",
"X  c #27171E",
"o  c #4C0A16",
"O  c #57162B",
"+  c #51103A",
"@  c #571739",
"#  c #641E28",
"$  c #631B38",
"%  c #4C2832",
"&  c #572639",
"*  c #58353D",
"=  c #68333B",
"-  c #3D1D48",
";  c #3D224E",
":  c #560D44",
">  c #4B1B43",
",  c #481844",
"<  c #451B4A",
"1  c #4C1C4C",
"2  c #551646",
"3  c #531B44",
"4  c #531C4B",
"5  c #5B1B4E",
"6  c #461D51",
"7  c #4B1D51",
"8  c #531A52",
"9  c #621D46",
"0  c #631E54",
"q  c #49244B",
"w  c #5A2847",
"e  c #53224D",
"r  c #493147",
"t  c #5B3748",
"y  c #452252",
"u  c #4B2353",
"i  c #4A2B56",
"p  c #562A57",
"a  c #4D345A",
"s  c #573558",
"d  c #662845",
"f  c #772B44",
"g  c #65374A",
"h  c #70334B",
"j  c #663657",
"k  c #7A3A54",
"l  c #563D63",
"z  c #643B62",
"x  c #544750",
"c  c #5B4856",
"v  c #65444B",
"b  c #684958",
"n  c #754A5A",
"m  c #6A5156",
"M  c #76555B",
"N  c #5B4965",
"B  c #5F5269",
"V  c #664B65",
"C  c #784B63",
"Z  c #695568",
"A  c #745464",
"S  c #74556B",
"D  c #79586A",
"F  c #6A5673",
"G  c #745C73",
"H  c #785A76",
"J  c #77656A",
"K  c #6B6374",
"L  c #7B6175",
"P  c #796777",
"I  c #823C56",
"U  c #8A3D61",
"Y  c #874757",
"T  c #90555A",
"R  c #934B62",
"E  c #865768",
"W  c #845B6A",
"Q  c #8B5B6E",
"!  c #9A5A65",
"~  c #865D73",
"^  c #965B73",
"/  c #A55861",
"(  c #88636A",
")  c #95656A",
"_  c #866576",
"`  c #8D6274",
"'  c #966776",
"]  c #9C6374",
"[  c #9C6C7A",
"{  c #89737A",
"}  c #9A767C",
"|  c #A66569",
" . c #A86B77",
".. c #A36C7B",
"X. c #B66F74",
"o. c #A9737A",
"O. c #B7777B",
"+. c #C67A7C",
"@. c #D57E79",
"#. c #E37F7D",
"$. c #92847E",
"%. c #B1847C",
"&. c #D8877D",
"*. c #E5867F",
"=. c #725C80",
"-. c #7A6883",
";. c #7F7886",
":. c #8E6986",
">. c #897588",
",. c #997689",
"<. c #9B7A97",
"1. c #A66D82",
"2. c #A97586",
"3. c #B47483",
"4. c #B57985",
"5. c #BC7B83",
"6. c #B77888",
"7. c #BC7C8A",
"8. c #B57790",
"9. c #C37C83",
"0. c #C87B87",
"q. c #C6788C",
"w. c #D37D85",
"e. c #E37F81",
"r. c #998597",
"t. c #918C92",
"y. c #AA858A",
"u. c #BA8489",
"i. c #BB8895",
"p. c #B18D99",
"a. c #AB9599",
"s. c #A3A29E",
"d. c #988BA4",
"f. c #9E98A4",
"g. c #AC92A8",
"h. c #A8A6AC",
"j. c #B2A7AA",
"k. c #B6ABBA",
"l. c #B9B5B9",
"z. c #C78487",
"x. c #CC838C",
"c. c #D78787",
"v. c #D3858B",
"b. c #DC858C",
"n. c #C2938D",
"m. c #D5948A",
"M. c #C78895",
"N. c #D78896",
"B. c #DB8B93",
"V. c #C99599",
"C. c #D99797",
"Z. c #E68889",
"A. c #F78B88",
"S. c #E5938C",
"D. c #F8968E",
"F. c #E48B94",
"G. c #E48C94",
"H. c #E89797",
"J. c #F39A93",
"K. c #F69A95",
"L. c #CBA39B",
"P. c #E6A29D",
"I. c #F3A399",
"U. c #F4A39B",
"Y. c #FBA49B",
"T. c #FEA99E",
"R. c #D78FA5",
"E. c #CA96A7",
"W. c #DD92A4",
"Q. c #D698A5",
"!. c #C09AB3",
"~. c #E897A7",
"^. c #F09DAF",
"/. c #EC9CB2",
"(. c #CBA6A9",
"). c #D7A7A9",
"_. c #D4ABB1",
"`. c #DAA8B2",
"'. c #C5B8BC",
"]. c #D8B5B7",
"[. c #E7A7A9",
"{. c #F5A7A4",
"}. c #FCACA4",
"|. c #F4ACAD",
" X c #FBADAA",
".X c #EDB4A9",
"XX c #FFB1A6",
"oX c #F3B4AC",
"OX c #FEB3AB",
"+X c #FEB8AE",
"@X c #E9ABB3",
"#X c #F4A9B3",
"$X c #E8B9B7",
"%X c #F4B6B7",
"&X c #FEB5B4",
"*X c #F4BBB3",
"=X c #FEBAB3",
"-X c #FDB5BA",
";X c #FEBBBB",
":X c #FAC2BC",
">X c #B99DC5",
",X c #CDA9C8",
"<X c #C4BCC6",
"1X c #E5B5C9",
"2X c #F9B9C1",
"3X c #ECBDD1",
"4X c #BFC0C5",
"5X c #B6D2EF",
"6X c #BAD5EF",
"7X c #B7D3F0",
"8X c #BBD5F0",
"9X c #BFD8F1",
"0X c #C8C6C6",
"qX c #D7C6C8",
"wX c #C9C9D3",
"eX c #D8CCD9",
"rX c #CED4D2",
"tX c #D9D6D5",
"yX c #E5CAC5",
"uX c #F7C7C8",
"iX c #F2D1CE",
"pX c #E6D9DA",
"aX c #F5D8D5",
"sX c #D5E1DB",
"dX c #ECE2DB",
"fX c #D7D6E4",
"gX c #C1D7F2",
"hX c #C3D9F2",
"jX c #C9DEF3",
"kX c #EFCFEE",
"lX c #FAD6E6",
"zX c #DDE8E4",
"xX c #CDE1F5",
"cX c #D3E4F6",
"vX c #D9E6F6",
"bX c #DBE8F7",
"nX c #D6E6F8",
"mX c #D9E6F8",
"MX c #D7E8F8",
"NX c #DDEAF9",
"BX c #F0E7E7",
"VX c #E3EEFA",
"CX c #F3E9FC",
"ZX c #E6F1FA",
"AX c #EBF4FC",
"SX c #F1F7FD",
"DX c #FFF3FA",
"FX c #F4F9FD",
"GX c #FEFFFF",
/* pixels */
"GXGXGXGXGXGXGXFXGXGXGXGXGXGXGXGXGXGXGXGXGXGXGXGXGXGXGXGXGXGXGXGXGXGXGXGXGXGXGXGXGXGXGXGXGXGXGXGXGXGXGXGXGXGXGXGXGXGXGXGXGXGXGXGX",
"GXGXGXGXDXGXGXDXGXGXGXGXGXGXGXGXGXGXGXGXGXGXGXGXGXGXGXGXGXGXGXGXGXGXGXGXGXGXGXGXGXGXGXGXGXGXGXGXGXGXGXGXGXGXGXGXGXGXGXGXGXGXGXGX",
"GXGXGXGXGXGXGXGXGXGXGXGXGXGXGXGXGXGXGXGXGXGXGXGXGXGXGXGXGXGXGXGXGXGXGXGXGXGXGXGXGXGXGXGXGXGXGXGXGXGXGXGXGXGXGXGXGXGXGXGXGXGXGXGX",
"GXGXGXGXGXGXDXGXDXGXGXGXGXGXGXGXGXGXGXGXGXGXGXGXGXGXGXGXGXGXGXGXGXGXGXGXGXGXGXGXGXGXGXGXGXGXGXGXGXGXGXGXGXGXGXGXGXGXGXGXGXGXGXGX",
"DXGXGXGXDXGXDXFXGXGXGXGXGXGXGXGXGXGXGXGXGXGXGXGXGXGXGXGXGXGXGXGXGXGXGXGXGXGXGXGXGXGXGXGXGXGXGXGXGXGXGXGXGXGXGXGXGXGXGXGXGXGXGXGX",
"GXGXGXGXGXGXGXGXGXGXGXGXGXGXGXGXGXGXGXGXGXGXGXGXGXGXGXGXGXGXGXGXGXGXGXGXGXGXGXGXGXGXGXGXGXGXGXGXGXGXGXGXGXGXGXGXGXGXGXGXGXGXGXGX",
"GXGXGXGXGXGXGXGXGXGXGXGXGXGXGXGXGXGXGXGXGXGXGXGXGXGXGXGXGXGXGXGXGXGXGXGXGXGXGXGXGXGXGXGXGXGXGXGXGXGXGXGXGXGXGXGXGXGXGXGXGXGXGXGX",
"GXGXGXGXGXFXGXGXGXGXGXGXGXGXGXGXGXGXGXGXGXGXGXGXGXGXGXGXGXGXGXGXGXGXGXGXGXGXGXGXGXGXGXGXGXGXGXGXGXGXGXGXGXGXGXGXGXGXGXGXGXGXGXGX",
"GXGXGXGXGXGXGXDXGXDXGXGXGXGXGXGXGXGXGXGXGXGXGXGXGXGXGXGXGXGXGXGXGXGXGXGXGXGXGXGXGXGXGXGXGXGXGXGXGXGXGXGXGXGXGXGXGXGXGXGXGXGXGXGX",
"GXGXGXFXFXGXGXGXGXGXGXGXGXGXGXGXGXGXGXGXGXGXGXGXGXGXGXGXGXGXGXGXGXGXGXGXGXGXGXGXGXGXGXGXGXGXGXGXGXGXGXGXGXGXGXGXGXGXGXGXGXGXGXGX",
"GXGXGXDXGXGXGXGXGXGXGXGXGXGXGXGXGXGXGXGXGXGXGXn.:X*X%X%X2X2XuXuXuXaXGXGXFXGXGXGXGXGXGXGXGXGXGXGXGXGXGXGXGXGXGXGXGXGXGXGXGXGXGXGX",
"FXGXGXFXGXDXGXFXGXGXGXGXGXGXGXGXGXGXGXGXGXaX$X*XoXoXoX%X%X*X;X*X;X:XyXyX:XqXGX0XqXqXGXGXGXGXGXGXGXGXGXGXGXGXGXGXGXGXGXGXGXGXGXGX",
"GXGXGXFXGXFXGXGXGXGXGXGXGXGXGXGXGXGXGXGXyX@XP..X%XoX*X*X=X;X;X&X*X*X:X$X:X$X$X].%.$.GXGXGXGXGXGXGXGXGXGXGXGXGXGXGXGXGXGXGXGXGXGX",
"FXGXFXGXGXGXGXFXGXGXGXGXGXGXGXGXGXGXGX$XQ.|.T.XXoXoX*X*X=X=XOX&X=X=X=X;X*X:X;X*Xn.) a.GXGXGXGXGXGXGXGXGXGXGXGXGXGXGXGXGXGXGXGXGX",
"FXGXDXFXGXFXGXGXGXGXGXGXGXGXGXGXGXaXV.[.{.}.XXT.XX+X+X:X=X=X=X=X;X-X;X&X&X-X%X|.*X).L.GXGXGXGXGXGXGXGXGXGXGXGXGXGXGXGXGXGXGXGXGX",
"GXGXFXGXGXFXGXFXGXGXGXGXGXGXGXGXiXC.P.U.T.K.Y.T.T.XXXX+X=XOX=X=X=X&X-X-X-X;X-X-XoX;X$X(.GXGXGXGXGXGXGXGXGXGXGXGXGXGXGXGXGXGXGXGX",
"GXGXGXFXGXGXFXGXGXGXGXGXGXGXGXaXC.J.I.I.I.I.XXT.T.+XoXOX+X+XOX=X=X=X&X;X2X-X&X;X:X:X:X:X].GXGXGXGXGXGXGXGXGXGXGXGXGXGXGXGXGXGXGX",
"GXGXFXGXGXGXGXGXGXGXGXGXFXGXGXL.&.*.D.Y.T.I.I.XXoX}.XXXXOX=X:XOXoXoX|.&X-X2X;X;X*X.X:X*X$X].GXGXGXGXGXGXGXGXGXGXGXGXGXGXGXGXGXGX",
"FXGXGXGXGXFXGXGXGXGXGXGXGXGX].%.m.D.J.S.I.XXT.+X{.+XXX{.OXoXOXoXoX:X*X:X[.9.| H.*X+X:X:XuX$X3XGXGXGXGXGXGXGXGXGXGXGXGXGXGXGXGXGX",
"GXFXGXFXGXGXGXGXGXFXGXFXGXyXy.O.&.S.J.J.Y.T.T.I.T.OXOX{.=X|.|.;XuX.X).@Xv.#X2X|.=X+X=X=X:X2X2X%XGXGXGXGXGXGXGXGXGXGXGXGXGXGXGXGX",
"GXFXFXGXFXGXFXGXGXtXa.{ y.i.O.w.c.Z.J.XXY.D.T.XXXXH.OX[.|.-X@X5./ | Y # o 9.2X X&XOX X X&X&X&X-X%XGXGXGXGXGXGXGXGXGXGXGXGXGXGXGX",
"FXGXGXGXGXGXFXGXDXj.,.} (  .5.v.Z.J.J.K.I.T.XXY.XX}.&X|.%X| = ! O.| O o Y W.~.[.{.|.}.&X X X}. X|..XGXGXGXGXGXGXGXGXGXGXGXGXGXGX",
"GXFXGXFXFXGXGXGXrXs.yXBX). .v.@.c.S.Y.J.T.XX&.&.+.S.2X| o   @ & & g ) E.E.i.5.u.u.m.B.H.H.K.J.H.K.}.[.GXGXGXGXGXGXGXGXFXGXGXGXGX",
"FXFXFXGXFXFXGXFXl.l.aXDXL.! +.&.J.S.XXT.XX*./ &.}.H.X.    % j ^ 2.8.:.E ' ,.' n ! T ! +.v.K.J.K.A.K.H.GXGXGXGXFXGXGXGXGXGXFXDXGX",
"FXFXFXFXFXGXFXGXFXf.j.].) | m.c.H.H.{. X}.K.U.OXH.C.) T 1.<.<.:.K t.d.<XfXDXCXs % g u.z.9.c.Z.D.A.D.J.V.GXFXGXGXGXGXFXGXGXGXFXGX",
"GXFXFXFXFXFXFXFXFXGXFXy.) X.X.S.H.U.}.}.XXOX XP.m.5.5.M.1.~ <.,XmXCXCXCXfX,Xd.r % & [ R.v.c.e.A.A.A.H.m.GXGXGXGXGXFXGXGXGXGXFXGX",
"FXFXFXFXFXFXFXFXFXGXFXqX) O.C.S.U.}.}.OX=XOX{.C.N.z.6.E ^ 1XkXkX>Xd.=.l a q q r q @ I R.~.b.Z.e.A.A.G.V.p.GXGXFXGXGXGXGXGXGXGXGX",
"SXFXFXFXFXFXFXFXFXFXFXpX) O.S.I.}.}.XXOXXXoXH.N.4...Q d j <.:.p 8 , , , q q > 4 5 2 : 3./.w.F.w.e.e.c.M.y.GXFXGXFXFXFXFXFXFXGXFX",
"SXSXSXSXFXSXFXFXFXFXFXa.' v.H.Y.I.}.XX}.}.&XH.X. .Y d 3 w > , 1 5 2 0 5 3 5 e 5 5 5 + U /.N.b.c.w.c.v.x.o.FXFXFXFXFXGXFXFXDXFXFX",
"SXSXSXSXSXSXSXSXSXSXAXy.o.C.{.K.T.T.T.T.{.H.X.R n h & 3 w 3 , 4 5 : 9 5 + : 5 4 2 0 + 9 R.~.c.c.w.0.z.i.o.FXFXFXFXFXFXFXFXFXFXFX",
"AXSXSXAXSXAXSXSXSXFXAXr.7.v.S.}.T.Y.D.Y.H.w.| ! R $ 3 3 3 5 2 8 8 , + e e 4 8 1 1 5 2 + 8./.B.z.z.5.5.6.[ FXFXFXFXFXFXFXFXFXFXGX",
"AXAXAXAXAXAXAXAXAXAXAX,.5.B.}.D.D.D.D.J.S.F.N.W.q.d d @ 2 e 2 4 4 4 , , q > 4 1 8 2 5 + ] /.B.v.z.4.5.2.) FXSXFXFXFXFXFXFXFXFXFX",
"AXAXAXAXAXAXAXAXAXAXSXr.o.v.J.D.A.A.A.F.Z.F.H.^.^.I $ 9 2 8 8 8 8 2 1 2 4 e 1 1 1 e e > I /.F.b.0.9.6.1.} AXFXSXSXSXSXSXSXSXFXSX",
"AXZXAXAXAXZXAXAXAXAXAX>.[ z.b.#.A.A.A.A.A.F.~.~.#XR + $ : 8 8 8 7 2 2 4 4 4 1 y u < e @ k ~.F.b.0.q.4.[ _ SXAXSXSXSXSXSXSXSXSXSX",
"ZXZXZXZXZXZXZXZXZXAXZX{ ' u.c.Z.#.Z.Z.A.F.H.F.~.^.q.O O 2 2 8 8 8 2 4 2 1 e 1 u u < p 9 I ~.B.b.q.9.o.' _ AXAXAXAXAXSXAXAXSXSXSX",
"ZXZXZXZXZXZXVXVXVXVXZXP W O.9.w.@.#.Z.Z.F.H.~.H.^.w.$ + 3 4 7 7 8 1 4 , 1 4 1 u u u 0 j I W.G.v.0.3...' _ AXAXAXAXAXAXAXAXAXSXSX",
"ZXZXVXVXVXVXVXVXVXVXVXt.b ..O.X.w.w.v.c.G.H.H.F.F.~.I O 3 , 7 6 1 8 1 7 1 7 u u u p p j U W.W.w.9.3.] ( _ ZXAXAXAXAXAXAXZXAXAXAX",
"NXVXNXVXbXVXVXbXVXVXVXk.c W 2.O.5.9.+.z.N.F.F.F.F.^.U O @ , 7 6 1 7 1 7 1 u u p p p j j Y R.F.w.q. .] W D ZXZXZXZXZXVXAXAXZXZXAX",
"VXNXNXVXVXVXbXVXVXbXbXeXZ m _ 2.o.O.O.9.N.B.F.F.e.~.q.$ @ > q < < 7 7 7 7 7 p a p p z k ^ W.q.q.3.^ ^ D D ZXVXZXVXVXZXVXZXZXZXZX",
"NXNXVXbXbXbXVXbXbXVXbXbXr.V A ' [ o.o.5.q.F.F.F.e.~.e.$ @ 4 1 < < 1 6 6 6 i i p p j z ~ 8./.q.q. .^ Q ~ ZXZXZXVXVXZXVXVXZXZXZXZX",
"NXNXbXbXNXbXNXbXbXbXbXbXeXc Z A ~ ) ..4.6.z.N.B.F.w././ 9 2 + < < 1 y y 6 y a p z z j E.E.M.8. .^ ' ~ _ VXVXVXVXVXVXVXNXVXVXVXVX",
"bXNXbXbXbXbXbXbXvXvXbXbXMX>.B Z D W Q 1.6.q.q.v.N.w.^.q.f 0 3 u < 1 q ; ; ; a l l p :.1XE.8.1.^ ^ ` _ H NXNXNXNXVXNXVXNXVXVXVXVX",
"MXMXNXMXvXvXMXMXvXvXcXMXMXwXB B S C C Q 1.2.q.M.N.N.R.W.^ @ w 2 % q y y ; a i y s p E.1XE.2.^ Q ~ ~ _ NXNXNXNXNXNXNXNXNXmXVXVXmX",
"MXMXMXMXvXvXvXvXvXvXvXMXMXMXd.x Z A D A ~ ' 1.6.u.N.q.Q.W.k h w e - - i i ; i N j z 1X3X8.^ ^ E ~ _ G NXNXNXNXNXNXNXNXNXmXvXVXVX",
"MXMXcXvXcXvXcXvXnXnXnXnXcXcXsXK V S L Z S H ~ ' 4.i.7.R.R.8.h w j p i a a a a s q !.lXi.~ ^ ~ ~ _ P NXNXmXmXNXmXmXmXmXmXmXVXvXVX",
"cXcXcXcXcXcXcXcXcXcXcXcXcXnXcXk.Z c S G S G D D ` [ 6.7.M.R.1.h t s s s l l l a r.lX(.C ~ ` C H H L nXnXmXnXmXnXmXmXNXmXmXmXvXvX",
"cXcXcXcXcXMXcXxXcXcXxXcXcXcXcXcXt.B Z F F K F S A E Q ..q.i.`.8.C s p N l ; F g.kX<.E ~ E S ~ :.H nXnXnXnXnXnXnXmXmXnXnXvXvXvXvX",
"xXcXxXcXxXxXxXMXcXxXcXcXcXcXcXxXcX-.B F F K F G H D n Q ^ :.1.E.g.,.D Z -.<.k.>X~ S E C ~ _ ~ H :.nXnXnXnXnXnXnXnXmXnXvXcXvXcXcX",
"xXxXcXxXxXxXxXxXxXcXxXxXxXxXxXxXcXcXP B K =.F =.H H S S H S D J { ,.<.r.r.>.P Z H L P H J Z Z c cXcXcXcXcXcXcXcXcXcXcXcXnXcXcXcX",
"xXxXxXxXxXxXxXxXxXxXxXxXxXxXxXxXxXxXwXP B B F -.F =.H =.H G G G D A A A S S S S G V b c b Z S A _ cXxXxXcXxXxXcXcXcXcXcXcXcXcXcX",
"xXxXxXxXxXxXxXxXxXxXxXxXxXxXxXxXxXjXjXjXd.B B F H =.H C D L D D A D D C C j g g & j E 1.i.Q.Q.@X`.(.cXxXxXxXjXcXxXcXxXcXxXcXxXxX",
"9XxXxXxXxXhXxXhXxXhXxXxXxXxX9XxXjXjXjXjXxXxX-.F V F H C v g t g g g t w t n W [ i.E.@X2X%X|.|..XE.]._._.(.].cXcXxXcXxXxXxXcXxXxX",
"xXxXhXxXhXxXhXxXjXjXjXjX9XjXjXjXjXhXjXjXjXjXjXjX:.-.t t b W E E  .3.M.E.)._.].]._.].].$X$X[.).L.C.(.u.V.).).jXjXxXxXxXxXxXxXxXfX",
"xX9XxXxXxXhXxXxXhXhXhXjXhXhXjXhXjXjXjXhXhXjXhXhXhX,Xm ( p.`.`.@X~.[.[.).L.L.(.).yXyXiXiXaXaXyXyXV.= ) [.).(.y.jXjXjXxXxXxXjXjXjX",
"9X9XxXhX9XhXhXhXhXhXhXhXjXhXhXhXhXhXhXhXhXhXhXhXhXeXJ { i.i.V.C.S.m.m.C.C..X:XiXiXdXdXdXtXsXsXdXM   ) .XM.V.y.jXjXjXhXjXjXjXjXjX",
"9XxX9X9XhXhXhXhXhXhXhXhX9XhX9XhXhXhXhXhXhXhXhXhXhXeXb m } u.n.m.C.S.S.P.C.P.).].:XqXyXpXzXzXsXrXJ % * y.u.] ( jXjXgXjXhXjXjXhXhX",
"9X9X9X9XhXhX9XhXhXhXhX9X9XhX9X6XgXgX9XgXgX9XhX9X9X4Xx * v T %.%.&.n.n.&.m.m.B.V.C.V.(.1Xl.;.4XtXK X % A W D A 9XgXhXjXgXjXhXjXhX",
"9XxX9X9X9X9X9X9X9X9X9X9X9X9X9XhX9X9X9X9X9X9X9X9X9Xl.J x * = T o.%.%.&.z.m.V.x.N.B.).E.(.J B '.0X-.x x V m 8XxXxXhXhXhXgXgXhXhXhX",
"9X9X9X9X9X9X9X9X9X9X9X9X9X9X9X9X9X9X6XgX9X6XhX9X6Xl.J m v % = = M ) }  .6.9.0.x.M.M.V.p.v { tXtXt.K Z x hX9X9X9XgXgXgXgXgXhXgXgX",
"9X9X9X8X9X9X8X8X6X9X9X6X6X9X6X6X6X9X6X6X6X6X6X6X6Xl.J M ) v = & * v m M Q ] ..6.u.u.i.J % a.qXrX4Xh.h.K K 9X9X9XgXgXgXgXgXgXgXgX",
"8X8X8X8X8X8X8X8X8X8X6X6X6X6X6X6X8X8X5X7X9X9X6X5X6X<X{ m ) ) | ) [ >.J m b v n M J M * . x 0XrX0X5XwXwXk.c 6X8X8X5XgXgX6XgXgXgXgX",
"8X8X8X7X8X8X8X8X8X7X7X6X6X5X6X6X7X7X7X9X5X5X6X5X6Xl.{ M ( ] %.u.'.<XqX0Xk.r.{ J m x X X t.0X0Xl.4X4X4X4Xt.t.8X8X6X6X6XgXgXgX5XgX",
"7X7X7X7X7X8X7X8X6X7X6X6X6X5X6X6X7X7X7X7X7X5X5X5X7Xj.J M )  . .u.'.'.l.'.0X0X4X0Xh.l.s.l.rX4X0X0X0X0X4Xj.a.$.6X6X5XgX5XgX5XgX5XgX",
"8X8X7X7X8X7X7X7X7X7X5X5X5X5X6X5X7X7X7X7X7X5X5X5X7X5X6X7X5X5X5X5X5X5X5X5X5X5X5X5X5X5X5X5X5X7X6X5X5X5X5X6X5X6X5X6X5X5X6X5X5X5XgX5X"
};
