/* XPM */
static char *f60a8e5d60c74bf1c4b5ed9bd61b795fnlHjYtFXNeok2c6i[] = {
/* columns rows colors chars-per-pixel */
"64 64 82 1 ",
"  c #2F2F30",
". c #3E3E40",
"X c #434343",
"o c #4C4B4C",
"O c #4E5052",
"+ c #525353",
"@ c #575959",
"# c #5B5B5C",
"$ c #5F5E62",
"% c #5E6062",
"& c #636365",
"* c #656669",
"= c #6A6B6D",
"- c #6E6E71",
"; c #6F7172",
": c #727375",
"> c #75767A",
", c #77787B",
"< c #7A7B7D",
"1 c #836E6C",
"2 c #7D7E82",
"3 c #7F8083",
"4 c #828385",
"5 c #8C8485",
"6 c #85868A",
"7 c #87888B",
"8 c #8A8B8D",
"9 c #8D8D91",
"0 c #908F95",
"q c #8F9093",
"w c #929295",
"e c #9D9497",
"r c #94959A",
"t c #98979A",
"y c #97989C",
"u c #9A9A9D",
"i c #AB908F",
"p c #A69291",
"a c #A19C9E",
"s c #9D9DA2",
"d c #A19EA1",
"f c #9FA0A4",
"g c #A2A2A6",
"h c #A4A5AA",
"j c #A7A8AC",
"k c #A9AAAE",
"l c #ACADB2",
"z c #B0AFB4",
"x c #AFB0B4",
"c c #B1B2B6",
"v c #BAB4B7",
"b c #B4B5BA",
"n c #BAB6BA",
"m c #B7B8BC",
"M c #B9BABE",
"N c #C4BBBE",
"B c #C8BCBF",
"V c #BCBDC1",
"C c #C4BFC2",
"Z c #C8BEC1",
"A c #BFC0C4",
"S c #C1C2C6",
"D c #C8C4C7",
"F c #C4C5CA",
"G c #C9C7CA",
"H c #C7C8CD",
"J c #CACACE",
"K c #CCCDD2",
"L c #D0CFD4",
"P c #CFD0D5",
"I c #D1D1D6",
"U c #D4D5DA",
"Y c #D7D8DD",
"T c #D9D9DF",
"R c #DDDDE3",
"E c #DFE0E6",
"W c #E1E2E7",
"Q c #E4E5EB",
"! c #E6E9EE",
"~ c #EBEDF2",
"^ c #EDF0F6",
"/ c #EFF1F8",
/* pixels */
"<qglhVVR~~^~/~HCBBBNNnckkkgaauw4;<quuuuggggggggjkg8888888wwtuuak",
">9skVjlU~~~~^!HCDZBBCNvckkkkauw<;5uuugggggjjgggguq888888888wwtuu",
":8sjlVVT!!~~~~QUDCCBBNvcvkkkjt8;<wuugggggkckkkatw8884445484888wt",
":7sjfVVUEQQQQQ~~WRJCNNvvccckja8;8tugggggkccccguttw8858843<<<3388",
":8sjVlVVRRRRRRKRRWWYDCccvcccka3<3fggggjjcmcccuuutqq8553<<;<3888w",
":8skhVVVKURRRRKFGDJIIIAcckccka<<ufggjjjkACVMkgautwwq85<;;38ytuuu",
":7fkVjVVHPIPPPHHGGSMcMAAnckkga<3fggjjkkkASCMkggauutq8<<<8uuuugjg",
":7flhVVVHKPKKPCCSDDDCcgcCMnckt<5ujgjkkkcCSSMkjggautw4<<wuuugggjk",
":8slccmAVHKKKKVVAASSSScccVMmca<8fgjjjllxAAAAxkjgggyq33wyuggjjkgu",
":9skccmbsVVAKHVbMMAAACmAxMMncd<9fjjjjllbHHHAcxkjjgu8,quggggkguw8",
":9flccbb0sfVKHxxmmvMMMvAMcVMcg39fjjlllxbKAHAcckkjgy37yggggkguq44",
">8slxbbb020bPHkhkkccckmMAvVMvg3qgjklkxxmKKKAmccxkjw3wfggkkkgw84u",
":9slxbbx4:5wPFrragjkjkccVMAMbg4qhjlllxbmAIPAbccckj83ugjjkkkgw3ug",
":9slxxmb<&%7KA3;<58wtggcMMVAbh4qhkklxxxmKPUAMcxxcj88fgjjkkkg8qgk",
"23slcbmc<oo<KS&+o@&;5qakmAAAmh6qhkxlxxxMKPKAVMmckg8qgkkkkccg4ukk",
"29slccmc4@owIS-oXo@;3qgkcVVAmj6qhklxxxbMKIIAkMVmcj8wgkkkkccj4ukk",
"-3flVlVl984bLKg8#+=<6rglbVAAMk4whllxxxxVKPUAhbxjAkugjjkxxccg7fkx",
"20fllVVl9pivKJcj4+>7wsjcmAAAmk6rhlxxxbxbKPPHlmxhmjccxkgkccmg8gkx",
"-3hllVVl9e0lIKbct@<wshxcMAAAMk7whlxxxbxVlxHPmAAxMkcmcjykcbbj3gxc",
"22flllVl8suVLKccg%3uhlbMAASSMk8rjlxxxxxVl3mPmHAmJMmmcfqkccmjyjcc",
"23fhxxVx0fsxUAqxj*6slbmVAAASVl7rjxxxxbbbf23UAAPmJSmmMkqkcbmk3jcc",
"23flVlVx3syVPHfll-8jxmVVAASSVk7wjxbxxxbV323PAAPAJSmMAcwkbbmkyxcc",
"23hlxbVb3rrxPHlql*2slbbVAAAAVk7rhxxxbbbVf%3HAAAmSSmMAcqkbmMk3jcm",
"2shlbxVVVVlAPPxql=2glbVVAAAAMl7rlxxbxbbVf3xPAAUhwSmMMcwkcmAcukcc",
"3fhxlVllVFHKKKb0j-2hjVVVVVVHVk8rhxxbbxbmh3APAAPblAmVfh3lcmVk3kmb",
"hhlxVh2$220shVx3j:3fhVVVVVKVVl8rhxxbbbbVjfAUAAAAPAmVlb3xmMMkflbb",
"hhllr$.. ..O*fl0j-3hVVVVVHVHVl7rlxbxbbbVj3mPmUAAHFmVAbfxbmMk3kbb",
"hll2X.   ..$yVhjj22hjlVVVVHVVl70hbxbbbbmx3mA3AUAHFmmAb3xbmMxsjbb",
"xf2      .22VVf0k:3hVVVVAHAFVl7slxbxxbbmAAAKlVKVPFmmAb3mmmMxyxmm",
"22.     @rV0VVV3l:2hlxVVVAHAVl7rhxxxbbbfhxAKmFKAHFmmAb3AbmMk3mcm",
"32222$O23Vl3sAV0x;6jxVVVAHHFVl7rllxbls2OX@3h3FPAFFVVFb3lbmVl3kbm",
"mlff3shVrVf00VV3c;2slVVVVVVAVl7rlxxls2O.O%33333x3VA3fjjxbcblfkbb",
"VMbcbmAAuwsgtScqx;6hxbMASASSAk7rhxx2$..233s333shy2$$2rhxh2$=rxVx",
"AAAAAAAJc3cktSmqx>3fxmMVAAFAMx7rlxl0222sbhllhlVVf2O2fllr$.O3hxxV",
"AAbjkMKAM3MktSm8x:6hxbMVASFFVl7rhlbmbbbbbbxlllxVVr20ll3O.$874737",
"AAs3qhAJmrmkySm9x:3fxmMMVAAAMl6rllmFFFFFFVFVVVVVVV3slxs>%rhr5378",
"AAs48gAKkuwgtSc8k>3hxmmVASSSMl7rlxmHFHFVVVVVVVVVVlrslVly6fzjdjjj",
"JAy=OyAAgc8wtSc9j:3gxbmVVSSSVl7rhxmKHHFbmbbbbbllkf0sjlVf9hz612:2",
"SSy,;fJAcAf<ySb8k:3hxbmVVASSAx7rllbHHHVFFFHPFHFmkf0fllVf9hlhssdd",
"ASy43hAAVSc3lSb8j:3fxbmVVSSSAx8rhlbHHHhlFlxVhVmxVlyhlVls9hlzzlVV",
"SSw34sAAVAS6kSb8k:3hxmmMVAAAAx8qllbHHFfsm0fb0xhrxrrfllVh7fllVjlV",
"SSy44uJAVSAwuSb8l:3glcMMVAAFAc8rhlbHHHffVrhbsxlsVsshlllf9hljjVVl",
"SSy<,sAAASArjSc9l:3gxbmMVAFAAc7qhlmHFFflHxmHbVflVVrhlxVs7flVVVll",
"ASw<<gAJVAArxVc8x:3glcbMVAAFAc7rhlbHFFfbHmmHbV3lVxrflxxh9hly6000",
"AAw<;yAScAbwhAc8l:2hlcmVmVAAAx7qhlbFFFfxHbmHbb2sVV0fhxVh2hx2222*",
"ASy,<ySAwmj8qAb8l:2flcbbVVAAAx8qhlbFFFfbHbbFxb23VVrflllf0hlhshhh",
"ASy<<uSS7fuyqAc8l:2flxbVMVAAAx6qhlbFFFffxxbFlb202xrfllVh2hllllll",
"ASw<<sAAf3ff9Ac7l:2flxbbMAAAVx6qhlbFFFf22lbFxb3hsVrfhllh2hllllxx",
"VAjqtcAAc<xj8Ac8l;3flxbVbVVVVl6qfkcFSSsssVVChV2jVV0shVhs6sjlllll",
"VAAVAAAAc4cjqAc7l;<flxbmVVVVVl6qhlcFSSslVlVVjV2hVV0shhls7fhlllll",
"MAAAAAAAc8uj8Ac8k;<flxbmbVVVVl3qhkcVSSslVVzVlV6jVl0sjVVs6sjjljll",
"VAAAAAAAju3w8Mc4k;<fjxcbbmVVMl6qhkbASSslVsVVjh2hVV0shhhs6sjljlll",
"MAAVAVAVucw<8Vc4k=>fjxccbmmAMk6qsjVVVVslV2sVjjrhVV0shjjs2fhhjjll",
"mAVAAVAAcMg;uVc4k;,fjxcmbmMAMk39hjlVCVslVshVhVVjVf0yhjls2fhljlhl",
"MAVAVVAMcmc;kMc4k;,fjxccbmMAmk49fhlVVVslVkjkrrfhhh20hljr2hhhhhlh",
"mVAVVVVMcckwkmgwk;,fjlccbbMMml48ffVVVVssds9790hjhh00fjVr2shhllhl",
"MMMAMAMAcjkkkkggj;,uklccbbMMmk28fjVVVVs600000rhVblr2hhlf2rhhhhll",
"MAMAAMAMkua88ku3j-,sklxcbcMMmk29fjhVVVh0s0sfshlVbxs2shlh20hhhhhh",
"mMMMMMMMcccg3kk3h;<fjllccbmMbj29fhVVVVhshhhlhhxxbbh2rhllr2fhhhhl",
"MMMMMAAMMmMj<4k3h-,ujkxccbmMbj28shhVVVxhlxxbVVVVbbb22flxh2rhhhhh",
"mMMMMMMMMmMg83w3g-,ujklcccbnbh28shlVVVVbbVVVVmVbmbbf2shxls2shhhh",
"mmmMMMMMMMMk8u<5g=<sgklcccmnbh<8shjVVVVVFVFVFFVVVVmlr2shbb20sfhh",
"cmMmMMMMmmMg4c;uh*<ugjkllxcbbg26shjVFVFFFVVFFVVVVVVmx22flbh22shh",
"cmmmmMMMmcma8k<uh&,ujkclxccbch26shhbFFFCFFFVFFFFVVVVmx02rlbl02rf"
};
