/* XPM */
static char *_3e9b81bcaa34940ca979011c7f4d7b1w2kfgXUYuYOr65k7[] = {
/* columns rows colors chars-per-pixel */
"64 64 55 1 ",
"  c #B6D2EF",
". c #BAD4EF",
"X c #B7D3F0",
"o c #BCD6F0",
"O c #BFD8F1",
"+ c #C1D7F1",
"@ c #C4DAF1",
"# c #CADEF3",
"$ c #CDE1F5",
"% c #D3E4F6",
"& c #D9E6F5",
"* c #DDE9F6",
"= c #D6E5F8",
"- c #D9E7F8",
"; c #D7E8F8",
": c #DDEAF9",
"> c #E1ECF7",
", c #E3EEFA",
"< c #E6F1FB",
"1 c #E9F1FB",
"2 c #EBF3FA",
"3 c #EBF2FB",
"4 c #EBF4FB",
"5 c #EDF4FB",
"6 c #EFF5FB",
"7 c #E8F1FC",
"8 c #E8F2FC",
"9 c #E8F3FC",
"0 c #ECF2FC",
"q c #ECF3FC",
"w c #EBF4FC",
"e c #EEF5FD",
"r c #EFF7FC",
"t c #F1F5FB",
"y c #F0F7FB",
"u c #F3F7FB",
"i c #F1F5FC",
"p c #F1F6FC",
"a c #F4F7FD",
"s c #F2F8FB",
"d c #F2F8FD",
"f c #F6F9FD",
"g c #F5FAFC",
"h c #F7FBFC",
"j c #F7F9FE",
"k c #F6FBFE",
"l c #F7FBFF",
"z c #FBFBFB",
"x c #FBFCFB",
"c c #F8FBFD",
"v c #FBFEFD",
"b c #FBFEFF",
"n c gray99",
"m c #FCFCFE",
"M c #FEFEFE",
/* pixels */
"MMMMMMMMMMMMMMMMMMMMMMMMMMMMMMMMMMMMMMMMMMMMMMMMMMMMMMMMMMMMMMMM",
"MMMMMMMzMMMMMMMMMMMMMMMMMMMMMMMMMMMMMMMMMMMMMMMMMMMMMMMMMMMMMMMM",
"MMMMMMMMMMMMMMMMMMMMMMMMMMMMMMMMMMMMMMMMMMMMMMMMMMMMMMMMMMMMMMMM",
"MMMMMMMMMMMMMMMMMMMMMMMMMMMMMMMMMMMMMMMMMMMMMMMMMMMMMMMMMMMMMMMM",
"MMMMMMMzMMMMMMMMMMMMMMMMMMMMMMMMMMMMMMMMMMMMMMMMMMMMMMMMMMMMMMMM",
"MMMMMMMMMMMMMMMMMMMMMMMMMMMMMMMMMMMMMMMMMMMMMMMMMMMMMMMMMMMMMMMM",
"MMMMMMMMMMMMMMMMMMMMMMMMMMMMMMMMMMMMMMMMMMMMMMMMMMMMMMMMMMMMMMMM",
"MMMMMMMMMMMMMMMMMMMMMMMMMMMMMMMMMMMMMMMMMMMMMMMMMMMMMMMMMMMMMMMM",
"MMMMMMMbMMMMMMMMMMMMMMMMMMMMMMMMMMMMMMMMMMMMMMMMMMMMMMMMMMMMMMMM",
"MMMxMMMMMMMMMMMMMMMMMMMMMMMMMMMMMMMMMMMMMMMMMMMMMMMMMMMMMMMMMMMM",
"bMMbbMMMMMMMMMMMMMMMMMMMMMMMMMMMMMMMMMMMMMMMMMMMMMMMMMMMMMMMMMMM",
"xbbxxbMxMMMMMMMMMMMMMMMMMMMMMMMMMMMMMMMMMMMMMMMMMMMMMMMMMMMMMMMM",
"bhMbbbxxMMMMMMMMMMMMMMMMMMMMMMMMMMMMMMMMMMMMMMMMMMMMMMMMMMMMMMMM",
"bbhbbMbbMMMMMMMMMMMMMMMMMMMMMMMMMMMMMMMMMMMMMMMMMMMMMMMMMMMMMMMM",
"cbMhbbMbbMMMMMMMMMMMMMMMMMMMMMMMMMMMMMMMMMMMMMMMMMMMMMMMMMMMMMMM",
"bbbMbbbbbMMMMMMMMMMMMMMMMMMMMMMMMMMMMMMMMMMMMMMMMMMMMMMMMMMMMMMM",
"bbbMbbbMbbMMMMMMMMMMMMMMMMMMMMMMMMMMMMMMMMMMMMMMMMMMMMMMMMMMMMMM",
"bbbMbMbMMMMbbMMMMMMMMMMMMMMMMMMMMMMMMMMMMMMMMMMMMMMMMMMMMMMMMMMM",
"bbbMMbbMMbMbMMMMMMMMMMMMMMMMMMMMMMMMMMMMMMMMMMMMMMMMMMMMMMMMMMMM",
"cMbcbbMbMbbbMbbMMMMMMMMMMMMMMMMMMMMMMMMMMMMMMMMMMMMMMMMMMMMMMMMM",
"cMbbbbbbbbbbbbMbMbbbMMMMMMMMMMMMMMMMMMMMMMMMMMMMMMMMMMMMMMMMMMMM",
"ccccbbbbbbbbMMbbbbMMMMMMMMMMMMMMMMMMMMMMMMMMMMMMMMMMMMMMMMMMMMMM",
"cccbhbbbbbbbbbbMbMMbMbMMMMMMMMMMMMMMMbMMMMMMMMMMMMMMMMMMMMMMMMMM",
"cchbhbccbcbbbbMmbbcbbbbbMbMMbMbbbbbMMbbbbbbMbbbbMbbbMbbbbMbbMMMM",
"cahhhhhhbdbhcccmcmcmmcmjmcmMbbMMbMbMbbbMbMbbbMbMMbbbbbbMbMbMMMcm",
"cchahhhhhhbhhhmcccmccmcmmmbMbbbbbbbbbMbbbbbMbbbMbbMbMMbbbbbbbhzm",
"ddpchhhhhhhhhhhhcccccccccchcbbhbbbbbbbbbbbbbbbhbbbbbbbbbbbbbbhnz",
"dddpdddpddddphhhaahaajacjccchbhMhbhhhhhhhhhbhbhhbkkbkkkkhbhhzMcz",
"drpppphpdhdddhdcachphdcaacaccchahhkkhhahhhhhbhhhhhhhhhhkhhhhhcac",
"pppepppprdppddpppphpddapaaaaaahuthssphhpdhphhahhhahahhhdhphhhhhh",
"rreerreerretrrrrpprpdpprpaiapsuussssssppptpaphaarhpdhdphdphhphhh",
"r88p8p8rreeerreereeprpreiiiittttysyytrprpppprrparddddddddddddpph",
"444444444664443400t000terr66r6r66rr6rppr6reepreeppeprprrprprpddd",
"9w<9<4<<<3<64443000000q8<846<6r63r66q8w66qqretrreeererrrrrrerddd",
"99<<<4<<<<<34<6<333303338q3486<4q444wwwreqee3446448er8rrreerrprr",
"<<<<<<<<<<<,<<<<,,3,3,,333,<33<<3<3<3448e8883w8ww3e8r88r8r8e88rr",
"*,,,<,,,,<,,<<<>,,,,,,,3,,,3<<<<<<<<<3<<8888888888<w<w<9,e88r8e8",
"<,,*>,:,,:*:>>>>>,>,,,,,,,,3<<<<<<<<<<<<,7888888<w9999w<3887<888",
"::::::::,:::>>**&>>,>>>>>>,,<,,,,,<,,<,,,78,,8,,,,9,,,,,,8,73388",
"::>>:,:**:>:****>>>>>>*>>>>,,<:<,,:,,,,,,,,,,,,,,,,,,,9,,,,,,,,8",
":::*:**:*:=;****&*&&&******>>>:::::,:,,:,,,,>>,,:,:,,,,:,,,:,,,,",
":::;;;*;*****&&&&*&&**&&&***>>:::,::::::::::>>>::,:::::,:::,,>>,",
";:;;*%;;%*%*&&&&&&&&&&&&&&****::-*::*:-:-:::>-:::::::::::::::>>>",
";;;;&*%*&%*%%&%&&&&&&&&&%%*&*;;*-;=:---*-----:-:::-:::-::::::>->",
";;$;%;&%*%%*%&%&&&$&&&&#&$&&&&&&-====-;---=-----:::=---------->-",
"$%;%%%%%%%%%%%%%%$&&#&&&&$&$$&$&%=%===%=-%========-==-----:-=:--",
"%%%%%%%%%%%%%%%%%$&$%%#&$&$$$%*$%$%%%%%%%%%=============---==---",
"%%%$%$%%%$%$%$%$%%$&#%%#$&$&$$#%$%%$$%$%%%#%%%%%====%========-%-",
"%$$$$$$$%$$$$$$$$$$$$$#$$$$$#$$%$$$$%$$$$$%$$&%&%==%=%%%%%%=%%%%",
"$$$$$$$$$$$$$$$$$$$$$$$$$########$$$$$$$$#%$$$$$%#%#$%%$%%%%%%%%",
"$$$$$$$$$$$$$$$$$$$$$$$$###$#####$$##$#$$#$$$#$%%%#%#%#%%%%%%$$%",
"$$+$O$$O$$$@#$@$####$$@$################$####$$###%#%#%%#$$$$$$$",
"+$@$@$$$$O$$##########@$###@@#@#@######@############%####%#%$$$$",
"@@$$$@O$$$OOO##O@#@@@#@#@#@@@@@@@@@@@$@##@#@O$################$#",
"@$+@O@$$OOO$O#O#@@#@@@@@@@@@@@@@@@@@@@@@@@@@@$$@@@@#+##########@",
"@@@@@@OO@OO#OOOOO@O@O@@@@@+@@++@++@++O@@@@@@@@+@@@@@@#@@+#+##@#@",
"O@OO@@@O@@O@OO@O@OO@OO@O+++++.++++++++++++O@++@@+@+++++++##+###+",
"O@OOO@OOOOOOOOOOOOOOOOOO.++.+++++++.+..+++OOOO.@+@++@++++++@++#+",
"OOOOOOOOOOOoOoOoO..OOOOO+..+.......+.+..+.+.OOO++o++++++++++++++",
"OOoOoOoo..Oo.oooO..........................o.....+o+++++++++++++",
"ooooOooOoO..oo..............        .......X......+.++ +++++++++",
"oooXXXoXo....... .. . . ..          .. . . .. ...... + +X+X+++++",
"XoXXoXXoo XXXX  .  .                      .    . ...+ XX XXXX+X+",
"XXoXXXXXXXXXXXXX                              .    . XX +XXXXXXX"
};
