/* XPM */
static char *_7c66afdcd0d4be3f78fd179e9c24f784FDLZ84Yo6cbg84w[] = {
/* columns rows colors chars-per-pixel */
"64 64 138 2 ",
"   c #391D05",
".  c #361F09",
"X  c #381F09",
"o  c #3E2207",
"O  c #3C220C",
"+  c #432206",
"@  c #43260D",
"#  c #492609",
"$  c #46280F",
"%  c #4B2A0D",
"&  c #532E0E",
"*  c #56300F",
"=  c #5C320D",
"-  c #422710",
";  c #452A12",
":  c #4B2D13",
">  c #522F11",
",  c #4F3117",
"<  c #47301A",
"1  c #4D331D",
"2  c #523115",
"3  c #5C3311",
"4  c #53351A",
"5  c #5A371A",
"6  c #5C3B1E",
"7  c #64360E",
"8  c #623611",
"9  c #663913",
"0  c #6B3B14",
"q  c #6F3F18",
"w  c #723E15",
"e  c #533720",
"r  c #533923",
"t  c #5B3E25",
"y  c #563E28",
"u  c #613F21",
"i  c #744116",
"p  c #7C4416",
"a  c #7C4519",
"s  c #55402B",
"d  c #5B432D",
"f  c #624225",
"g  c #65452A",
"h  c #694729",
"j  c #67482B",
"k  c #6A4A2C",
"l  c #624A35",
"z  c #6F4F32",
"x  c #634E3A",
"c  c #715134",
"v  c #6B5644",
"b  c #745E4C",
"n  c #746454",
"m  c #7D6B5B",
"M  c #814617",
"N  c #824718",
"B  c #854A19",
"V  c #8C4D1A",
"C  c #924E1B",
"Z  c #8F501B",
"A  c #94521B",
"S  c #9B551C",
"D  c #A1571D",
"F  c #A4591E",
"G  c #AB5C1F",
"H  c #B25F1F",
"J  c #955420",
"K  c #AE5D20",
"L  c #B25E20",
"P  c #B26020",
"I  c #B56020",
"U  c #B66121",
"Y  c #B76221",
"T  c #B86221",
"R  c #B96221",
"E  c #BA6221",
"W  c #BB6322",
"Q  c #BC6321",
"!  c #BD6321",
"~  c #BD6322",
"^  c #BB6421",
"/  c #BC6421",
"(  c #BD6421",
")  c #BF6521",
"_  c #BD6422",
"`  c #BE6422",
"'  c #BB6828",
"]  c #C16623",
"[  c #C56924",
"{  c #CB6C24",
"}  c #C66D28",
"|  c #CA6F29",
" . c #D16F25",
".. c #CC7129",
"X. c #D57126",
"o. c #D97226",
"O. c #D3742A",
"+. c #857769",
"@. c #938273",
"#. c #938678",
"$. c #978A7D",
"%. c #9F9184",
"&. c #A49487",
"*. c #A3988C",
"=. c #AAA298",
"-. c #C2BBB2",
";. c #CAC2B8",
":. c #B6CFED",
">. c #B6D0ED",
",. c #BBD3EE",
"<. c #BFD4F0",
"1. c #CEC9C2",
"2. c #E5E1DC",
"3. c #C1D6EF",
"4. c #C5D9EF",
"5. c #C2D7F0",
"6. c #C5D9F0",
"7. c #CADDF2",
"8. c #D1DFF2",
"9. c #CEE1F3",
"0. c #D3E3F5",
"q. c #D9E6F6",
"w. c #DDE9F7",
"e. c #DAE7F8",
"r. c #DEEAF8",
"t. c #E1EAF7",
"y. c #E3EDF9",
"u. c #E6F1F9",
"i. c #ECF3FB",
"p. c #F1F6FB",
"a. c #F5F9FC",
"s. c #FBFBFB",
"d. c #F9FEFB",
"f. c #F9FAFF",
"g. c #FAFBFE",
"h. c #FBFFFF",
"j. c #FEFEFE",
"k. c #FEFFFE",
/* pixels */
"j.j.j.j.j.j.j.s.j.j.j.j.j.j.j.j.j.j.j.j.j.j.j.j.j.j.j.j.j.j.j.j.j.j.j.j.j.j.j.j.j.j.j.j.j.j.j.j.j.j.j.j.j.j.j.j.j.j.j.j.j.j.j.j.",
"j.j.j.j.j.j.j.s.j.j.j.j.j.j.j.j.j.j.j.j.j.j.j.j.j.j.j.j.j.j.j.j.j.j.j.j.j.j.j.j.j.j.j.j.j.j.j.j.j.j.j.j.j.j.j.j.j.j.j.j.j.j.j.j.",
"j.j.j.j.j.j.j.s.j.j.j.j.j.j.j.j.j.j.j.j.j.j.j.j.j.j.j.j.j.j.j.j.j.j.j.j.j.j.j.j.j.j.j.j.j.j.j.j.j.j.j.j.j.j.j.j.j.j.j.j.j.j.j.j.",
"j.j.j.j.j.j.j.s.j.j.j.j.j.j.j.j.j.j.j.j.j.j.j.j.j.j.j.j.j.j.j.j.j.j.j.j.j.j.j.j.j.j.j.j.j.j.j.j.j.j.j.j.j.j.j.j.j.j.j.j.j.j.j.j.",
"j.j.j.j.j.j.j.s.j.j.j.j.j.j.j.j.j.j.j.j.j.j.j.j.j.j.j.j.j.j.j.j.j.j.j.j.j.j.j.j.j.j.j.j.j.j.j.j.j.j.j.j.j.j.j.j.j.j.j.j.j.j.j.j.",
"j.j.j.j.j.j.j.s.j.j.j.j.j.j.j.j.j.j.j.j.j.j.j.j.j.j.j.j.j.j.j.j.j.j.j.j.j.j.j.j.j.j.j.j.j.j.j.j.j.j.j.j.j.j.j.j.j.j.j.j.j.j.j.j.",
"j.j.j.j.j.j.j.s.j.j.j.j.j.j.j.j.j.j.j.j.j.j.j.j.j.j.j.j.j.j.j.j.j.j.j.j.j.j.j.j.j.j.j.j.j.j.j.j.j.j.j.j.j.j.j.j.j.j.j.j.j.j.j.j.",
"j.j.j.j.j.j.j.s.j.j.j.j.j.j.j.j.j.j.j.j.j.j.j.j.j.j.n n n n n n j.j.j.j.j.j.j.j.j.j.j.j.j.j.j.j.j.j.j.j.j.j.j.j.j.j.j.j.j.j.j.j.",
"j.j.j.s.j.h.s.s.j.j.j.j.j.j.j.j.j.j.j.j.j.j.j.&.$.y # = 7 7 7 8 7 % ; @.j.j.j.j.j.j.j.j.j.j.j.j.j.j.j.j.j.j.j.j.j.j.j.j.j.j.j.j.",
"h.h.j.h.h.j.j.s.j.j.j.j.j.j.j.j.j.j.j.j.j.-.%.; # & i V A A S A A a & & > % & # : j.j.j.j.j.j.j.j.j.j.j.j.j.j.j.j.j.j.j.j.j.j.j.",
"h.f.h.d.h.f.h.h.j.j.j.j.j.j.j.j.j.j.O O O O O @ a C A A A A S A A A A A A A Z i O O O O j.j.j.j.j.j.j.j.j.j.j.j.j.j.j.j.j.j.j.j.",
"d.d.d.d.j.f.d.h.j.j.j.j.j.j.j.j.j.l ; = 3 9 3 9 B Z S D K S w 0 0 i V A A A Z B 8 8 9 3 3 @ v j.j.j.j.j.j.j.j.j.j.j.j.j.j.j.j.j.",
"f.f.f.j.d.d.d.d.h.j.j.j.j.j.j.-.s + 0 V Z A A A S S P / K N # X O $ i S S S S D A A A Z B 9 % @ j.j.j.j.j.j.j.j.j.j.j.j.j.j.j.j.",
"f.f.f.f.d.h.d.h.h.h.j.j.j.j.;.4 @ 0 V A A S S S U E / K V @ - : : O % G / / / L S S S S J A Z i @ j.j.j.j.j.j.j.j.j.j.j.j.j.j.h.",
"f.f.f.f.f.d.h.h.h.h.j.j.j.j.r @ q V A A K E E W ~ _ ] A @ @ 2 h t O # G ] ! ] W E U E E W F A Z i j.j.j.j.j.j.j.j.j.j.j.j.j.j.j.",
"d.d.h.f.d.h.d.h.h.h.j.j.j.d @ q Z A F P E / ] { _ ! / V O 2 : : 2 , % G ! / ~ ~ / / / _ / U F A B $ j.j.j.j.j.j.j.j.j.j.j.j.j.j.",
"d.f.h.d.h.d.h.h.h.h.h.h.l @ 0 V Z q 9 q C L ] [ _ ! _ D 0 % @ - ; ; # K ! ] ] ] ] ~ ] L L ] L D Z 9 @ j.j.j.j.j.j.j.j.j.j.j.j.j.",
"d.d.d.d.d.h.d.h.h.h.h.b   & B A B : . O i K ! ! ! ] _ U A @ @ @ @ @ % L ] ! L L L ~ ! ] ] ! ] H A B # *.j.j.j.j.j.j.j.j.j.j.j.j.",
"d.d.d.h.d.h.h.h.h.h.h.< & i Z B = @ O O % p H E / / _ ! K N % O X % V L L p 3 0 L L ] E ] ! ] H A V % d j.j.j.j.j.j.j.j.j.j.j.j.",
"f.f.d.f.d.d.h.d.h.h.y & p A V 3 @ : 6 f : % p E / _ E ! E K B a w C L L w % X @ 0 G ! L ] ! ] L G S 0 @ d j.j.j.j.j.j.j.j.j.j.j.",
"f.f.f.f.f.h.d.d.d.d.s w C S V @ % > t h 4 @ & U _ ! ] ] ] _ _ ! ] ] L N % - , 4 @ w K L U S V S K A V 0 @ j.j.j.j.j.j.j.j.j.j.j.",
"f.f.f.d.d.f.d.d.h.;.r i A F D @ > : @ - , : 2 U _ ~ [ { E ~ ! E ] ~ K # @ > u h % X C L V 3 . > V S A V 9 j.j.j.j.j.j.j.j.j.j.j.",
"p.f.f.f.f.d.f.f.h.e @ p S F G # @ - @ - @ @ = U _ E _ _ E ~ ] ! L ] K % > : - : > # C M + @ - - % A A A w x h.h.j.h.h.h.j.j.j.j.",
"f.a.a.a.a.a.f.f.d $ 0 V F U L V % X X O . 3 S ! _ _ ! ~ ~ _ / ] ] ~ L C > @ - - % B L w X : f g @ % B S w l d.d.h.h.j.f.d.h.s.s.",
"p.a.a.a.a.f.a.a.# w V A G / E H C V V V V S L ! E _ _ _ / ! ! / ] ~ L L C 2   % N E { M o @ 4 4 2 O p A q < d.d.h.h.d.h.f.f.f.s.",
"p.p.a.p.p.f.a.=.% C A S G E L U ! ] ] ! ~ ~ ] ~ / E E U E E E / L ] ] ] L 0 X & F { o.V O O O % 2 $ M S w O d.d.h.d.d.d.f.j.s.a.",
"p.p.p.p.p.p.p.=.% A A K L V & 3 S E E ! ! ~ ] E E K a > 7 D E ! ] ] L L L G D G { X.o.K V = X O % B G D B 9 d.d.f.f.f.d.a.s.s.p.",
"p.p.p.p.p.p.p.=.% V C K V > O @ 3 C L ! ! ! / ! E p % O @ 8 D E ~ ~ ] ] ] ! ! ] X.o.{ / H A N V V G / F A p 1 d.a.f.a.a.a.a.s.s.",
"p.p.p.i.p.p.p.p.% A A a 2 @ > e - 3 J { [ [ ! ! L 3 @ 2 4 - 0 D ~ ! L ] ! L ] ] { { _ ! / [ } [ ] / ! F A p : d.a.p.p.s.a.s.a.s.",
"p.u.i.i.p.p.p.p.% V A & @ : 5 h , . a O.O.| ] L V > % t j : X V ] ] ] ! ! ] / E E ~ / ] ] ..O. .! E / K S B % p.p.s.p.p.a.p.s.p.",
"u.i.i.i.i.i.i.i.# a Z & % 2 @ ; 2 - N O.O.O.| L & : 2 @ : 2 O V ] L ] ] ] L ] L E ~ / } ..O.| ' G K U / G A p p.p.p.i.p.p.s.p.p.",
"i.u.i.i.u.i.i.u.+ % B > O $ @ - ; X w ] | O. .L % O $ @ @ ; O V ] ] L ! ] ] ] ] ] / ! | o.O.A % % % C E H A V p.p.p.p.p.p.p.p.p.",
"u.u.u.u.i.u.u.u.d @ B 3 @ O @ O X # N ] [ O. .L 8 @ O @ @ @ % S ] ] ! ~ ] ] ~ ] _ ! E [ X.] p O < ; a F K A V i.i.i.p.p.p.p.p.p.",
"u.u.u.u.u.u.u.u.;., B B 9 @ @ ; @ M K ~ ] {  .L K = @ @ @ # C L [ { ~ ~ L ] ] L _ ! ~ { X.i @ t c z 2 i S A V i.i.i.i.i.i.p.p.i.",
"u.u.u.u.u.u.u.u.;.< V A S F D F K K L ] L {  .] L K D G K D L L _ ] ~ ~ ~ ~ ] ~ / ! / [ X.i O - , : 2 : 9 A B i.i.i.i.i.i.i.i.i.",
"u.u.u.t.u.u.y.y.;.< B A K / ] _ ~ [ { ! ! [  .{ { {  . .{ } ] ] ~ ~ ~ ~ ~ ~ ] L ! E } O.o.P i O O @ : O 3 B > i.i.u.i.u.u.i.i.i.",
"w.y.y.u.y.y.r.y.i., B A K ! E _ L { ] L ! [ O.O.{ { {  .O.O.[ ] _ _ ! _ { [ [ ] } } O.X.X.O.K w 9 @ O % w a ; u.u.u.u.u.u.i.u.i.",
"r.r.w.w.r.w.w.w.y.< B A D U W _ ] ~ ~ ] ! [ | { L E L ] | O.] L _ _ ~ E  .O.| [ O.O.{ O.X.O.} ! D 9 9 i A B 1 u.u.u.u.u.u.u.u.u.",
"w.w.w.w.w.w.w.w.w.< p V A D _ / ] L ! ! / ] / / ~ ] ] ! ]  .] ! ! _ ~ ~ ..o.o. .X.O.] } O.O.{ _ E E U F A B y.y.y.u.y.y.y.u.u.u.",
"r.w.w.w.w.w.w.w.q.% = a A F _ / ] ] ! ! L D N B K L ] { ] [ ] ! _ E K B V V D [ } | ] ] | | ] ! / / / F A p y.r.y.t.y.t.y.y.y.y.",
"w.w.q.q.w.q.q.q.q.b $ 3 B S P E ! ! E L S 9 . @ p D [ { E ! E / E K p @ . O > C L E ! ! / / / / / ! U D J p r.t.t.t.t.t.t.t.y.y.",
"q.q.q.q.q.q.q.q.q.q.c ; i A S / ! ! G S 8 + ; ; @ p K / E ! ! E K a @ @ : : - % C E / ! / / ! _ E U S A B q r.r.e.e.e.t.t.e.t.t.",
"q.q.q.q.q.q.0.0.0.0.2.v 8 A S U ! ! N @ @ : 6 k : @ M ! ! ] / ] B @ - 2 h c t @ & F ] E ! ! / / U S S V 0 @ e.e.e.e.e.e.e.t.t.t.",
"0.q.0.0.0.0.0.0.0.0.0.b = V S E ! ] M X : 2 : 4 2 @ p ] ! E ! ! p @ 2 : 4 4 4 : @ F _ ! ] / / L D A B 9 @ e.e.e.e.e.t.e.w.e.e.e.",
"0.0.9.0.0.0.0.0.0.0.0.b @ 0 A K L ] M . @ : @ @ : O p ] W E W ] S w % @ @ - @ > i L ] E ! / U D A V 8 @ e.0.e.0.0.e.e.e.e.q.q.q.",
"0.9.q.9.0.0.0.0.0.0.0.0.d > V A K L C 3 : O O @ @ & C E W ] ~ / ] F 3 @ @ - O & K ] / E / P D A V 0 ; x e.0.0.e.0.q.0.e.q.q.q.q.",
"9.9.9.0.0.9.9.9.0.9.9.0.#.% B A S L L D 8 . X X O M L ! ~ _ _ / / L A @ O - O & L  .[ ! / D A A p @ + 0.0.0.0.0.e.0.e.0.0.q.8.q.",
"0.9.9.9.9.9.0.9.9.9.9.9.0.+ 8 V C D K L C p p p p D U ] / ~ / ! ] E K w % O : M E [ ] ! / D A a 2 @ 0.0.0.0.0.0.0.0.0.0.0.0.0.8.",
"9.9.9.9.9.9.9.9.9.9.9.9.9.v O 6 B Z S P E / / / / / ] ' ! / ! E / / / G i 3 p P ^ ^ / U P S a 3 $ 0.8.0.0.0.0.9.0.0.0.0.0.0.0.0.",
"9.7.7.7.9.7.6.9.7.7.9.7.5.9.d O i a A A F E E ^ / ^ ! / ! ] / ] E / / ] ^ E / / ^ ^ E F A C i : b 8.8.7.7.9.9.9.9.9.9.0.9.9.8.7.",
"7.7.7.7.7.7.7.7.7.7.9.7.7.7.9.s o i V Z A A S ^ / E / / / / / / / / / / / / ^ ^ ^ E F A A B = x 7.9.8.7.7.9.9.9.9.0.9.0.0.0.8.7.",
"7.7.7.7.7.7.7.7.7.5.7.7.7.7.7.7.9.@ $ % i Z A S S U / ! / / / ! / ! / ^ ^ ] P S S S A Z B 3 o 9.7.7.8.7.9.9.4.9.7.9.7.7.7.7.7.8.",
"7.7.7.7.7.7.7.7.7.4.4.7.7.7.4.7.4.9.m O % 2 9 C A S F F F F D F D D F F F F S A A Z i & & + 7.7.7.7.7.7.7.7.4.9.7.7.7.7.7.7.7.7.",
"7.4.4.7.7.4.6.7.4.4.7.4.4.4.4.4.4.4.4.4.O O $ p Z A A A A A A A A A A A A Z A Z Z a : O + 4.7.4.7.7.7.7.6.7.7.7.7.7.7.8.7.7.7.7.",
"4.4.4.4.,.7.3.7.3.7.4.4.4.4.4.4.4.4.4.4.9.#.O : % i Z A A A A A A A A A A Z i % % $ <.4.4.4.4.4.6.6.6.6.6.7.7.7.7.4.7.4.7.7.6.7.",
"4.4.4.4.4.4.4.3.3.4.3.4.3.3.4.4.3.4.3.3.3.4.,.7.1 # 2 = = = = = = = = = = * # r 4.4.4.<.4.4.4.3.5.6.6.5.6.6.3.6.4.4.4.7.4.6.6.6.",
"5.5.5.5.5.5.5.5.,.3.3.3.,.3.3.3.3.3.,.3.,.3.3.,.3.3.3.+.+.+.+.+.+.+.3.3.3.3.3.3.3.3.,.4.3.4.3.4.5.5.6.3.3.5.3.5.4.6.5.5.6.6.6.6.",
"7.5.5.5.5.5.5.5.3.3.3.4.3.3.3.,.3.3.3.3.,.3.3.3.3.3.,.3.,.3.,.3.,.,.,.,.3.,.3.3.3.3.3.,.3.,.4.,.3.5.5.5.3.5.5.5.6.6.5.5.5.5.6.6.",
",.,.5.,.,.,.,.5.,.3.,.,.,.3.,.,.3.,.,.,.,.3.,.,.>.3.,.,.,.,.,.,.,.,.,.,.,.3.,.>.,.,.3.,.,.,.4.4.3.3.3.:.3.3.3.3.5.3.3.3.5.5.5.5.",
",.,.,.,.,.,.,.,.,.,.3.,.,.,.,.,.,.,.,.,.,.,.,.,.>.>.3.>.>.,.,.,.,.,.,.,.>.>.,.,.,.,.,.,.,.,.>.,.3.:.3.,.3.3.3.,.3.3.3.3.5.5.5.5.",
",.,.,.,.,.,.,.,.,.,.,.,.,.,.,.,.,.,.,.,.,.>.>.1.3.>.>.3.>.>.>.>.>.,.>.>.,.,.:.,.,.:.3.3.,.,.,.3.:.,.,.,.3.3.,.3.5.3.:.3.5.5.:.5.",
",.,.,.,.,.,.,.,.>.,.,.>.,.,.>.>.>.,.>.>.>.>.>.>.:.:.:.:.:.:.>.>.>.>.>.>.>.>.>.>.:.:.:.:.>.>.>.,.:.3.3.:.:.3.,.,.:.:.5.5.:.5.:.5.",
",.,.>.,.>.>.,.,.,.>.>.,.,.>.>.>.>.>.,.>.,.>.>.>.>.>.:.:.:.:.>.>.>.>.:.:.>.>.>.>.>.>.>.>.>.>.>.:.:.:.:.:.3.:.:.:.:.:.:.:.5.:.:.5.",
">.>.>.>.>.>.,.,.>.>.>.>.>.>.>.>.>.>.>.>.>.>.:.>.:.:.>.:.>.>.:.:.>.>.:.:.>.>.>.>.>.>.>.>.>.>.,.:.,.:.:.:.:.:.:.3.:.:.5.:.:.:.5.:."
};
