/* XPM */
static char *result[] = {
/* columns rows colors chars-per-pixel */
"64 64 256 2 ",
"   c #0C0A08",
".  c #170B08",
"X  c #15110C",
"o  c #190B10",
"O  c #0D1012",
"+  c #1A1615",
"@  c #260E0C",
"#  c #24120D",
"$  c #240915",
"%  c #281717",
"&  c #361B19",
"*  c #25231B",
"=  c #37241D",
"-  c #2B321E",
";  c #1A1F20",
":  c #310827",
">  c #281B24",
",  c #371C24",
"<  c #132830",
"1  c #292628",
"2  c #372827",
"3  c #39332C",
"4  c #352C32",
"5  c #283038",
"6  c #3A3539",
"7  c #431B1A",
"8  c #45192E",
"9  c #452A29",
"0  c #4F3031",
"q  c #493838",
"w  c #673337",
"e  c #713737",
"r  c #34443B",
"t  c #4F463A",
"y  c #1A3947",
"u  c #143A52",
"i  c #3A3A46",
"p  c #2D3750",
"a  c #283B57",
"s  c #2E3B63",
"d  c #363C65",
"f  c #4A1640",
"g  c #453A44",
"h  c #533E4F",
"j  c #673848",
"k  c #783D44",
"l  c #443966",
"z  c #1A484A",
"x  c #154559",
"c  c #284847",
"v  c #274559",
"b  c #325055",
"n  c #31635C",
"m  c #18546C",
"M  c #364769",
"N  c #285765",
"B  c #30546F",
"V  c #17666B",
"C  c #2E706F",
"Z  c #2A6579",
"A  c #396778",
"S  c #4C444B",
"D  c #584949",
"F  c #5A5549",
"G  c #474F54",
"H  c #584955",
"J  c #5B5456",
"K  c #644948",
"L  c #7C444A",
"P  c #68544B",
"I  c #704F56",
"U  c #655858",
"Y  c #436159",
"T  c #706756",
"R  c #4F4F6B",
"E  c #465775",
"W  c #705669",
"Q  c #5A6876",
"!  c #497071",
"~  c #696768",
"^  c #756A66",
"/  c #6F6B76",
"(  c #767477",
")  c #813B46",
"_  c #87454B",
"`  c #8B4A52",
"'  c #994C55",
"]  c #8E5159",
"[  c #A7535C",
"{  c #AA5158",
"}  c #8F5B65",
"|  c #BB5A62",
" . c #8B6F71",
".. c #867779",
"X. c #B06D74",
"o. c #CC5F6D",
"O. c #C8656E",
"+. c #C96B75",
"@. c #D56C77",
"#. c #D56E79",
"$. c #D7737D",
"%. c #DB727D",
"&. c #E4727F",
"*. c #2F8677",
"=. c #558378",
"-. c #76837A",
";. c #8C8878",
":. c #A19064",
">. c #E1DE71",
",. c #1A6F85",
"<. c #197A9A",
"1. c #326D89",
"2. c #2B7988",
"3. c #387688",
"4. c #326191",
"5. c #287995",
"6. c #237DA4",
"7. c #4E5886",
"8. c #466986",
"9. c #457988",
"0. c #55758F",
"q. c #497C94",
"w. c #6E748F",
"e. c #6A7DA3",
"r. c #887784",
"t. c #957388",
"y. c #B47B83",
"u. c #9A71A1",
"i. c #C87681",
"p. c #DB7883",
"a. c #E37583",
"s. c #E77985",
"d. c #E97589",
"f. c #EC7C8A",
"g. c #F27C8A",
"h. c #1A9391",
"j. c #38848A",
"k. c #388999",
"l. c #2E9092",
"z. c #269699",
"x. c #2AA897",
"c. c #308DAE",
"v. c #2A99A5",
"b. c #3597A6",
"n. c #32AFAB",
"m. c #578787",
"M. c #4E9093",
"N. c #708E95",
"B. c #4EA89A",
"V. c #72AB99",
"C. c #4E95AB",
"Z. c #788BA4",
"A. c #6C97AB",
"S. c #48A7A9",
"D. c #4BA8B8",
"F. c #55B0B0",
"G. c #69A9AB",
"H. c #71B1B4",
"J. c #30C2B3",
"K. c #3BC5B8",
"L. c #4DC7B3",
"P. c #59C4B3",
"I. c #66C7B9",
"U. c #7AC5B9",
"Y. c #65D1BB",
"T. c #3A9EC2",
"R. c #479AC4",
"E. c #7B9EC5",
"W. c #4EAEC3",
"Q. c #59B7C7",
"!. c #6FB2CB",
"~. c #74B8C7",
"^. c #52CEC9",
"/. c #78C6C8",
"(. c #6AD7C8",
"). c #71D1CD",
"_. c #76E3D4",
"`. c #8E8E8F",
"'. c #958A89",
"]. c #999797",
"[. c #A98F93",
"{. c #90AD9C",
"}. c #ADA49C",
"|. c #8A98A8",
" X c #9096B0",
".X c #AF94AB",
"XX c #98A4B9",
"oX c #8FB3B5",
"OX c #B5AAA7",
"+X c #B1B1B3",
"@X c #D68C93",
"#X c #EE8792",
"$X c #E98694",
"%X c #CF99A4",
"&X c #E998A5",
"*X c #F193A6",
"=X c #C6B1B0",
"-X c #FBA7B2",
";X c #B5C990",
":X c #8FC6B5",
">X c #CFD4BB",
",X c #92B4CC",
"<X c #ACBACB",
"1X c #D0B5CF",
"2X c #DAB5DC",
"3X c #E8B4D2",
"4X c #8FCECF",
"5X c #89DBD6",
"6X c #ADCFD1",
"7X c #B9C6D9",
"8X c #93E7D9",
"9X c #A7E1D7",
"0X c #93CBE4",
"qX c #ADCBE6",
"wX c #B1CBE6",
"eX c #ABDDE6",
"rX c #B5D2EE",
"tX c #BAD6ED",
"yX c #BBD5F1",
"uX c #BCD8F4",
"iX c #93EAE5",
"pX c #B0F0EB",
"aX c #C8C5C2",
"sX c #C7C7D8",
"dX c #C9D3D5",
"fX c #D9D7D7",
"gX c #E3D5DA",
"hX c #DEE2D0",
"jX c #CDCCE7",
"kX c #C4D6E9",
"lX c #DBDBE5",
"zX c #C1D7F2",
"xX c #C4DAF3",
"cX c #CADEF3",
"vX c #E6DAE9",
"bX c #F6CDF0",
"nX c #DAE5EB",
"mX c #CEE1F5",
"MX c #C7E0FB",
"NX c #D3E4F6",
"BX c #D7E6F7",
"VX c #DCEAF6",
"CX c #DDEAF9",
"ZX c #C6F1F0",
"AX c #D4F8F6",
"SX c #E7E7E9",
"DX c #E6EDF5",
"FX c #E2EDFA",
"GX c #F3EDF2",
"HX c #E5F1FB",
"JX c #ECF4FC",
"KX c #E7F8F8",
"LX c #F6F5F4",
"PX c #F1F6FC",
"IX c #F5FAFD",
"UX c #FDFEFF",
/* pixels */
"UXUXUXUXUXUXUXUXUXLXUXUXUXUXUXUXUXUXUXUXUXUXUXUXUXIX:XI.iXpXiX^.v.H.kXUXUXUXUXUXUXUXUXUXUXUXUXUXUXUXUXUXUXUXUXUXUXUXUXUXUXUXUXUX",
"UXUXUXUXUXUXUXUXUXUXUXUXUXUXUXUXUXUXUXUXUXUXUXKXAXAXU.L.(._.^.^.J.F.H./.H.H.oXnXUXUXUXUXUXUXUXUXUXUXUXUXUXUXUXUXUXUXUXUXUXUXUXUX",
"UXUXUXUXUXUXUXUXUXUXUXUXUXUXUXUXUXUXUXUXUXUXIXpXiX8XP.K.K.K.K.K.^.n.h.h.h.,.h.,XkXkXIXIXUXUXUXUXUXUXUXUXUXUXUXUXUXUXUXUXUXUXUXUX",
"UXUXUXUXLXUXUXUXUXUXUXUXUXUXUXUXUXUXIXPXUXPXAX8XU.L.J.L.L.L.K.J.K.n.n.h.z.b.b.5.5.M.dXLXUXUXUXUXUXUXUXUXUXUXUXUXUXUXUXUXUXUXUXUX",
"UXUXLXUXUXUXUXUXUXUXUXUXUXUXUXUXUXUXKX8XiXpX_.(.Y.K.x.K.L.Y.^.K.n.n.n.n.v.l.b.k.1.1.0.<XUXUXUXUXUXUXUXUXUXUXUXUXUXUXUXUXUXUXUXUX",
"UXUXUXUXUXUXUXUXUXUXUXUXUXUXUXUXUXUXKX8X_.(.(.Y._.5X_.5X8XiXiX_.(.S.k.n.v.v.b.C.C.1.4.M.7XPXUXUXUXUXUXUXUXUXUXUXUXUXUXUXUXUXUXUX",
"UXUXUXUXUXUXUXLXUXUXUXUXUXUXUXUXUXLXKXpX_.(._.:X9XAXAXZXpXpXpXpXpXG.C n.F.Q.D.D.C.1.3.3.A.nXUXUXUXUXUXUXUXUXUXUXUXUXUXUXUXUXUXUX",
"UXUXUXUXUXUXUXUXUXUXUXUXUXUXUXUXLXAXpXpXpXpXZX9X8X8X8X5X8X_._._.P.S.B.H.tXkXG.q.Z m N v C fXUXUXUXUXUXUXUXUXUXUXUXUXUXUXUXUXUXUX",
"UXLXUXUXUXUXUXIXUXUXUXUXUXUXUXUXUXKXZX9X8XpX9X4XB.*.*.C =.m.! A C j.F.U.H.G.m.A.m.m m u v oXSXUXUXUXUXUXUXUXUXUXUXUXUXUXUXUXUXUX",
"UXUXUXUXLXUXUXUXUXUXUXUXUXUXUXUXUXKXZX9X9X:X+X{...D D J I } I j J w.|.oXN.A Z A.A.Z m x v 0.+XIXUXUXUXUXUXUXUXUXUXUXUXUXUXUXUXUX",
"UXUXUXUXUXUXUXUXUXUXUXUXUXUXUXUXKXpX9X6XOX@X$Xs.&.g.s.s.s.a.a.a.p.@X$X&X@Xw.A m.q.m m u u a Z.NXUXUXUXUXUXUXUXUXUXUXUXUXUXUXUXUX",
"IXUXIXUXUXUXUXIXUXUXUXUXUXUXUXIXZX:X-.@X#X&.&.&.&.&.s.f.f.a.@.a.&.s.$X$Xf.@X4XM.1.Z m x u a 8.E.DXUXUXUXUXUXUXUXUXUXUXUXUXUXUXUX",
"UXUXUXIXUXIXUXUXUXUXUXUXUXUXUXKX:X`.X.&.&.&.p.p.&.%.%.&.a.a.o.i.$X$X$Xf.g.&XZXM.1.A.Z u y a 8.,XDXUXUXUXUXUXUXUXUXUXUXUXUXUXUXUX",
"IXUXUXUXUXUXUXUXUXUXUXUXUXUXUXSXN. .&.&.%.%.%.$.$.%.$.$.@.p.p.o.X.X.i.d.g.&XdX! ! 0X3.y y a 7.,XJXUXUXUXUXUXUXUXUXUXUXUXUXUXUXUX",
"UXUXUXIXUXIXUXUXUXUXUXUXUXUXUXSX`.X.$.%.%.$.$.+.@.#.@.@.@.@.p.| 9 + 0 i.#X#X=X! A oXA z a a d w.SXUXUXUXUXUXUXUXUXUXUXUXUXUXUXUX",
"UXIXUXUXUXIXUXUXUXUXUXUXUXUXUXSX].X.%.%.$.$.$.+.+.+.@.@.@.p.d.p.y. .y.d.#X#X%XN.m.A v z 5 v s 7.lXUXUXUXUXUXUXUXUXUXUXUXUXUXUXUX",
"UXUXUXUXUXUXIXUXUXUXIXUXUXUXUXSX].:.g.s.%.$.X.` L ] O.a.d.g.#X#X-X-X-X#Xf.s.@X+XA.y < < y p d 7.SXUXUXUXUXUXUXUXUXUXUXUXUXUXUXUX",
"UXIXIXUXUXUXUXUXUXUXUXUXUXUXUXSX].i.&.g.$XO.] 3 > 8 X.g.d.p.@X@X$Xg.#Xg.f.%.@XdXH.x < < p a d w.vXUXUXUXUXUXUXUXUXUXUXUXUXUXUXUX",
"UXUXUXUXUXUXUXUXUXUXUXUXUXUXUXSX`.X.#Xg.f.p.X.X.X.y.f.X.0 8 8 8 , ' s.&.&.&.&.1XoXm < < y s s Q nXUXUXUXUXUXUXUXUXUXUXUXUXUXUXUX",
"IXUXIXUXUXIXUXUXUXUXIXUXUXUXUXDX:X[.#Xg.g.f.d.@X$Xf.X.X.t.f : o   k %.@.@.@.@.1XoXN Y M a M R Z.SXUXUXUXUXUXUXUXUXUXUXUXUXUXUXUX",
"UXIXUXUXIXUXIXUXUXUXUXUXUXUXUXPX9X%X&.#Xg.g.d.d.f.a.j W u.j 8 : o w | o.O.O.o.=XoX1.A.Z.M M e.aXLXUXUXUXUXUXUXUXUXUXUXUXUXUXUXUX",
"UXUXIXUXUXUXIXUXIXUXIXUXUXUXUXKXpX=X#X#Xd.d.s.a.p.@.k 8 f : : $ . w { { | | | %XXX3.,XXXM s  XLXUXUXUXUXUXUXUXUXUXUXUXUXUXUXUXUX",
"IXIXUXIXIXUXUXUXUXUXUXUXUXUXUXUXKX=XX.$Xs.s.s.%.@.| ' k w : $ 8 w ) ` ' { [ [ y.u.q.rX,Xl R XXUXUXUXUXUXUXUXUXUXUXUXUXUXUXUXUXUX",
"IXIXIXUXIXIXUXIXIXUXIXIXUXIXIXUXLX6XN.i.a.p.$.@.o.| | ' _ 8 7 w e w w k ` ' [ } w.0.7XXXl 7.<XUXUXUXUXUXUXUXUXUXUXUXUXUXUXUXUXUX",
"IXIXUXIXIXUXIXIXUXUXIXIXUXUXIXUXUX9XH.X.+.O.O.o.o.| { _ _ ) ) L 0 & 7 e _ ` ` ` W 8.,X X7.u.sXUXUXUXUXUXUXUXUXUXUXUXUXUXUXUXIXUX",
"IXIXIXIXIXIXIXUXIXIXIXUXIXUXUXIXUXLXdX].X.| | | | | { _ e , W .Xr.] _ _ ` _ _ ) W e.e. X7XNXGXUXIXUXUXUXUXUXIXUXUXUXIXUXUXUXUXLX",
"PXIXIXIXIXIXIXIXIXIXIXIXIXIXUXIXIXUXPX6X'.' { { { { ' ` k w ] [.X.} ] _ _ e e e j l l  XJXUXUXUXUXIXUXIXIXUXUXUXIXUXIXUXUXUXUXUX",
"IXPXIXIXIXIXPXIXIXIXIXIXPXIXIXIXIXUXUXUX<X;.X.[ ' ' ' ' ` ] ' ' ' ` _ _ _ j D K H U W XXIXUXIXIXIXUXIXUXIXIXIXIXIXUXIXUXIXIXUXLX",
"PXPXPXPXPXPXPXIXIXPXIXPXIXIXIXIXIXIXIXPXIXSX<Xy.] ` ` _ L _ L L L ) _ ] ] W E 1.Z.lXDXLXIXUXIXIXIXIXUXIXIXIXIXUXUXIXUXIXIXUXIXLX",
"PXPXPXPXPXPXPXPXIXPXIXPXPXPXPXPXPXPXIXPXIXJXDXfXOX( I j j j j j I ..XXXXoXA.q.1.8.`.jXUXIXIXIXIXIXIXIXUXIXIXIXIXIXIXPXIXIXIXUXIX",
"JXJXPXJXPXJXPXPXPXPXPXPXPXPXPXPXPXPXJXPXPXPXIXUXSX<X].].'.'.].|.Z.XX4X0X0X~.H.A.8.a 7XIXIXIXIXUXIXIXDX7XnXIXUXIXIXUXIXIXIXIXIXIX",
"JXJXJXJXJXJXJXJXJXJXPXJXJXPXJXJXJXPXPXPXPXJXPXJXPXPXVXnXFXJXAXpX8X/.~.~.!.E.E.0XA.v +XUXPXDXVXDXKXSX7XN.+XVXVXHXVXnXKXIXIXIXIXIX",
"JXJXJXJXJXJXJXJXJXJXJXJXJXJXJXJXJXPXKXKXPXGXJXJXPXSXG.G.eXAXZXiXH.D.F.D.E.C.B m.1.a <XLXDXeX_.0X0X4X!./.Q.H.!.0X,X!.cXIXPXPXIXIX",
"HXJXHXJXJXHXHXJXDXJXJXJXJXJXJXJXJXvXsX-X3X3XgXvXZX6XH.F.4X4X).).S.D.F.M.9.A B 8.7.u Q <XHXeX0X,X~.Q.Q.^.^.W.R.C.R.!.0XcXIXIXPXPX",
"HXHXHXHXHXHXDXJXJXFXJXFXFXJXHXFXvX1X%X@X*X*X&XaX:X:X:X:XY.F.x.l.k.M.M.3.N v ! q.7.a 5 w.7XkXqX~.Q.Q.Q.W.W.W.D.c.R.!.R.E.7XFXPXPX",
"HXHXHXFXHXHXFXFXFXJXFXJXFXFXHXSX*X#X&X&X&X#X#X%XoX:XU.U.U.G.m.n n N b N N E m.C.7.s s R w.6XeX5XW.W.Q.W.W.Q.,XQ.R.Q.6.d E sXIXJX",
"HXHXFXHXFXFXFXFXFXFXFXFXHXFXHXvX#Xg.@XX...:.g.%X{.m.! ! ! M.A V V n b n ! m.B.C.8.d l H 0.<X6X!.F.,XjXjXjX7X0X!.R.D.4.u E dXPXJX",
"FXCXFXCXFXFXCXFXFXFXFXFXCXDXHXlX[.@X@XT ..:.X.t.Q n b N A 1.C V V V C ! =.N.G.M.1.d l R Q <X,XH.,XBXGXGXbXbX2XA.C.6.,.m E sXPXJX",
"CXFXCXCXFXCXCXCXFXCXCXCXVXVXKXlXG.:X>XT -.].I g a v N Z 1.j.2.C C *.! =.=.m.M.9.M d l Q N.1X,X|.vXvXsX2X2X3X3X Xq.5.4.4.E 7XJXJX",
"CXCXFXCXCXVXFXCXCXCXCXCXVXVXDX9XM.V.9XP.M.A i p v Z Z 9.N.|.N./ ^ ^ / J S i 5 1 > : $ W kXkXH.A.lXt.1 S h w.vXjX,X6.B s E sXJXFX",
"CXCXCXCXCXCXCXCXVXVXBXCXmXoX6XnXS.H.9X:Xx.n c M N 2.m.|. X]...~ ~ U U U g 3 % + o $ $ h  X<XE.B.1Xw.1 W 4 1 / 1X,X6.4.l l jXFXFX",
"CXCXCXCXBXBXVXVXVXVXBXDXhX;.'.:XV.U.:XU.M.n b N Z 2.|.OX.Xr.^ J J F S U S 3 1 % $ $ $ 5 ! H.H.H.sX.Xr.u./ h W u.E.6.7.l M wXJXCX",
"BXCXBXBXBXBXBXBXVXNXnXhX>.:.:.T {.:X:XI.*.z G B Z M.|.OX].^ U U F D S q 3 1 % # o o $ 5 Z A.H.~.jXjX2X3X3X3X2Xe.6.6.4.d E 7XFXCX",
"BXBXBXBXBXBXNXBXVXnX{.;X>.:.t F {.9X9XU.n < M B 2.j. X.Xr.( U 6 4 3 3 = * * + + $ : > p Z G.Q.Q.D.,X2X2XbX1Xe.<.6.6.d w.7XvXFXCX",
"NXNXNXNXBXBXNXBXBXNX6X;X>.T 0 t {.9X:X/.n + v Z 2.j.`.'.^ H 4 + + X o . X X . X o @ , p 1.H.F.b.6.C.!.,X,XA.,.,.<.<.d e.CXCXCXCX",
"NXBXNXBXNXNXNXNXNXNXNXaX:.t 9 F :XU.F.(.Y 1 a 1.j.j.w.r.^ 1 o o   X # . . . # # @ % 7 6 1.F.W.c.c.c.T.T.c.5.<.<.<.6.d e.NXCXBXBX",
"NXNXNXNXNXNXNXNXnXmXAX;XT t T T V.P.Y.I.Y > a Z 2.k.`.t.U > o % o q P = % & = @ @ & e j N l.D.D.T.T.R.T.D.T.c.c.6.6.4.u.BXBXBXBX",
"ZXNXmXNXmXmXNXNXpX5X5XY.V.V.V.V.V.P.Y.S.G 4 u 1.2.j. Xt.g % $ , 4 K P 9 % @ & & 7 7 7 2 i 5 z v a a a a u a u y u a $ w.mXBXBXBX",
"mXmXmXmXmXNXNXpX4XP.P.Y.(.(.(.Y.P.P.P.B.=.9 u Z 2.k.|.r.g 2 % 2 q J P 9 = = 9 = & & @ % > + o > > > > > , , > > > > g |.mXBXNXNX",
"mXmXmXmXcXtXtX5XP.M.B.I.I.B.B.F.P.P.P.L.=.t i C 2.k.A.r.h q 9 , 4 F T 9 9 w t % . & & % & 6 g g l h h h R H H H H w.<XNXmXNXNXNX",
"cXmXmXMXU.B.B.L.B.c r ~ {.;.;.{.B.P.P.J.*.r F Y 2.l.N.( D D q & + J  .& = 0 9 # @ & % # 1 G.).D.c.l.,.N m N v v 0.<XNXNXNXNXmXmX",
"cXmXMXcXU.x.*.=.! r 3 t T T  .'.V.V.x.x.*.c t t n ! -.'.'...D & o J  .= # & # @ @ @ @ > n F.^.S.Z V m x m m m p / wXNXNXcXcXmXmX",
"cXcXcXcX5XB.c t t P U T P T ^ ;.'.M.*.x.x.x.r r D ;.:.OX=X}.T = O D ^ & . . . . @ @ 0 Y C.D.C.v < < < < u ,.<.E r.7XcXmXcXcXcXmX",
"cXcXmXxX9XM.3 3 9 q ;.}.[.}.;.P ( =.x.J.J.J.*.n } }.=XOX:. .F 3 # K } %   . . @ % 2 ].~.c.F.! O   X + o   u c.,XkXxXcXmXlXcXcXcX",
"xXxXcXxXN.r * - t ..[.OXOX=XOX].^ T =.x.J.J.h.z 3 P P K q 7 = & . 9 t .   . . @ 9 J N.D.k.b H t.^  .W 0 o < Z C.,XMXcXxXcXcXcXcX",
"xXxXxXtX/ * * r T [.OXOX=XaXfXfX{.;.! *.h.x.*.V z r t n n n n Y n n Y c z c c c Y w.5.,.M 1 W .X[.u.u.t.g > p 5.W.<XzXcXxXcXcXjX",
"uXxXxXkXN.- - F ;.;.OX+XaXaXgXGXLX}.F - V *.h.h.z.k.k.D.^.Q.^.^.^.S.b.b.v.b.n.c.k.b.j.v O q W  .u.u.=X1XW > 4 Z C. X7XcXxXxXxXxX",
"xXxXxXyXQ + - 3 U '.OXaXfXSXSXGXLX].t 9 A x.h.h.h.z.h.v.v.v.v.v.z.z.h.<.v.h.,.Z h.5.u O O 1 h t..X.X1X2Xr.6 > < A qXxXxXxXxXxXxX",
"uXtXxXyXN.c - + U >XaX6XfXSXGXhX].F 0 I Z.~.z.h.h.v.n.n.v.c.5.4.,.,.4.4.m m x x 1.A.5     + H u.u.=X2X2Xt.g q R  XuXMXxXzXxXxXzX",
"tXuXzXkX4X0.* X F +X].}.hXgXfX}.t - q D XX0XC.S.D.Q.Q.!.!.E.C.e.0.0.0.0.8.8.! E Z.qXG     + g  ..X2XjX.XW 4 g XXuXuXuXuXzXzXzXzX",
"yXuXuXyXuX X1 + + ; X ~ fXfX;.4 3 = * 4 Z.uXqXrXeXrXrXrXrXqXqXqXwXqXqXwXqXqXqXqXwXwX7.5     O q 1XvX1XR i 5 i  XxXzXzXyXzXzXyXzX",
"yXyXyXtXuXwX|.c   X X - F U t 3 K 2 1 Z.qXuXuXuXuXrXrXrXuXrXuXuXuXyXyXyXuXuXyXyXzXrX<XQ     X ; G U H q > h  XqXyXyXrXzXyXyXyXzX",
"yXrXyXyXtXuXtX|.c X X % % * % 3 `.w.w.wXuXrXrXrXrXrXrXrXrXrXrXrXrXrXrXrXrXrXrXrXrXrXyX,X! Q 6 O O 5 i 6 > E wXxXyXyXyXrXyXyXyXyX",
"uXyXyXrXrXrXrXuXZ.X   + 1 2 $ 5 ,XuXrXrXrXrXrXrXrXrXrXrXrXrXrXrXrXrXrXrXyXrXrXrXrXrXrXrXrXyX0.  ; H / g p 0.qXyXrXrXyXrXrXyXyXyX"
};
