/* XPM */
static char *_50137c726cc4a89ef82c437302300f2URXUyg7ZdR72yFh2[] = {
/* columns rows colors chars-per-pixel */
"64 64 204 2 ",
"   c #127FBE",
".  c #0F7FC4",
"X  c #0F7FCB",
"o  c #117EC3",
"O  c #117FC9",
"+  c #0F81BF",
"@  c #1181BE",
"#  c #0F81C3",
"$  c #0F81C9",
"%  c #1081C3",
"&  c #1986C7",
"*  c #1F8CC3",
"=  c #1183CB",
"-  c #148BCD",
";  c #1C8DCB",
":  c #0F82D3",
">  c #1184D3",
",  c #138AD5",
"<  c #188DD5",
"1  c #1183DA",
"2  c #128BDC",
"3  c #1A8FDA",
"4  c #1791D4",
"5  c #1B92D3",
"6  c #1591DE",
"7  c #1B93DC",
"8  c #2194D2",
"9  c #2E99DD",
"0  c #389ED2",
"q  c #21A1DF",
"w  c #3FA4DE",
"e  c #128EE4",
"r  c #188EE7",
"t  c #128FE8",
"y  c #1493E5",
"u  c #1D95E2",
"i  c #1D99E2",
"p  c #1393ED",
"a  c #1B95EC",
"s  c #169AEE",
"d  c #1B9AEE",
"f  c #1495F5",
"g  c #1B95F4",
"h  c #1599F5",
"j  c #1B9CF4",
"k  c #1396FC",
"l  c #1993FA",
"z  c #1398FC",
"x  c #1B9CFA",
"c  c #229CE4",
"v  c #2E9DE2",
"b  c #2696EC",
"n  c #229DEC",
"m  c #2F9EE9",
"M  c #329DE7",
"N  c #2297F0",
"B  c #219CF3",
"V  c #299DF4",
"C  c #219DFA",
"Z  c #1DA2EC",
"A  c #1DA1F5",
"S  c #1DA2FB",
"D  c #1FA8FC",
"F  c #22A0E3",
"G  c #2CA1E6",
"H  c #24A2ED",
"J  c #2BA4EE",
"K  c #2FAAEF",
"L  c #36A4E3",
"P  c #3BAAE4",
"I  c #36A4EC",
"U  c #3EA6EF",
"Y  c #33ABED",
"T  c #3BACEC",
"R  c #3CB1EE",
"E  c #25A3F4",
"W  c #2AA5F4",
"Q  c #27A8F4",
"!  c #2DABF5",
"~  c #22A4FB",
"^  c #2CA6FB",
"/  c #26ABFD",
"(  c #2CABFD",
")  c #33A4F0",
"_  c #33ABF4",
"`  c #3AADF4",
"'  c #31A6FD",
"]  c #31AAFA",
"[  c #3AAEF8",
"{  c #26B1FC",
"}  c #29B0FC",
"|  c #34B3F2",
" . c #3DB3F5",
".. c #34B3FA",
"X. c #3BB3FA",
"o. c #3EBAFA",
"O. c #49A6D8",
"+. c #49A9DF",
"@. c #53B0DF",
"#. c #44AAE1",
"$. c #44B2ED",
"%. c #4AB3EB",
"&. c #54B3E2",
"*. c #59B4E3",
"=. c #59B5EC",
"-. c #5BB9EB",
";. c #42ADF2",
":. c #43B4F4",
">. c #4AB3F4",
",. c #44B9F5",
"<. c #4ABAF5",
"1. c #44B4FB",
"2. c #44BBFB",
"3. c #4BBDFB",
"4. c #56B5F1",
"5. c #5AB7F1",
"6. c #55BDF6",
"7. c #5ABDF4",
"8. c #56BEFD",
"9. c #59BEFB",
"0. c #65BCEA",
"q. c #64BDF3",
"w. c #63BEFA",
"e. c #69BFF8",
"r. c #5EC5EF",
"t. c #45C0FD",
"y. c #4CC1FC",
"u. c #54C2F6",
"i. c #5BC1F6",
"p. c #54C1FC",
"a. c #5BC2FB",
"s. c #52C9FC",
"d. c #5DCAFD",
"f. c #67C9EC",
"g. c #71CBEC",
"h. c #79C9EE",
"j. c #64C3F5",
"k. c #6CC3F3",
"l. c #65CEF7",
"z. c #63C4FB",
"x. c #6CC6FD",
"c. c #64CAFD",
"v. c #6CCBFD",
"b. c #7AC7F7",
"n. c #75CCF6",
"m. c #7BCBF5",
"M. c #72C6FC",
"N. c #78C7FE",
"B. c #74CCFD",
"V. c #78CBFB",
"C. c #64D0FF",
"Z. c #6BD1FD",
"A. c #77D1F7",
"S. c #7DD3F2",
"D. c #72D1FC",
"F. c #7DD1FB",
"G. c #8DD1EE",
"H. c #96DAEB",
"J. c #9DDBEF",
"K. c #84CDF4",
"L. c #89CCF5",
"P. c #84CFFB",
"I. c #8EDFF7",
"U. c #84D2FB",
"Y. c #9AD9F6",
"T. c #ADDDEE",
"R. c #A4DFF7",
"E. c #8CE1FA",
"W. c #98E6F5",
"Q. c #91E2FB",
"!. c #A6E2F4",
"~. c #ACE6F7",
"^. c #A1E2F9",
"/. c #ABE6F9",
"(. c #A3EBFA",
"). c #B3E4F5",
"_. c #B8E6F7",
"`. c #BDEAF6",
"'. c #BAE7FA",
"]. c #BBEEFB",
"[. c #A7F0FC",
"{. c #B9F1FB",
"}. c #C4EAF6",
"|. c #C9EEF6",
" X c #C4EBFB",
".X c #CDEEFA",
"XX c #DAEFF9",
"oX c #C5F2FC",
"OX c #CCF2FA",
"+X c #D1F1F5",
"@X c #DBF4F6",
"#X c #D3F2FB",
"$X c #DCF5FA",
"%X c #DCFAFC",
"&X c #E2F5FA",
"*X c #ECF6FB",
"=X c #E5FAFA",
"-X c #E9FAFD",
";X c #EDF9FD",
":X c #ECFBFC",
">X c #FBFDF6",
",X c #F1F9FA",
"<X c #F5FDFB",
"1X c #FCFDFA",
/* pixels */
"o % > t f f p p p p y y c 9 w w #.#.@.*.*.0.0.0.0.q.k.q.k.q.4.=.5.4.>.>.;.;.) m b g l k k k W j.6.Y / } / W ! W H n 7 , % O o o ",
"% = e k k k k z k f G l.Q.~.`.|.+X@X&X&X=X,X,X,X,X,X,X,X,X:X*X*X*X*X&X$XXX.X X'.!.I.D.,.d j F.%X{.@.! ( ( ( ( ( ( ( / W c ;   o ",
"% , s f k k k z z g ` A.J.).].oX.XXX&X%X&X=X*X*X,X,X<X-X-X-X-X&X$X$X%XXX@X.X}.'./.H.m.>.A ! Y.*XOX-./ / ! ( ( ( ( ( ! _ ,.<.* o ",
"- K Q f k k f h h / / _ P T ;.:.>.4.5.q.w.e.e.x.M.M.e.-.7.5.7.5.>.>.>.;.U M M V B a a n Q ! ,.m.f.T ( ] ' ] ! ( ( ( _ <.c.a.8   ",
"8 <.8.V k k f h / _ ( ( _ ! / ( ! ! / ! ! ! ! ! / S k k k k k k f f f k k k k k k k x Q Y ( / _ ! ! ( ( ] ( ( ' ] | y.l.z.:.& % ",
"v 7.U.e.E f j / ( ! / ( ( ( / ( ! ( ( ( ( ] / / x k k k k k k k z z k z k k k f f x / / ] ( ( ( ( ( ] } } ( ( ] ,.l.l.d.3.v % % ",
"T k.].Y. .H Q ( ( / ( ( ( ( ( ( ( ( ( ( ( ( / S h k k k k k k k z z z z z k k f x ^ ( ( ' ( ( ( ( ( _ ! ( (  .3.x.n.j.y.^ r > . ",
",.h.#X!.j.p.R ! ( ( ! ] ( ^ ] _ ( ( ( ( ( / S h k k l k k k k k k k z k k k k S ( ] / ( ' ] _ ' ( / ! / ( | u.v.M.a.u.X.g t > % ",
" .K.%X`.V.M.u.R ( ( ( ( ( ( ( ( ( ( ( ( ^ x l k z z z z z k h z k k k k k f x / ( ( ( ( ( } ] / { } ! ] 1.w.n.Z.z.7.2.Z k p : . ",
"} F.:XOXK.M.V.w.` ! ( ( ( ( ' ( ( ! ( / x k k z z z z z z z z z k k k k h S ( ( ( ( ( ( ( ( ( ] ! / | <.x.N.n.a.8.8.E s z p $ . ",
"W U.<X#Xm.B.V.B.p._ ( ( ( ( ( ( ! ( / x h k k z z z k z z k z k k k k k D / ( ( ( ( ( ( ( ( ( ( !  .9.v.B.x.i.9.3.( a p f p $ % ",
"W U.<X@XK.B.V.B.v.6.} _ _ ( ( ( ! / x k k k z k z z z k z z k k z k f z / ( ( ' ' ( ( ( ( ( ( ( :.z.V.n.v.r.u.8.[ h h 1 2 2 = # ",
"^ U.1X$XK.B.n.V.B.B.y._ ! ( ( ( / x k k k k z k z z z z z k k k z k S / ( ( ( ] ( ( ( { ( / _ <.c.B.B.v.z.6.p.1.d h h 1 . = $ @ ",
"' U.1X$XK.M.n.D.B.V.c.<.( ! ! / z k k k k k k z z z k z k k k k f S ( ( ( ' ( ( ( ( / ! !  .u.M.B.Z.l.z.p.p.3.J s k f > . % # + ",
"^ U.<X@XL.V.B.B.B.V.B.c.,.] / x k k z z z z z z z z z k k k k k S / ( ] ( ( ( ( ( ( ( Y $.a.v.V.B.x.a.a.p.p.( h h k k y $ # # @ ",
"] U.<X$XL.V.B.D.B.B.V.V.x.X.j k k k k z z z k k z k k k k k h S / / ( ( ( ] ' ( ( ( _ <.z.B.B.B.v.w.9.9.p.| g z z k k h , $ + @ ",
"( P.<X%XL.V.B.B.D.B.D.V.M.p.E f k k k z z k k k k k k k k h S ( ' ( ( ( ( ( ^ ^ ( ` 6.l.B.M.V.v.u.8.9.9.o.S k z z z k f y $ @ # ",
"( V.<X%XL.V.n.B.B.B.B.x.a.p.1.B k k z z z k k k k k k k k D ( ( ( ( ' ( ( ( ( _ ;.d.v.B.n.n.x.i.p.p.p.3.E f k f p t 2 2 , % @ # ",
"! n.<X$XL.V.n.B.B.B.M.a.s.p.9.1.n h z z k k k k z z k h ~ / ( ( ( ( ' ( ( ( | ,.c.B.D.m.B.x.z.9.a.u.y.] f k f e : X $ # % # + % ",
"! n.:X$XK.V.m.D.B.M.w.8.u.p.9.9.X.j k z k k k k z k k D ( ( ( ( ( ( ( / ' ` y.x.B.M.B.v.x.a.p.9.7.9.X.x z k z f 2 $ $ = $ - @ % ",
"/ x.-X.XK.V.n.B.c.z.8.8.p.9.9.9.p.X.a f k z k k h h ~ / ( ' ( ( ( ( ! !  .a.M.V.B.B.Z.c.p.p.p.p.9.,.B k k k k k f t y r j H - # ",
"/ q.&X}.b.B.D.c.a.9.8.9.9.p.p.p.8.p.| a k k k k s ~ ( ( ( ( ' ( ( ( _ <.c.v.V.V.B.B.x.p.p.p.p.p.3.E k z k k k k k l h j ( Q - # ",
"/ -.@XT.k.v.v.a.p.8.9.8.8.p.p.p.p.9.p...x k k k ~ ( ( ( ' ( ( ( ( [ 6.x.V.n.B.B.D.j.a.9.p.9.a.y.! f k z z h k k k x / / ( W 4 # ",
"( %.{.G.6.v.a.p.8.9.9.9.p.9.8.8.p.8.9.3._ h h ~ ( ( ( ' ( ( ( ! :.a.v.B.V.n.B.Z.x.i.u.8.8.u.u...d k k k k k k k p | o.! ] ( < # ",
"! T E.f.X.9.7.p.9.9.p.8.8.8.9.8.8.8.8.9.p._ Q ( ( ( ( ( ( ^ _ ,.z.Z.D.B.n.B.B.c.a.u.u.9.8.p.2.j f k z z k h k k E s.<.( ( ( < . ",
"( _ %.Y B >.u.p.9.9.8.8.9.p.8.8.8.8.8.8.p.d.,.( ( ( ( ( ( ` 6.x.B.B.B.B.B.B.c.9.8.p.p.7.p.3.E f h z z k z k f A X.C.6.] ( ( 3 . ",
"( ( E h h X.p.9.9.8.p.8.8.9.9.p.9.i.9.p.x.n.c.,.( ( ( ( X.p.v.B.V.V.M.B.B.c.7.9.p.p.u.6.p.! f k k k k h k z S / 6.v.a.] ( ( 7 o ",
"{ ~ h k k ( y.p.9.p.8.9.8.9.p.9.8.9.a.x.V.m.V.c.X.( _ %.x.D.B.V.V.n.B.v.z.a.9.p.p.8.p.p.X.j k k z h k h k S / [ z.V.a.' ( / 7 % ",
"D z k h k x 3.p.9.8.8.8.9.p.8.8.8.w.x.v.B.n.V.B.c.,.6.x.B.B.B.B.M.B.B.c.a.u.p.p.9.9.8.2.j k k k z k k f C ( / 1.v.n.z.] ( ( 7 % ",
"h k k f h l X.p.9.8.p.8.8.8.8.9.p.x.B.B.B.B.B.V.V.n.v.B.v.B.B.V.B.B.z.9.9.9.8.p.9.7.3.~ k k k k k k k D ^ ! ' 3.D.m.c...! ! i % ",
"k g I G h l ] u.9.p.p.p.8.p.9.z.x.B.B.B.B.B.B.B.V.B.B.B.B.M.B.B.B.z.9.8.9.9.9.a.9.p.] h k k k k f k ~ ( ( _ [ d.D.n.x.| ( ] c $ ",
"f P [.S.d f E u.9.8.p.p.p.9.z.x.B.B.B.B.B.B.D.B.M.B.B.V.V.B.B.v.c.p.p.8.8.8.8.9.u.X.j z k k k k h S ( ^ ( !  .v.n.B.x.>.( } i = ",
"y m.=X|.L s Z 2.9.8.p.u.a.p.v.B.B.V.D.V.F.B.B.B.B.V.V.B.B.B.v.z.9.p.p.p.8.8.8.p.2.n h k k k k l ~ / ] ( ] ( p.v.n.B.x.<.( ( c % ",
"c J.>X=X=.p h [ 9.p.p.9.a.v.B.B.B.B.B.V.B.V.D.V.V.V.B.B.Z.Z.z.u.p.p.8.9.9.9.p.t.W f k k z k k S ( ! _ ' ( ] d.V.A.V.n.y.( ( H % ",
"c ^.>X:Xq.f k ^ p.u.9.a.x.B.B.V.V.B.B.D.B.B.B.D.B.V.M.Z.v.c.a.9.8.8.9.9.7.a.y.( h k k k z z ~ ( ( _ ! ( ! X.v.V.n.n.B.u.( ( H & ",
"B R.1X-X5.f k C y.p.z.v.B.B.B.V.B.B.B.B.D.B.B.B.B.V.D.v.z.u.8.p.8.9.9.9.9.y.X.j k z k h h ~ ( ( ^ ] ( / _ 3.B.V.D.B.V.p._ ( A $ ",
"n Y.1X:X5.h z x o.z.M.B.B.V.B.B.B.B.V.B.B.B.B.D.B.v.Z.z.6.a.p.p.8.8.8.8.p.o.B f k k h z / ( ( ( ' ( / ( | z.B.V.D.D.n.a...C y > ",
"a K.<X@XT h h k  .v.B.B.B.V.B.B.B.D.B.V.V.V.M.B.B.v.z.a.p.p.8.p.p.u.7.9.t./ h k z k h ~ ( ' ( ' ( ( / ! >.x.B.B.B.v.B.d.Q k p > ",
"s &.#X^.n f h x X.n.B.B.D.B.B.V.B.V.V.V.V.V.B.B.x.c.9.u.p.p.8.8.p.p.7.y.! f k k h h ~ ( ( ( ' ( ( ( ( ( 6.B.B.D.V.B.v.8.j z f > ",
"f 9 r.P f f A / X.x.B.D.B.V.D.D.B.D.V.B.B.B.v.v.z.9.9.p.8.8.8.8.a.u.s.X.a k h f h D ( ( ( ^ ( ( ' ( ( [ d.M.B.n.B.x.z.8.E k p > ",
"k f p s f x ( { _ a.B.B.B.B.B.B.V.V.B.B.B.v.Z.a.6.9.p.8.8.8.8.8.7.p.2.j h k k j ~ ( ( ( ( ( ( ' ( ( ( :.v.B.n.D.B.z.6.6.~ k p > ",
"k z x k x ^ _ / ! <.B.B.B.B.B.D.B.B.V.B.D.v.a.a.p.8.8.p.9.8.8.8.u.y.W k k k h / ( / ( ( ( ( ( ' ( ( ) u.Z.V.B.Z.x.p.p.8.^ k f > ",
"k k k x / ( ( ( !  .v.B.B.B.B.B.B.B.B.Z.v.a.a.u.8.8.8.8.8.8.8.p.y.] k k k g / ( ' ( ( ( ( ] ( ( ( ( ` z.B.V.M.z.9.8.9.p./ f h > ",
"k k A / K ! ( ( ^ [ x.B.B.B.B.B.B.B.B.v.i.a.p.p.8.8.8.8.8.8.p.p.X.d k k h ^ / ' ( ( ( ( ( ' ' ( ( ( 1.v.B.M.z.i.9.8.p.9...f f 2 ",
"g S ( ( } ! ( ( ( _ 7.B.B.B.B.B.B.B.x.z.i.p.p.8.p.8.8.9.p.8.p.3.j h f h / / ] ( ( ( ( ( ( ^ ( / ! Y u.Z.v.z.9.p.8.8.9.8.X.j f 2 ",
"H ( } ( ( ' ( ( ( ] ,.M.B.B.V.Z.B.x.z.9.p.p.p.8.8.8.8.8.u.p.3.W k l x / ..| [ | [ X.X...[ X.X.X. .%.l.c.z.p.9.9.8.8.6.s.X.g f 2 ",
"( ( } ] ( ] ( ( ( (  .c.D.n.B.Z.x.a.9.9.p.p.8.8.9.9.8.8.9.6._ k k x / ..3.s.d.d.z.c.c.c.c.c.x.x.M.x.x.z.9.8.9.p.8.9.9.y.2.g k 2 ",
"( ( ( ( ( ( ( ] ( ( _ a.n.n.B.v.a.9.p.8.8.8.9.8.9.9.p.8.9.X.j k x ~ ( ( _ :.<.c.Z.D.V.V.V.m.n.n.B.v.z.9.9.9.8.8.8.8.9.p.3.x f 2 ",
"/ ! ( ( ( ] ( ( ( ( ! y.v.n.j.z.p.p.p.8.p.8.8.8.8.8.u.9.1.B h z ( ( ( ( ( _ _ _ ,.a.x.n.B.n.n.A.Z.a.8.p.8.8.8.8.8.p.9.p.3.C k e ",
"E ( ( ( ] ( ( ] ] ( ( :.v.v.a.i.p.p.8.8.8.9.p.8.8.8.u.3.W k S / ( ( ( ( ( ( ( ( ^ ] | <.a.c.Z.x.z.7.9.8.p.p.p.8.8.8.u.6.3.^ h 2 ",
"J ( ( ( ' ( ( ( ( ( ( _ 9.w.p.u.p.p.8.8.8.9.8.p.p.p.p.( s h ^ ( ( ( ( ( ( ( ( ( ( ( ( ! [ X.<.3.3.p.8.9.8.8.u.p.p.8.8.9.8.( z y ",
"n ' ( ( ( ( ( ( ] ( } / 1.9.p.p.8.p.8.8.8.p.p.8.u.p.X.j S ( ( ( ( ( ( ( ( ( ] ! ! ( } } / Q j j Q ..2.p.9.q.u.u.p.8.8.9.9.] h y ",
"d ( ( ( ( ( ( ( ] / ~ k ^ 8.7.8.8.8.8.8.6.p.p.9.p.2.E x / ! ] ( ( ' ( ( ( ( ( ] ] ] ^ ( ~ x k k k h x ( 1.6.p.p.9.8.p.a.u.X.~ d ",
"7 ( ( ( ( ( ( ( ( ~ h k C 3.8.8.8.9.8.8.p.p.p.8.y.J x { ( ! ] ( ^ ' ' ' ( ! ( / ( ^ ( ^ x k k z z k h k g S ' 1.3.p.i.i.u.y._ F ",
"3 ( ( ( ] ! ( ( S h k k h o.8.8.8.8.8.8.8.8.8.3._ n / / ( ] ^ / ( ( ( ] ( ( ( ( / ( / d f z h h k h k z z k k x E  .3.p.c.d.Y F ",
"= 8 i H ( ( ( ~ k k k l h ( y.9.8.8.9.9.9.8.s. .J / ( ( ! ! ( ( / ( ( ( ( ( ( ! ( / h h h h k k k k f f h z k p f s n 1.z.z.T q ",
"o o % % i / S k k k z k k E y.9.8.8.8.9.8.p.,.K / ( ( ( ( ( ( ( ' ] ( ( ( / ! } Q h k k z f h k k k k f h k e 1 f k ~ ! T :._ F ",
"# + @ # y S h k k k k k k j ,.i.9.p.8.8.8.p. .! ( ( ( ' ( ( ( ] ' ( ( } ! K w T I I I ) I B i y k k f 2 1 e > o 2 E ( / ! ( ( Z ",
"% & 4 i A h k k k k k k k h ..u.9.u.9.p.p.2._ / ( ' ( ( ( ( ( ] ' ( { _ =.G.!._. X#X#X#XoX_.J.g.T p 2 = o = % @ 5 ! ] ( ( ( } H ",
". 3 / E f k k k k k k k k k W s.i.7.7.p.3._ ( ( ( ( ( ( ( ( ( ( ' } { $.~.:X<X>X>X1X1X>X1X1X1X-X(.L , $ @ o % % 5 / ( ( ( ( ( Z ",
". , j h z k z z k k z z z k j y.p.a.u.u. .! ( ( ( ] ] ( ( ( ( ' } ( ( Y f.W.{.%X=X=X=X=X=X@X.XW.i.i e % @ % %   3 ( ' ^ ( ' ( n ",
". = y h k k z z z h z z h f a  .<.<.y.:.G J J W E B E n n n n n F c N c 4 5 9 +.@.*.@.*.@.O.0 8 6 e e = o % o o 3 ( ( ( ( ( / i ",
". O 1 y t t t 2 2 2 , > > 2 - 4 8 * ; & % - - = = = = % % = % % % & = % + + + # . . o . X X X = X O $ % @ % % % = < 3 u i J Q 7 ",
"o o = $ $ X X X X . + + # # # # o     o o % % o o % % % % % % # $ # # @ @ @ + + # % % % % $ X = > = O o O = = % % o o % = % 4 - "
};
