/* XPM */
static char *result[] = {
/* columns rows colors chars-per-pixel */
"64 64 238 2 ",
"   c #080006",
".  c #350409",
"X  c #2C0018",
"o  c #37051A",
"O  c #341A28",
"+  c #312435",
"@  c #450617",
"#  c #4B102E",
"$  c #551527",
"%  c #66162F",
"&  c #4A2F39",
"*  c #512E39",
"=  c #70323A",
"-  c #362E45",
";  c #761E44",
":  c #5D2844",
">  c #5A3C48",
",  c #573A51",
"<  c #692F48",
"1  c #752845",
"2  c #673B53",
"3  c #733D56",
"4  c #5A434D",
"5  c #5A4858",
"6  c #67424E",
"7  c #7A454F",
"8  c #654A57",
"9  c #66525B",
"0  c #775559",
"q  c #5D5467",
"w  c #684E66",
"e  c #774A66",
"r  c #695666",
"t  c #6E536C",
"y  c #7B5864",
"u  c #73556D",
"i  c #7A556C",
"p  c #73596D",
"a  c #7C5A6D",
"s  c #6A5A72",
"d  c #755973",
"f  c #7B5B73",
"g  c #785875",
"h  c #78676D",
"j  c #6B6D78",
"k  c #7A6878",
"l  c #8C4239",
"z  c #893358",
"x  c #8E4D4E",
"c  c #AE665B",
"v  c #9C4D63",
"b  c #865967",
"n  c #97596A",
"m  c #855C73",
"M  c #8B5D75",
"N  c #865C79",
"B  c #925D73",
"V  c #9A5E74",
"C  c #89656A",
"Z  c #99676A",
"A  c #846273",
"S  c #8B6274",
"D  c #856679",
"F  c #8C647B",
"G  c #936275",
"H  c #976874",
"J  c #93637A",
"K  c #9B647C",
"L  c #946A7B",
"P  c #9B6B7B",
"I  c #867477",
"U  c #99747B",
"Y  c #A76B6C",
"T  c #A56775",
"R  c #A36C7D",
"E  c #AA6C7B",
"W  c #B26C78",
"Q  c #A5747A",
"!  c #AB737C",
"~  c #B3747D",
"^  c #B9787B",
"/  c #C47C7A",
"(  c #CA837D",
")  c #D0867D",
"_  c #7B7889",
"`  c #8A6585",
"'  c #8A6886",
"]  c #946B83",
"[  c #9C6C83",
"{  c #9A6A86",
"}  c #877786",
"|  c #937183",
" . c #9A7589",
".. c #8D6D92",
"X. c #956E90",
"o. c #9C7796",
"O. c #A26C82",
"+. c #A66E86",
"@. c #B1638B",
"#. c #A47382",
"$. c #AB7383",
"%. c #A77989",
"&. c #B37485",
"*. c #B67787",
"=. c #B57B83",
"-. c #BB7B85",
";. c #BC7C8C",
":. c #A67E97",
">. c #B77B95",
",. c #997BA1",
"<. c #C37B85",
"1. c #C97C85",
"2. c #C47E8B",
"3. c #CD7E8A",
"4. c #D17F89",
"5. c #6C8D9C",
"6. c #938790",
"7. c #9D8A9A",
"8. c #AB868B",
"9. c #B98489",
"0. c #A6859B",
"q. c #B88A95",
"w. c #AA929E",
"e. c #B8929A",
"r. c #B7A29F",
"t. c #9D95A4",
"y. c #A889A8",
"u. c #B696A4",
"i. c #AD93B0",
"p. c #AC93B4",
"a. c #B6A7B0",
"s. c #BCBBBA",
"d. c #C88485",
"f. c #C4828B",
"g. c #CB838D",
"h. c #D78784",
"j. c #D3838C",
"k. c #DB858C",
"l. c #D3888C",
"z. c #DB8C8C",
"x. c #D9958B",
"c. c #CD8593",
"v. c #C78A94",
"b. c #D18591",
"n. c #D58B93",
"m. c #DA8C96",
"M. c #C79498",
"N. c #D89899",
"B. c #E48A8C",
"V. c #E98B89",
"C. c #E7938C",
"Z. c #F7938D",
"A. c #E58D94",
"S. c #F68F90",
"D. c #E59394",
"F. c #E89797",
"G. c #F39492",
"H. c #FB9593",
"J. c #FE9B95",
"K. c #F39998",
"L. c #FB9D9A",
"P. c #CDA09B",
"I. c #EBA499",
"U. c #FCA295",
"Y. c #F4A29C",
"T. c #FCA39C",
"R. c #FDAA9E",
"E. c #D690A9",
"W. c #E49CA2",
"Q. c #F59EA1",
"!. c #CCA4A7",
"~. c #DCA3A3",
"^. c #D8A9A9",
"/. c #CEB0AE",
"(. c #C7ADB8",
"). c #C6B7BC",
"_. c #D9B7B9",
"`. c #E7A8A8",
"'. c #FDA5A3",
"]. c #F6A8A6",
"[. c #FDABA5",
"{. c #FEACAA",
"}. c #FDB1A5",
"|. c #F5B4AA",
" X c #FDB4AC",
".X c #FCB9AD",
"XX c #F6ADB3",
"oX c #EDB0B0",
"OX c #EDB4B2",
"+X c #E9BBB9",
"@X c #FEB5B3",
"#X c #F8B5B7",
"$X c #F5BBB3",
"%X c #FDBBB3",
"&X c #F5BDBA",
"*X c #FDBDBA",
"=X c #BFC1BD",
"-X c #C1C1BF",
";X c #FFC0AF",
":X c #FBC1BA",
">X c #BCBAC3",
",X c #CABCC4",
"<X c #D5BFCC",
"1X c #F9BDC3",
"2X c #F7A9D6",
"3X c #BBC3CD",
"4X c #B6D2EF",
"5X c #BAD5EF",
"6X c #B7D3F0",
"7X c #BBD5F0",
"8X c #BFD8F1",
"9X c #C5C2C4",
"0X c #C9C6CC",
"qX c #D6CBD2",
"wX c #D5CAD4",
"eX c #ECC4C6",
"rX c #EAC3C8",
"tX c #F6C8C8",
"yX c #E9D1D9",
"uX c #F8D4D5",
"iX c #C1D7F2",
"pX c #C3D9F2",
"aX c #C9DEF3",
"sX c #CDE1F5",
"dX c #D3E4F6",
"fX c #D9E6F6",
"gX c #DBE9F7",
"hX c #D6E5F8",
"jX c #D9E6F8",
"kX c #D7E8F8",
"lX c #DDEAF9",
"zX c #FDE8EA",
"xX c #E3EEFA",
"cX c #E6F1FB",
"vX c #EBF4FC",
"bX c #F0F7FD",
"nX c #F4F9FD",
"mX c #FEFFFF",
/* pixels */
"mXmXmXmXmXmXmXmXmXmXmXmXmXmXmXmXmXmXmXmXmXmXmXmXmXmXmXmXmXmXmXmXmXmXmXmXmXmXmXmXmXmXmXmXmXmXmXmXmXmXmXmXmXmXmXmXmXmXmXmXmXmXmXmX",
"mXmXmXmXmXmXmXzXmXmXmXmXmXmXmXmXmXmXmXmXmXmXmXmXmXmXmXmXmXmXmXmXmXmXmXmXmXmXmXmXmXmXmXmXmXmXmXmXmXmXmXmXmXmXmXmXmXmXmXmXmXmXmXmX",
"mXmXmXmXmXmXmXmXmXmXmXmXmXmXmXmXmXmXmXmXmXmXmXmXmXmXmXmXmXmXmXmXmXmXmXmXmXmXmXmXmXmXmXmXmXmXmXmXmXmXmXmXmXmXmXmXmXmXmXmXmXmXmXmX",
"mXmXmXmXmXmXmXmXmXmXmXmXmXmXmXmXmXmXmXmXmXmXmXmXmXmXmXmXmXmXmXmXmXmXmXmXmXmXmXmXmXmXmXmXmXmXmXmXmXmXmXmXmXmXmXmXmXmXmXmXmXmXmXmX",
"mXmXmXmXmXmXmXnXmXmXmXmXmXmXmXmXmXmXmXmXmXmXmXmXmXmXmXmXmXmXmXmXmXmXmXmXmXmXmXmXmXmXmXmXmXmXmXmXmXmXmXmXmXmXmXmXmXmXmXmXmXmXmXmX",
"mXmXmXmXmXmXmXmXmXmXmXmXmXmXmXmXmXmXmXmXmXmXmXmXmXmXmXmXmXmXmXmXmXmXmXmXmXmXmXmXmXmXmXmXmXmXmXmXmXmXmXmXmXmXmXmXmXmXmXmXmXmXmXmX",
"mXmXmXmXmXmXmXmXmXmXmXmXmXmXmXmXmXmXmXmXmXmXmXmXmXmXmXmXmXmXmXmXmXmXmXmXmXmXmXmXmXmXmXmXmXmXmXmXmXmXmXmXmXmXmXmXmXmXmXmXmXmXmXmX",
"nXmXmXmXmXzXmXmXmXmXmXmXmXmXmXmXmXmXmXmXmXmXmXmXmXmXmXmXmXmXmXmXmXmXmXmXmXmXmXmXmXmXmXmXmXmXmXmXmXmXmXmXmXmXmXmXmXmXmXmXmXmXmXmX",
"mXmXmXmXmXmXmXmXmXmXmXmXmXmXmXmXmXmX5.5.mXmXmXmXmXmXmXmXmXmXmXmXmXmXmXmXmXmXmXmXmXmXmXmXmXmXmXmXmXmXmXmXmXmXmXmXmXmXmXmXmXmXmXmX",
"zXmXmXmXmXmXmXnXmXmXmXmXmXmXmXmXmXmXmX3Xj 6.mXmXmXmXmXmXmXmXmXmXmXmXmXmXmXmXmXmXmXmXmXmXmXmXmXmXmXmXmXmXmXmXmXmXmXmXmXmXmXmXmXmX",
"mXmXmXmXmXnXmXmXmXmXmXmXmXmXmXmXmXmXmXmXwXh } mXmXmXmXmXmXmXmXmXmXmXmXmXmXmXmX0XmXmXmXmXmXmXmXmXmXmXmXmXmXmXmXmXmXmXmXmXmXmXmXmX",
"mXnXnXmXmXmXmXmXmXmXmXmXmXmXmXmXmXmXmXmXmXzX8.mXuXuXrX1XeXeXeXeXtXuXyXmXmXyXrXrX+XOXmXmXmXmXmXmXmXmXmXmXmXmXmXmXmXmXmXmXmXmXmXmX",
"mXmXnXmXmXnXmXnXmXmXmXmXmXmXmXmXmXmXmXmXmXmXuX~.OXoXOXOX$X:X:X$X:X:X&X1XrXrX+X$X|.oXOXmXmXmXmXmXmXmXmXmXmXmXmXmXmXmXmXmXmXmXmXmX",
"nXmXnXmXmXmXmXmXmXmXmXmXmXmXmXmXmXmXmXmXmX+X`.|.|.@X.X$X%X%X$X$X$X$X@X#X#X&X$X%X.X|.#XmXmXmXmXmXmXmXmXmXmXmXmXmXmXmXmXmXmXmXmXmX",
"mXnXmXmXmXnXmXmXmXmXmXmXmXmXmXmXmXmXmXtX~.].}.}.}. X X%X%X%X%X%X;X%X%X*X#X$X%X%X.X.XoXmXmXmXmXmXmXmXmXmXmXmXmXmXmXmXmXmXmXmXmXmX",
"mXmXnXmXmXnXmXnXmXmXmXmXmXmXmXmXmXzX/.~.].R.R.R.[. X.X X X%X%X%X$X$X@X*X*X%X%X%X%X X#XmXmXmXmXmXmXmXmXmXmXmXmXmXmXmXmXmXmXmXmXmX",
"nXmXmXnXmXnXmXmXmXmXmXnXmXmXmXmXzX^.`.I.Y.[.}.R.}.}. X{. X@X X X%X@X@X@X$X;X;X;X%X@XOXmXmXmXmXmXmXmXmXmXmXmXmXmXmXmXmXmXmXmXmXmX",
"mXmXmXmXmXmXmXmXnXmXmXmXmXmXmXzX^.N.F.'.T.Y.U.}.R.{.@X X X}. X}.|..X@X%X$X:X:X:X%X@X&X_.mXmXmXmXmXmXmXmXmXmXmXmXmXmXmXmXmXmXmXmX",
"nXnXmXmXnXmXmXmXmXmXmXmXmXmXzX_.l.F.K.L.R.R.R.R.{.{.{. X X X X.X%X X%X@X%X$X;X:X*X@X%X:X_.mXmXmXmXmXmXmXmXmXmXmXmXmXmXmXmXmXmXmX",
"mXmXmXnXmXmXmXnXmXmXnXmXmXmXrX9.x.C.G.U.L.Y.R.[.'.{.'.'.{. X|..X.X|. X%XI.l x %X%X*X@XtX+X/.mXmXmXmXmXmXmXmXmXmXmXmXmXmXmXmXmXmX",
"mXnXmXmXmXmXmXnXmXmXmXmXmXuX9.( z.V.H.L.T.[.[.[.{.'.[.@X{.XXXXXX@X@X#XXXx x.Y d.%X%X%X*X1XtXtXuXmXmXmXmXmXmXmXmXmXmXmXmXmXmXmXmX",
"mXmXnXnXnXmXmXmXnXmXmXw.e.9.^ ) ) C.H.J.T.'.'.[.[.[.].].XX@X#X1X#X`.XX#XXXtX*X.X%X:X X%X*X@X&X+XeXmXmXmXmXmXmXmXmXmXmXmXmXmXmXmX",
"nXmXmXmXnXmXnXmXmXw.7.U U Q / ( ) Z.G.T.'.[.{. X[.}.{.].@XXX3.v z % % 1 ~.1X&X*X:X:X%X%X%X%X*X1X+X1XmXmXmXmXmXmXmXmXmXnXmXmXmXmX",
"nXnXnXnXmXnXmXnXmX<Xr.e.8.Q ^ ) ) I.U.'.'.{.D.l c / ].@Xb.1 # % = z 1 @ $ oX*X%X%X;X%X*X X%X@X|.|.OXnXmXmXmXnXmXmXmXmXmXmXnXmXmX",
"nXnXnXnXmXnXnXnXmXrX<X!.9.Y / ) C.I.R.[.[. Xx c I.x.R.N.% @ = @.4.2X{ # @ v.#X@X%X%X.X.X}.[.[.'.].{.`.nXmXnXmXnXmXmXnXmXmXmXnXnX",
"nXnXnXmXnXnXmXnXnXr.r.!.! Y ( h.I.U.'.[.{. X) I.}.}.Y.Y . # ; @.2XE.3 o @ m.XX{.}.}.}.R.T.T.L.H.L.T.`.mXmXmXmXmXmXnXmXmXmXmXmXmX",
"nXnXnXnXnXnXnXnXnXnXmX8.n ! d.x.K.L.'.[.[..X|.;X.XI.C./ . @ O # : : X X x XXQ.L.'.[.[.L.U.L.H.S.H.L.F.mXnXmXmXmXmXmXmXmXmXnXnXmX",
"nXbXbXnXbXnXnXnXnXnXnXqXC ~ l.D.Q.'.{.{.}..X;X|.R.Y.C.l.= o o X O X o e v.W.Q.L.T.T.T.L.H.H.H.H.S.K.D.nXmXnXnXmXnXnXnXnXnXmXnXmX",
"bXbXbXbXbXnXnXnXnXnXnXnXH ^ D.G.'.'.[.{. X}..X.X}.Y.A.4.<.n < : : 7 K c.m.A.F.Q.L.'.L.K.K.Z.G.G.A.A.n.nXnXmXnXnXnXmXnXnXnXnXmXzX",
"bXbXbXbXbXbXbXbXnXnXbXbXH g.z.U.T.[.[.}.}..X X.X}.Y.Q.A.2.*.! #.$.>.;.3.b.b.m.k.4.k.F.K.G.G.C.C.A.j.g.nXnXnXnXnXnXnXnXnXnXmXnXnX",
"vXbXvXbXvXbXbXbXbXbXbXbX#.l.D.U.[.}.}.}.[. X X}.{.'.Q.A.b.f.-.-.=.Q <.<.4.4.<.W T ^ 4.k.A.A.B.z.l.f.-.nXnXnXnXnXnXnXnXnXnXnXmXnX",
"vXvXvXvXvXvXvXvXbXvXvXbX%.v.F.I.T.T.R.R.R.R.R.[.{.'.'.A.b.2.;.~ ! =.&.<.<.<.W V ;.2.b.j.m.k.z.l.f.-.$.nXbXnXbXnXnXnXbXnXnXnXnXnX",
"vXvXvXbXvXbXvXvXvXvXvX7.%.f.N.G.L.T.H.J.U.U.U.U.T.'.Q.D.c.2.&.+.E $.~ ~ -.&.T T c.c.c.b.3.3.1.1.<.! G bXbXbXbXbXbXbXbXbXbXbXnXbX",
"cXvXcXcXcXcXvXcXvXcXvXvXL f.d.D.G.H.H.Z.Z.Z.Z.H.L.L.Q.z.T v +.T O.! ! $.$.&.V T m.m.c.c.2.2.1.&.@.R A vXbXvXbXbXbXbXbXbXbXbXbXbX",
"cXcXcXcXcXcXcXcXcXcXcXcXh ^ f.l.B.B.S.) Z.Z.Z.Z.H.K.D.l.W v b B P [ R $.%.%.n V n.N.c.f.2.>.&.E H S A vXvXvXvXvXvXvXbXvXvXbXbXbX",
"cXcXcXcXcXcXxXxXcXcXcXcX0 U ^ d.h.4.4.) ) V.S.S.G.G.B.j.m.f.v b J {  .%.:.:.M v g.m.g.2.>.*.$.T G a cXvXvXvXvXvXvXvXvXvXvXvXbXbX",
"cXxXxXxXxXxXxXxXxXxXxXxX8 C Q ^ ^ / 1.1.h.k.B.V.B.B.B.A.W.W.f.x e o.:.:.0.0.{ 7 -.m.g.-.*.+.J G C a xXcXvXvXcXvXvXcXcXvXvXcXvXvX",
"xXxXgXxXxXxXgXxXlXxXlXxXs 9 C P E ~ ^ <.1.4.4.4.k.m.b.A.m.`.W.K 2 ` :.y.y.i.:.3 T N.f.*.#.J M N f vXvXvXvXxXvXvXcXvXcXvXcXvXcXvX",
"lXxXxXgXlXxXlXlXlXlXlXlXgX4 p C H P ! $.&.-.<.3.3.4.3.A.m.m.W.c.3 e :.p.p.p.:.3 v v.-.! P F M D k cXcXcXxXxXvXxXxXxXcXxXxXcXcXvX",
"xXgXxXgXlXxXgXlXxXlXlXxXgXr r r a S F P R $.@.*.-.&.2.c.b.m.m.E.{ < X.p.p.p.,.e b v.-.P S A N D xXxXxXxXxXxXxXxXcXxXxXxXcXcXcXcX",
"lXlXgXgXgXlXlXlXgXgXgXgXgXgX5 s r a m N M J G O.R R &.9.c.c.c.b.>.3 e o.p.p.,.N 1 >.&.B m A D k lXxXxXxXxXxXxXxXxXxXxXxXxXxXxXxX",
"gXkXgXgXgXgXgXkXkXfXgXgXgXgXgX5 r p u e d i M m S S [ %.*.;.>.9.2.B 3 ` ,.,.,._ 3 +.>.B F D D lXlXxXlXlXlXlXlXxXlXlXlXxXxXlXxXxX",
"kXkXlXkXfXfXkXkXfXfXfXfXgXfXfXk 8 w w g i g t i i a A F L #.$.*.&.+.3 e ' ....` e K $.B F A ' lXlXlXlXlXlXlXlXlXlXlXlXlXjXxXxXxX",
"kXkXkXkXfXfXfXfXfXfXfXkXfXfXdXfX_ w t u t w u d p p p p f S J [ G O.n e N ....` b M >.J f D lXlXjXlXlXjXlXjXjXjXlXlXlXlXjXjXxXfX",
"kXkXdXdXdXfXdXfXdXkXkXdXhXhXhXhXhXk 5 s t t g u d t d d i a a m b M [ b g ` ` ' N B +.{ N jXjXjXjXjXlXlXjXjXlXjXjXjXxXjXxXjXxXfX",
"dXdXdXdXdXdXdXdXhXdXdXdXdXdXdXdXhXhXk 5 u g t u s d d d g d d g i e B ` e ` ` ..V B O.B hXhXhXjXjXjXjXjXhXjXjXjXjXjXjXjXfXfXfXfX",
"dXdXkXdXdXdXdXdXdXdXdXsXdXdXhXdXsXdXdX_ 5 p t d d d d d g g f f g d f M N N { ] { V +.{ ] dXhXhXhXhXjXhXhXhXhXhXjXjXhXhXhXfXhXfX",
"sXdXsXdXsXdXsXsXdXsXdXdXdXsXsXdXdXsXdXsX7.w w u d d d d d g g g k g m m N N { ] { V { V M 0.dXdXdXhXhXhXhXhXhXhXhXhXhXhXdXfXfXhX",
"sXdXsXsXsXsXsXsXsXsXsXsXsXsXsXsXdXsXdXdXsXsXj 9 r h s g g d s w 5 , 8 y M M ] [ O.{ R K J e./.sXdXhXhXdXdXdXdXdXdXdXdXhXdXdXdXdX",
"sXsXsXsXsXsXsXsXsXsXsXsXsXsXsXsXsXsXaXsXsXsXaXr.k r s w t , > 6 b L %.C a F J { +.+.B G H q.^.^._.aXaXdXsXsXdXdXdXdXdXdXdXdXdXdX",
"sXsXsXsXsXsXsXsXsXsXsXsXsXsXsXsXaXaXaXaXsXaXaXaXpXsXt...4 y M.~.~.`.^.8.y m M { X.+.J P H ;.~.N.W.N.^.<XdXdXdXsXdXdXaXdXsXdXsXdX",
"sXaXaXsXsXpXsXpXsXsX8XsXsX8XsXsXaXaXaXaXsXaXaXaXsXsXpX<Xy 9.~.F.I.x.N.P.U b S ] +.X.{ L n 9.`.F.1.b.N.N.!./.sXsXaXdXdXaXsXsXsXaX",
"aXaXsXsX8XsXpXsXaXaXpXaX8XaXaXaXaXaXaXaXpXaXaXaXpXsXaX).0 ^ d.z.x.x.N.~.9.C S G { X.{ J L e.q.= = ^ OX~.~.M.!.sXaXaXsXsXsXdXaXsX",
"sX8XaXaX8XsXsXpXaXaXpXpXpXaXaXpXpXaXpXaXaXaXpXaXpXpXpXw.8 Z d.h.x.x.I.P.~.! C S ] { o.F K u.q.> o Y `.~.~.N.e.aXaXaXsXaXaXaXaXaX",
"8XaX8XaXpXpXpXsXpXpXpXaXpXpXpXpXaXpXaXpXpXpXpXpXpXpXpXk & b Y ( l.x.x.n.N.e.H C I | | ]  .a.,Xj O 8 M.N.v.9.Q aXaXaXaXaXaXaXaXaX",
"aX8XaX8XpXpXsX8XpXpX8XpXpXpXpX8X8XpX8XpX8XpX8X8XpXpXpX5 4 6 C Q <.d.l.l.n.N.8.U S U  . .0.).qXj + O h Q ! Q C aXaXaXaXiXwXaXaXaX",
"8X8XsX8X8X8XsX8XpXpX8XpX8X8XpX8X8X8X8X8X8X8X8X8XaX8Xt.9 4 4 6 b R ~ <.g.l.n.M.8.U Q 8.q.w.(.yXt.- + , d b 0 h pXiXiXaXaXiXiXaXiX",
"8X8X8X8X8X8X8X8X8X8XpX8X8X8X8X8X8X8X8X8X8X8X8X8X8X8XI 9 6 & * 0 b Z E ~ ~ 9.M.M.M.M.M.w.U ).0Xs.q q w w r h pXiXiXaXiXiXiXaXaXiX",
"8X8X8X8X8X8X8X8X8X8X8X8X8X8X8X5X8X5X8X8X8X8X8X8X8X8Xh 9 h * * * > 9 b S H Q ^ 9.v.e.!.C 5 9X0X0X5._ s q | 7XiXiXiXiXiXiXiXiXiXiX",
"8X8X8X6X8X8X8X6X5X8X5X5X5X5X8X5X5X8X6X8X8X8X5X8X5X5Xh 0 Z Z C 0 w w 4 4 6 0 C H Q  .D & r 0XqX0X>X>X>Xh k 7X8XiXiXiXiXiXiXiXiXiX",
"7X7X7X7X7X7X7X8X7X7X7X8X5X5X5X5X5X5X8X6X5X5X5X5X5X5XI 0 C Y Q 8.(.,Xa.7.k r 9 4 8 5 +   k qX9X).>XiXwXp.p iX5XiX5XiX6XiXiXiXiXiX",
"7X7X6X7X7X7X6X8X7X7X4X5X5X5X5X5X6X6X6X6X4X5X5X5X5X4XC 0 Z Y Q 9.(.9X0X0XwX=Xt.6.j 9 + q =X0X9X-X,X,X,X<Xw.o.5X5X5X6XiXiXiX7XiX7X",
"6X7X6X6X7X6X5X6X5X5X4X4X4X4X5X4X6X6X4X4X4X5X4X4X8Xr.0 0 Z Y ! e.).,X).9X=X=X0X9X>X3X>X0X3Xs.>X3X=X).(.,Xw. .5X6X6X5X6X6X7X7X6X7X",
"7X6X7X6X6X6X6X6X6X6X4X4X4X4X4X5X6X4X4X4X4X4X4X4X5X6.0 C Z Z ! M./.(.s.).s.s.=X=X=X4X4X4X4X4X6X6X6X4X4X4X4X4X5X5X5X4X6X6X6X7X7X7X"
};
